<?xml version="1.0" encoding="UTF-8" standalone="no"?>
<svg xmlns:dc="http://purl.org/dc/elements/1.1/" xmlns:cc="http://creativecommons.org/ns#" xmlns:rdf="http://www.w3.org/1999/02/22-rdf-syntax-ns#" xmlns:svg="http://www.w3.org/2000/svg" xmlns="http://www.w3.org/2000/svg" viewBox="0 0 656.71252 151.46266" height="151.46266" width="656.71252" xml:space="preserve" id="svg2" version="1.1">
  <metadata id="metadata8"></metadata>
  <defs id="defs6">
    <clipPath id="clipPath24">
      <path id="path22" d="M 0,567 H 567 V 0 H 0 Z"></path>
    </clipPath>
  </defs>
  <g transform="matrix(1.3333333,0,0,-1.3333333,-52.937065,682.60932)" id="g10">
    <path id="path12" style="fill:#100f0d;fill-opacity:1;fill-rule:nonzero;stroke:none" d="M 0,0 H 567 V 299.827 H 0 Z"></path>
    <g transform="translate(82.6348,481.8268)" id="g14">
      <path id="path16" style="fill:#121210;fill-opacity:1;fill-rule:nonzero;stroke:none" d="M 0,0 H -10.968 L -32.042,-31.18 V 0 h -10.89 v -55.78 h 10.89 v 10.89 l 7.599,10.184 13.162,-21.074 H 1.41 l -19.193,29.536 z"></path>
    </g>
    <g id="g18">
      <g clip-path="url(#clipPath24)" id="g20">
        <g transform="translate(121.8056,452.526)" id="g26">
          <path id="path28" style="fill:#121210;fill-opacity:1;fill-rule:nonzero;stroke:none" d="m 0,0 c 0,-3.969 -0.366,-7.234 -1.097,-9.793 -0.418,-1.619 -1.018,-2.925 -1.801,-3.917 -0.784,-0.992 -1.881,-1.829 -3.291,-2.507 -1.41,-0.678 -3.121,-1.017 -5.131,-1.017 -2.012,0 -3.735,0.352 -5.171,1.057 -1.437,0.705 -2.52,1.553 -3.252,2.546 -1.88,2.35 -2.819,6.895 -2.819,13.631 v 2.9 c 0,5.17 0.599,9.165 1.801,11.986 1.462,3.446 4.623,5.17 9.479,5.17 4.805,0 7.939,-1.724 9.402,-5.17 C -0.627,11.908 0,7.913 0,2.9 Z m -11.399,29.771 c -7.652,0 -13.24,-2.115 -16.765,-6.346 -3.526,-4.231 -5.289,-10.682 -5.289,-19.351 V 0 c 0,-9.506 1.737,-16.372 5.211,-20.603 3.472,-4.231 9.099,-6.346 16.882,-6.346 7.782,0 13.436,2.115 16.962,6.346 3.525,4.231 5.287,11.019 5.287,20.368 v 4.231 c 0,8.617 -1.801,15.068 -5.405,19.351 -3.604,4.282 -9.232,6.424 -16.883,6.424"></path>
        </g>
        <g transform="translate(140.0205,470.3399)" id="g30">
          <path id="path32" style="fill:#ed1c24;fill-opacity:1;fill-rule:nonzero;stroke:none" d="M 0,0 H 33.296 L 12.378,-10.743 c -2.977,-1.541 -4.466,-3.456 -4.466,-5.743 0,-2.286 1.41,-4.2 4.231,-5.743 L 33.296,-32.807 H 0 v -11.486 h 55.78 v 11.321 L 23.581,-16.445 55.78,0.165 V 11.487 H 0 Z"></path>
        </g>
        <g transform="translate(232.8557,455.8171)" id="g34">
          <path id="path36" style="fill:#121210;fill-opacity:1;fill-rule:nonzero;stroke:none" d="m 0,0 c -1.384,-1.41 -3.382,-2.115 -5.993,-2.115 h -10.185 v 18.41 h 10.185 c 5.378,0 8.069,-3.082 8.069,-9.244 C 2.076,3.76 1.383,1.41 0,0 m -5.445,26.01 h -21.622 v -55.78 h 10.889 v 17.862 h 10.733 c 5.849,0 10.381,1.606 13.593,4.818 3.212,3.212 4.818,7.925 4.818,14.141 0,6.214 -1.606,10.928 -4.818,14.14 -3.212,3.213 -7.744,4.819 -13.593,4.819"></path>
        </g>
        <g transform="translate(267.3653,437.0143)" id="g38">
          <path id="path40" style="fill:#121210;fill-opacity:1;fill-rule:nonzero;stroke:none" d="M 0,0 C -0.993,0.835 -1.489,2.351 -1.489,4.544 V 44.813 H -12.378 V 4.544 c 0,-5.484 1.397,-9.44 4.191,-11.868 2.794,-2.429 7.325,-3.643 13.593,-3.643 h 16.608 v 9.714 H 5.406 C 2.794,-1.253 0.991,-0.835 0,0"></path>
        </g>
        <g transform="translate(298.0744,440.7746)" id="g42">
          <path id="path44" style="fill:#121210;fill-opacity:1;fill-rule:nonzero;stroke:none" d="m 0,0 c 0,-5.483 1.266,-9.31 3.8,-11.476 2.532,-2.169 6.933,-3.252 13.2,-3.252 h 19.744 v 9.714 H 17.783 c -2.612,0 -4.412,0.419 -5.405,1.254 -0.993,0.835 -1.489,2.351 -1.489,4.544 v 7.755 h 17.314 l 0.783,9.716 H 10.889 v 13.082 h 25.855 v 9.715 L 0,41.052 Z"></path>
        </g>
        <g transform="translate(370.6984,454.6414)" id="g46">
          <path id="path48" style="fill:#121210;fill-opacity:1;fill-rule:nonzero;stroke:none" d="M 0,0 17.549,27.185 H 4.231 L -6.345,9.167 -16.765,27.185 H -30.161 L -12.613,0 -31.337,-28.594 h 13.475 L -6.345,-9.165 5.327,-28.594 h 13.476 z"></path>
        </g>
        <g transform="translate(509.2342,426.047)" id="g50">
          <path id="path52" style="fill:#ed1c24;fill-opacity:1;fill-rule:nonzero;stroke:none" d="m 0,0 -10.889,20.682 h -7.835 V 0 h -10.889 v 43.794 c 0,4.177 0.965,7.219 2.898,9.126 1.932,1.906 5.171,2.86 9.714,2.86 h 9.244 c 5.536,0 9.937,-1.685 13.202,-5.053 3.263,-3.369 4.896,-7.638 4.896,-12.809 0,-3.76 -0.979,-7.012 -2.938,-9.755 C 5.445,25.422 3.028,23.528 0.157,22.484 L 12.613,0 Z m -44.185,5.248 c -3.553,-3.812 -8.566,-5.719 -15.043,-5.719 -14.258,0 -21.387,8.383 -21.387,25.148 v 4.702 c 0,13.212 3.656,21.49 10.968,24.834 2.872,1.358 6.345,2.037 10.419,2.037 5.955,0 10.798,-1.633 14.533,-4.896 3.733,-3.266 5.601,-7.98 5.601,-14.141 h -10.184 c -0.575,3.081 -1.594,5.405 -3.055,6.972 -1.463,1.567 -3.76,2.35 -6.895,2.35 -3.655,0 -6.371,-1.149 -8.146,-3.446 -1.255,-1.62 -1.987,-4.388 -2.195,-8.305 -0.104,-1.254 -0.157,-2.951 -0.157,-5.092 v -4.858 c 0,-6.006 0.836,-10.106 2.507,-12.3 1.724,-2.193 4.401,-3.289 8.031,-3.289 3.629,0 6.136,1.004 7.52,3.015 1.384,2.01 2.285,5.131 2.704,9.362 h 10.106 c 0,-7.104 -1.776,-12.561 -5.327,-16.374 M 9.946,85.91 h -87.483 c -7.211,0 -13.057,-5.846 -13.057,-13.057 V -14.63 c 0,-7.211 5.846,-13.057 13.057,-13.057 H 9.946 c 7.211,0 13.057,5.846 13.057,13.057 v 87.483 c 0,7.211 -5.846,13.057 -13.057,13.057"></path>
        </g>
        <g transform="translate(500.7725,472.1117)" id="g54">
          <path id="path56" style="fill:#ed1c24;fill-opacity:1;fill-rule:nonzero;stroke:none" d="m 0,0 h -5.405 c -3.239,0 -4.857,-1.645 -4.857,-4.935 v -11.36 H 0 c 2.298,0 4.191,0.796 5.681,2.39 1.488,1.592 2.232,3.577 2.232,5.953 0,2.377 -0.719,4.296 -2.155,5.759 C 4.321,-0.732 2.402,0 0,0"></path>
        </g>
        <g transform="translate(70.6348,152.3268)" id="g58">
          <path id="path60" style="fill:#ffffff;fill-opacity:1;fill-rule:nonzero;stroke:none" d="M 0,0 H -10.968 L -32.042,-31.18 V 0 h -10.89 v -55.78 h 10.89 v 10.89 l 7.599,10.184 13.162,-21.074 H 1.41 l -19.193,29.536 z"></path>
        </g>
        <g transform="translate(109.8056,123.026)" id="g62">
          <path id="path64" style="fill:#ffffff;fill-opacity:1;fill-rule:nonzero;stroke:none" d="m 0,0 c 0,-3.969 -0.366,-7.234 -1.097,-9.793 -0.418,-1.619 -1.018,-2.925 -1.801,-3.917 -0.784,-0.992 -1.881,-1.828 -3.291,-2.507 -1.41,-0.678 -3.121,-1.017 -5.131,-1.017 -2.012,0 -3.735,0.352 -5.171,1.057 -1.437,0.705 -2.52,1.553 -3.252,2.546 -1.88,2.35 -2.819,6.895 -2.819,13.631 v 2.9 c 0,5.17 0.599,9.165 1.801,11.986 1.462,3.446 4.623,5.17 9.479,5.17 4.805,0 7.939,-1.724 9.402,-5.17 C -0.627,11.908 0,7.913 0,2.9 Z m -11.399,29.771 c -7.652,0 -13.24,-2.115 -16.765,-6.346 -3.526,-4.231 -5.289,-10.682 -5.289,-19.351 V 0 c 0,-9.506 1.737,-16.372 5.211,-20.603 3.472,-4.231 9.099,-6.346 16.882,-6.346 7.782,0 13.436,2.115 16.962,6.346 3.525,4.231 5.287,11.019 5.287,20.368 v 4.231 c 0,8.617 -1.801,15.068 -5.405,19.351 -3.604,4.282 -9.232,6.424 -16.883,6.424"></path>
        </g>
        <g transform="translate(128.0205,140.8399)" id="g66">
          <path id="path68" style="fill:#ed1c24;fill-opacity:1;fill-rule:nonzero;stroke:none" d="M 0,0 H 33.296 L 12.378,-10.743 c -2.977,-1.541 -4.466,-3.456 -4.466,-5.743 0,-2.286 1.41,-4.2 4.231,-5.743 L 33.296,-32.807 H 0 v -11.486 h 55.78 v 11.321 L 23.581,-16.445 55.78,0.165 V 11.487 H 0 Z"></path>
        </g>
        <g transform="translate(220.8557,126.3171)" id="g70">
          <path id="path72" style="fill:#ffffff;fill-opacity:1;fill-rule:nonzero;stroke:none" d="m 0,0 c -1.384,-1.41 -3.382,-2.115 -5.993,-2.115 h -10.185 v 18.41 h 10.185 c 5.378,0 8.069,-3.082 8.069,-9.244 C 2.076,3.76 1.383,1.41 0,0 m -5.445,26.01 h -21.622 v -55.78 h 10.889 v 17.862 h 10.733 c 5.849,0 10.381,1.606 13.593,4.818 3.212,3.212 4.818,7.925 4.818,14.141 0,6.214 -1.606,10.928 -4.818,14.14 -3.212,3.213 -7.744,4.819 -13.593,4.819"></path>
        </g>
        <g transform="translate(255.3653,107.5143)" id="g74">
          <path id="path76" style="fill:#ffffff;fill-opacity:1;fill-rule:nonzero;stroke:none" d="M 0,0 C -0.993,0.835 -1.489,2.351 -1.489,4.544 V 44.813 H -12.378 V 4.544 c 0,-5.484 1.397,-9.44 4.191,-11.868 2.794,-2.429 7.325,-3.643 13.593,-3.643 h 16.608 v 9.714 H 5.406 C 2.794,-1.253 0.991,-0.835 0,0"></path>
        </g>
        <g transform="translate(286.0744,111.2746)" id="g78">
          <path id="path80" style="fill:#ffffff;fill-opacity:1;fill-rule:nonzero;stroke:none" d="m 0,0 c 0,-5.483 1.266,-9.31 3.8,-11.476 2.532,-2.169 6.933,-3.252 13.2,-3.252 h 19.744 v 9.714 H 17.783 c -2.612,0 -4.412,0.418 -5.405,1.254 -0.993,0.835 -1.489,2.351 -1.489,4.544 v 7.755 h 17.314 l 0.783,9.715 H 10.889 v 13.083 h 25.855 v 9.715 L 0,41.052 Z"></path>
        </g>
        <g transform="translate(358.6984,125.1414)" id="g82">
          <path id="path84" style="fill:#ffffff;fill-opacity:1;fill-rule:nonzero;stroke:none" d="M 0,0 17.549,27.185 H 4.231 L -6.345,9.167 -16.765,27.185 H -30.161 L -12.613,0 -31.337,-28.594 h 13.475 L -6.345,-9.165 5.327,-28.594 h 13.476 z"></path>
        </g>
        <g transform="translate(497.2342,96.547)" id="g86">
          <path id="path88" style="fill:#ed1c24;fill-opacity:1;fill-rule:nonzero;stroke:none" d="m 0,0 -10.889,20.682 h -7.835 V 0 h -10.889 v 43.794 c 0,4.177 0.965,7.219 2.898,9.126 1.932,1.906 5.171,2.86 9.714,2.86 h 9.244 c 5.536,0 9.937,-1.685 13.202,-5.054 3.263,-3.368 4.896,-7.637 4.896,-12.808 0,-3.76 -0.979,-7.012 -2.938,-9.755 C 5.445,25.422 3.028,23.528 0.157,22.484 L 12.613,0 Z m -44.185,5.248 c -3.553,-3.812 -8.566,-5.719 -15.043,-5.719 -14.258,0 -21.387,8.383 -21.387,25.148 v 4.702 c 0,13.212 3.656,21.49 10.968,24.834 2.872,1.358 6.345,2.037 10.419,2.037 5.955,0 10.798,-1.633 14.533,-4.896 3.733,-3.266 5.601,-7.98 5.601,-14.141 h -10.184 c -0.575,3.081 -1.594,5.405 -3.055,6.972 -1.463,1.567 -3.76,2.35 -6.895,2.35 -3.655,0 -6.371,-1.149 -8.146,-3.446 -1.255,-1.62 -1.987,-4.388 -2.195,-8.305 -0.104,-1.254 -0.157,-2.951 -0.157,-5.092 v -4.858 c 0,-6.006 0.836,-10.106 2.507,-12.3 1.724,-2.193 4.401,-3.289 8.031,-3.289 3.629,0 6.136,1.004 7.52,3.015 1.384,2.01 2.285,5.131 2.704,9.362 h 10.106 c 0,-7.104 -1.776,-12.561 -5.327,-16.374 M 9.946,85.91 h -87.483 c -7.211,0 -13.057,-5.846 -13.057,-13.057 V -14.63 c 0,-7.211 5.846,-13.057 13.057,-13.057 H 9.946 c 7.211,0 13.057,5.846 13.057,13.057 v 87.483 c 0,7.211 -5.846,13.057 -13.057,13.057"></path>
        </g>
        <g transform="translate(488.7725,142.6117)" id="g90">
          <path id="path92" style="fill:#ed1c24;fill-opacity:1;fill-rule:nonzero;stroke:none" d="m 0,0 h -5.405 c -3.239,0 -4.857,-1.645 -4.857,-4.935 v -11.36 H 0 c 2.298,0 4.191,0.796 5.681,2.39 1.488,1.593 2.232,3.577 2.232,5.953 0,2.377 -0.719,4.296 -2.155,5.759 C 4.321,-0.732 2.402,0 0,0"></path>
        </g>
      </g>
    </g>
  </g>
</svg>
