<?xml version="1.0" encoding="UTF-8"?>
<svg xmlns="http://www.w3.org/2000/svg" width="65" height="59" viewBox="0 0 65 59" fill="none">
  <path d="M65 41C65 50.9411 56.9411 59 47 59L20 59C17.2386 59 15 56.7614 15 54L15 20C15 14.4772 19.4772 10 25 10L60 10C62.7614 10 65 12.2386 65 15L65 41Z" fill="#FF9480"></path>
  <path d="M38.0592 27.8137L37.0125 28.936V3.77409L38.0598 4.89437C38.2258 5.07302 38.5055 5.08164 38.683 4.91562C38.8611 4.74903 38.8709 4.47042 38.7043 4.29235L36.8913 2.35243C36.891 2.35204 36.8904 2.35189 36.89 2.3515C36.7116 2.16313 36.4279 2.17095 36.2574 2.34457C36.1995 2.40353 34.3788 4.3501 34.4379 4.29235C34.2718 4.471 34.2816 4.75018 34.4597 4.9162C34.6384 5.08279 34.9183 5.07162 35.0835 4.89437L36.1302 3.77165V28.9344L35.083 27.8137C34.9164 27.6356 34.6378 27.627 34.4597 27.7925C34.2816 27.9585 34.2718 28.2377 34.4384 28.4157L36.2508 30.3551C36.2515 30.3558 36.2525 30.3561 36.2532 30.3568C36.44 30.5532 36.7337 30.5175 36.8859 30.3622C36.9437 30.3031 38.7638 28.3578 38.7049 28.4157C38.8709 28.2377 38.8611 27.9585 38.683 27.7919C38.5055 27.6265 38.2263 27.6356 38.0592 27.8137Z" fill="#801401"></path>
  <path d="M8.31251 22.5564C8.55608 22.5564 8.75369 22.3588 8.75369 22.1152V22.0244C8.75369 21.7809 8.55608 21.5833 8.31251 21.5833C8.06895 21.5833 7.87134 21.7809 7.87134 22.0244V22.1152C7.87134 22.3588 8.06894 22.5564 8.31251 22.5564Z" fill="#801401"></path>
  <path d="M11.7512 27.9401H8.75369V23.8087C8.75369 23.5651 8.55608 23.3675 8.31251 23.3675C8.06895 23.3675 7.87134 23.5651 7.87134 23.8087V28.3813C7.87134 28.6248 8.06895 28.8224 8.31251 28.8224H11.7512C11.9947 28.8224 12.1923 28.6248 12.1923 28.3813C12.1923 28.1377 11.9947 27.9401 11.7512 27.9401Z" fill="#801401"></path>
  <path d="M30.3788 10.7739C30.5431 10.5935 30.5305 10.3149 30.3507 10.1506L24.4723 4.78752C24.2914 4.62266 24.0128 4.63587 23.8491 4.81567C23.6848 4.99605 23.6974 5.27465 23.8772 5.43895L29.7555 10.802C29.9383 10.9687 30.2176 10.9511 30.3788 10.7739Z" fill="#801401"></path>
  <path d="M22.9414 3.98847C23.1057 3.80867 23.0931 3.52949 22.9133 3.36519L22.4583 2.94987C22.2773 2.78557 21.9987 2.79764 21.835 2.97802C21.6707 3.15782 21.6834 3.437 21.8632 3.60129L22.3181 4.01662C22.5009 4.18332 22.7802 4.16572 22.9414 3.98847Z" fill="#801401"></path>
  <path d="M4.70671 19.0614L5.53621 18.3047V30.2752H3.03219C2.78863 30.2752 2.59102 30.4728 2.59102 30.7164C2.59102 30.96 2.78863 31.1576 3.03219 31.1576H31.2767C31.5202 31.1576 31.7179 30.96 31.7179 30.7164C31.7179 30.4728 31.5202 30.2752 31.2767 30.2752H28.7727V18.3047L29.6022 19.0614C30.0091 19.4322 30.6456 19.4116 31.0234 18.9965L32.8702 16.9721C33.2436 16.562 33.2143 15.9244 32.8053 15.551L17.8329 1.89173C17.4457 1.53787 16.8626 1.53901 16.4766 1.89173L10.1979 7.61955V5.16953H10.5937C10.8372 5.16953 11.0348 4.97192 11.0348 4.72836C11.0348 4.48479 10.8372 4.28718 10.5937 4.28718C10.4398 4.28718 4.02439 4.28718 4.4821 4.28718C4.23854 4.28718 4.04093 4.48479 4.04093 4.72836C4.04093 4.97192 4.23854 5.16953 4.4821 5.16953H4.87847V12.4722L1.50359 15.551C1.09459 15.9244 1.06529 16.562 1.43925 16.9727L3.28496 18.9965C3.64388 19.3896 4.27446 19.4538 4.70671 19.0614ZM27.8903 30.2752H6.41857V17.4998C7.51357 16.5011 2.47074 21.1005 17.0711 7.78384C17.1183 7.74133 17.1906 7.74133 17.2377 7.78384C17.2377 7.78384 17.2383 7.78384 17.2383 7.78442C31.8421 21.104 26.7975 16.503 27.8903 17.4997L27.8903 30.2752ZM5.76083 5.16953H9.31552V8.42447L5.76083 11.6673V5.16953ZM2.09872 16.2024C2.0394 16.2569 6.48454 12.2049 17.0717 2.54316C17.1188 2.50064 17.1918 2.50064 17.2377 2.54316L32.2102 16.2024C32.2607 16.2483 32.2642 16.327 32.2182 16.3776L30.3714 18.402C30.3265 18.4514 30.25 18.4569 30.1973 18.41C26.2935 14.8486 20.2889 9.37077 17.8329 7.13013C17.4484 6.77769 16.8653 6.77484 16.4766 7.13013C16.3714 7.22609 3.27163 19.1744 4.11216 18.4094C4.06104 18.4565 3.98234 18.4519 3.93696 18.4019C3.93696 18.4019 3.93696 18.4019 3.93638 18.4014L2.09124 16.3782C2.04472 16.327 2.04816 16.2483 2.09872 16.2024Z" fill="#801401"></path>
  <path d="M32.917 35.8069C32.8579 35.7491 30.912 33.929 30.9699 33.9879C30.7924 33.8219 30.5132 33.8311 30.3461 34.0097C30.1801 34.1878 30.1898 34.467 30.3679 34.6336L31.4902 35.6802H4.57679L5.69707 34.633C5.87515 34.4664 5.88492 34.1872 5.71832 34.0097C5.5523 33.8311 5.27255 33.8225 5.09505 33.9885L3.1557 35.8014L3.15477 35.8027C2.96735 35.9802 2.97345 36.2641 3.14784 36.4354C3.2068 36.4933 5.1528 38.314 5.09504 38.2549C5.27168 38.4196 5.55061 38.4124 5.71889 38.2331C5.88491 38.055 5.87515 37.7758 5.69706 37.6092L4.57434 36.5626H31.4886L30.3679 37.6098C30.1898 37.7758 30.1801 38.055 30.3467 38.2331C30.5118 38.4103 30.7916 38.4218 30.9699 38.2543L32.9098 36.4419L32.9115 36.4395C33.1104 36.2504 33.0768 35.9633 32.917 35.8069Z" fill="#801401"></path>
  <path d="M17.162 14.1876C17.1583 14.1875 17.1553 14.1855 17.1516 14.1855C17.1472 14.1855 17.1436 14.1878 17.1392 14.188C14.6285 14.1963 12.5881 16.2403 12.5881 18.7529V25.6325C12.5881 26.0731 12.9466 26.4316 13.3872 26.4316H17.1402C17.1442 26.4317 17.1475 26.4339 17.1516 26.4339C17.1556 26.4339 17.1589 26.4317 17.1629 26.4316H20.9211C21.3617 26.4316 21.7201 26.0731 21.7201 25.6325V18.7529C21.7201 16.2377 19.6763 14.1918 17.162 14.1876ZM20.8215 18.4318H17.5927V15.0982C19.3127 15.3033 20.6707 16.6961 20.8215 18.4318ZM13.4705 19.3142H16.7104V22.2088H13.4705V19.3142ZM17.5927 19.3142H20.8378V22.2088H17.5927V19.3142ZM16.7104 15.099V18.4318H13.4868C13.6374 16.698 14.9931 15.3066 16.7104 15.099ZM13.4705 23.0912H16.7104V25.5492H13.4705V23.0912ZM17.5927 25.5492V23.0912H20.8378V25.5492L17.5927 25.5492Z" fill="#801401"></path>
</svg>
