<?xml version="1.0" encoding="UTF-8"?>
<svg xmlns:xlink="http://www.w3.org/1999/xlink" xmlns="http://www.w3.org/2000/svg" width="400" height="121.112">
  <g fill-rule="evenodd">
    <path d="M21.27.119c-.448.037-.922.176-1.054.308s-.497.24-.811.24c-.315 0-.572.075-.572.166 0 .092-.3.167-.666.167-.438 0-.653.07-.625.204.023.113-.146.23-.375.26-.511.068-1.45.486-1.586.707-.056.089-.284.162-.508.162-.223 0-.406.075-.406.167 0 .092-.142.167-.316.167-.173 0-.359.112-.411.25-.053.137-.249.25-.435.25s-.338.075-.338.166c0 .092-.15.167-.334.167-.19 0-.333.111-.333.26 0 .143-.069.217-.153.165-.085-.052-.267.018-.405.157-.138.138-.332.251-.43.251-.098 0-.179.069-.179.153 0 .084-.206.228-.458.32-.366.134-.391.172-.125.187.259.016.218.07-.181.244-.283.123-.731.439-.994.702-.264.263-.538.459-.61.436-.073-.023-.132.039-.132.137 0 .231-.424.655-.654.655A.179.179 0 008 7.345C8 7.576 7.576 8 7.345 8c-.098 0-.178.112-.178.25 0 .137-.075.25-.167.25-.092 0-.167.112-.167.25 0 .137-.117.25-.26.25-.142 0-.217.069-.165.153.052.085-.018.267-.156.405-.139.138-.252.324-.252.412 0 .089-.117.206-.261.261-.143.055-.214.175-.158.266.062.099-.012.122-.185.055-.219-.084-.262-.044-.182.165.066.171-.017.359-.22.502-.179.125-.277.275-.219.334.058.058-.017.153-.168.211-.15.058-.274.284-.274.504 0 .219-.056.399-.125.4-.193.001-.708.986-.708 1.355 0 .182-.07.287-.155.234-.086-.053-.18.112-.209.365-.03.26-.144.443-.261.42-.121-.025-.208.128-.208.365 0 .224-.075.453-.167.51-.092.056-.167.326-.167.598 0 .287-.105.536-.25.591-.137.053-.25.234-.25.402s-.075.352-.166.409c-.092.056-.167.361-.167.676 0 .368-.08.574-.223.574-.14 0-.238.233-.262.625-.022.343-.046.718-.055.833-.009.115-.078.208-.154.208-.077 0-.139.375-.139.834 0 .59-.066.833-.226.833-.277 0-.259-.317-.376 6.5-.097 5.606.023 10.068.266 9.918.171-.106.331.507.333 1.28.002.339.078.662.169.719.092.056.167.353.167.658 0 .341.097.593.25.652.15.058.25.309.25.628 0 .573.478 1.812.699 1.812.074 0 .134.183.134.406 0 .224.075.454.167.51.092.057.167.244.167.415 0 .171.112.424.25.562.137.137.25.363.25.502 0 .138.075.298.166.355.092.056.167.278.167.492 0 .214.113.432.25.485.138.052.251.267.253.476.002.306.033.332.164.13.132-.204.162-.185.164.105a.833.833 0 00.252.562c.138.114.25.31.25.437 0 .126.075.229.167.229.092 0 .167.113.167.25 0 .138.075.25.166.25.092 0 .168.094.169.209.001.114.301.53.667.924.365.393.664.791.664.884 0 .094.07.127.155.074.085-.052.203.056.261.24.059.185.168.336.243.336.075 0 .177.158.227.35.059.226.165.305.298.223.145-.09.174-.043.097.158-.061.158-.044.245.037.196.081-.05.323.132.54.406.216.274.528.498.694.499.166.001.255.076.198.168-.056.092-.041.167.034.167.075 0 .359.206.631.458.273.252.553.44.624.417.07-.023.128.065.128.195s.263.324.583.43c.321.106.584.299.584.429 0 .131.104.237.231.237.322 0 1.117.43 1.004.543-.051.051.139.143.421.205s.471.182.419.266c-.052.084.147.153.443.153.295 0 .485.052.421.116-.126.126.98.717 1.341.717.122 0 .61.188 1.085.417.475.229 1.117.417 1.426.417.309 0 .521.066.47.147-.116.188.471.347 1.29.35.38.002.594.069.532.169-.065.106.39.167 1.25.167.754 0 1.312.066 1.261.149-.169.273.297.308 3.822.288 2.703-.016 3.491-.068 3.459-.229-.031-.152.297-.208 1.208-.208.722 0 1.25-.07 1.25-.167 0-.091.34-.166.755-.166.518 0 .786-.079.851-.25.06-.155.313-.25.662-.25.311 0 .565-.075.565-.167 0-.092.22-.167.488-.167.269 0 .601-.112.739-.25.137-.137.363-.25.502-.25.138 0 .298-.075.355-.166.056-.092.251-.167.431-.167.181 0 .372-.113.425-.25.053-.138.243-.25.423-.25s.432-.094.56-.208c.552-.495.74-.625.904-.625a.17.17 0 00.173-.167c0-.092.142-.167.316-.167.173 0 .359-.112.411-.25.053-.137.193-.25.312-.25.118 0 .356-.187.528-.416.173-.229.42-.417.55-.417.13 0 .193-.07.141-.155-.053-.085.055-.202.24-.261s.336-.176.336-.262c0-.085.08-.155.178-.155.255 0 .591-.371.728-.802.065-.203.187-.327.272-.274.085.052.155-.014.155-.147 0-.133.117-.287.261-.342.143-.055.213-.175.156-.267-.057-.093.014-.168.156-.168.143 0 .26-.113.26-.25 0-.138.094-.232.209-.209.114.023.189-.052.166-.166-.023-.115.029-.209.114-.209.086 0 .207-.162.27-.361.063-.198.293-.539.511-.757.218-.218.397-.506.397-.639 0-.134.075-.243.167-.243.091 0 .166-.179.166-.399 0-.219.113-.442.25-.494.138-.053.25-.249.25-.435s.075-.338.167-.338c.092 0 .167-.153.167-.339 0-.186.112-.382.25-.434.137-.053.25-.276.25-.495 0-.22.066-.399.147-.399.082 0 .186-.206.231-.458.09-.493.41-1.445.644-1.915.079-.159.144-.48.144-.713 0-.234.113-.468.25-.52.175-.068.25-.341.25-.912 0-.448.075-.815.167-.815.094 0 .167-.468.167-1.07 0-.707.07-1.093.208-1.139.252-.084.29-1.158.047-1.33-.481-.342-7.426-.138-7.804.23-.202.197-.256.295-.118.218.198-.111.212-.09.067.1-.1.133-.2.69-.222 1.239-.022.55-.104 1.039-.183 1.088-.079.049-.162.401-.185.782-.023.382-.109.68-.193.663-.131-.027-.262.453-.322 1.177-.01.115-.08.208-.156.208-.077 0-.139.118-.139.262 0 .144-.113.375-.25.512a.952.952 0 00-.25.581c0 .183-.075.285-.167.229-.092-.057-.169.032-.172.198-.003.166-.113.444-.245.618-.131.174-.192.393-.134.487.064.103-.003.128-.17.064-.151-.058-.267-.052-.257.014.06.406-.072.672-.431.864-.224.121-.403.265-.397.32.038.328-.049.524-.194.435-.092-.057-.167-.004-.167.117 0 .12-.187.422-.416.669-.229.247-.417.527-.417.623 0 .096-.08.174-.179.174-.23 0-.654.424-.654.655 0 .098-.113.178-.25.178-.138 0-.25.07-.25.156s-.263.251-.584.367c-.32.116-.583.296-.583.401 0 .104-.293.332-.652.506-.358.175-.616.374-.573.444.043.069-.151.126-.432.126-.28 0-.51.075-.51.167 0 .092-.15.167-.333.167-.183 0-.333.071-.333.159 0 .087-.264.208-.586.269-.321.06-.626.176-.676.257-.05.082-.42.148-.822.148-.401 0-.776.074-.832.165-.06.098.02.122.199.059.22-.078.253-.055.124.086-.296.323-7.038.274-7.4-.054-.161-.145-.588-.256-.989-.256-.427 0-.664-.066-.602-.167.06-.097-.109-.166-.406-.166-.281 0-.51-.08-.51-.177 0-.097-.06-.14-.133-.095-.073.045-.456-.063-.851-.24-.396-.177-.824-.322-.951-.322-.128 0-.232-.075-.232-.166 0-.092-.115-.167-.255-.167a.408.408 0 01-.351-.25c-.053-.137-.23-.25-.394-.25s-.341-.113-.394-.252c-.053-.138-.155-.233-.226-.21-.072.022-.342-.146-.602-.374-.259-.228-.505-.393-.546-.368-.04.025-.249-.144-.464-.375-.214-.232-.475-.421-.579-.421a.184.184 0 01-.189-.179c0-.23-.424-.654-.655-.654-.098 0-.178-.113-.178-.25 0-.138-.07-.25-.156-.25-.085 0-.206-.16-.268-.356-.089-.279-.144-.306-.259-.125-.119.189-.146.184-.148-.028-.004-.389-.396-1.155-.592-1.157-.095 0-.316-.245-.491-.543a6.097 6.097 0 00-.62-.864c-.165-.178-.3-.451-.3-.608a.433.433 0 00-.25-.38c-.137-.052-.25-.248-.25-.434s-.075-.339-.166-.339c-.092 0-.167-.14-.167-.313a.782.782 0 00-.258-.526c-.141-.118-.218-.317-.169-.444.048-.126-.023-.272-.159-.324-.151-.058-.247-.314-.247-.66 0-.312-.075-.566-.167-.566-.092 0-.167-.217-.167-.482 0-.275-.107-.524-.25-.578-.147-.057-.25-.307-.25-.612 0-.284-.077-.661-.171-.837-.095-.177-.182-.591-.195-.922-.012-.33-.122-.639-.245-.686-.15-.058-.222-.401-.222-1.058 0-.534-.075-1.018-.167-1.075-.226-.14-.226-8.693 0-8.833.092-.057.167-.628.167-1.27 0-.644.067-1.125.149-1.074.199.123.351-.306.351-.993 0-.308.075-.607.167-.663.091-.057.166-.364.166-.682 0-.361.095-.615.25-.675.141-.054.25-.302.25-.568 0-.26.075-.519.167-.575.092-.057.167-.249.167-.427s.074-.323.164-.323c.091 0 .213-.303.273-.673.059-.369.146-.633.193-.585.105.104.536-.695.536-.994 0-.117.113-.256.25-.309.138-.052.25-.243.25-.424s.075-.375.167-.432c.092-.057.167-.249.167-.427 0-.177.112-.323.25-.323.137 0 .25-.117.25-.26 0-.143.075-.213.166-.157.092.057.167-.014.167-.156 0-.389.02-.42.875-1.321.435-.458.792-.895.792-.97 0-.075.08-.136.178-.136.247 0 .662-.437.536-.563-.057-.057.022-.104.175-.104.152 0 .277-.112.277-.25 0-.137.069-.25.153-.25.083 0 .422-.262.753-.583.33-.321.711-.583.845-.583.285 0 .929-.511.836-.662-.035-.056.082-.113.26-.127.178-.013.445-.146.593-.294.149-.148.373-.23.498-.182.13.05.229-.018.229-.157 0-.148.16-.245.403-.245.221 0 .428-.073.458-.161.031-.089.299-.18.597-.202.31-.024.542-.133.542-.256 0-.139.234-.214.667-.214.366 0 .666-.075.666-.167 0-.093.448-.167 1.01-.167.611 0 .97-.064.91-.161-.173-.28.585-.352 3.164-.303 1.676.032 2.489.107 2.467.228-.019.108.338.195.888.217.507.021 1.107.108 1.335.195a2.8 2.8 0 00.83.158c.238 0 .371.072.312.168-.058.094.124.215.41.272.283.056.555.168.604.248.05.08.265.145.479.145.214 0 .432.113.486.252.053.138.154.234.226.213.186-.055 1.546.883 1.546 1.067 0 .085.065.114.145.065.179-.111.855.454.855.714 0 .104.078.189.172.189.172 0 1.161.934 1.161 1.096 0 .047.184.283.408.525.224.242.37.501.324.576-.047.075-.02.136.06.136.079 0 .277.3.438.667.162.367.368.667.459.667.09 0 .118.075.061.166-.056.092-.023.167.074.167s.176.178.176.396c0 .218.108.486.24.596.132.109.199.306.149.437-.055.145.013.238.177.238.2 0 .268.164.268.652 0 .359.076.679.17.71.093.031.187.3.208.597.021.297.128.54.238.54.119.001.219.318.25.792l.05.792 4.052.045 4.051.044-.067-.461a4.107 4.107 0 00-.163-.711c-.054-.138-.142-.663-.197-1.167l-.124-1.118c-.013-.11-.086-.162-.163-.115-.076.047-.139-.178-.139-.501 0-.678-.505-2.433-.701-2.433-.072 0-.132-.187-.132-.416 0-.229-.075-.417-.167-.417-.091 0-.166-.144-.166-.319 0-.348-.991-2.397-1.203-2.487-.072-.03-.131-.155-.131-.277 0-.123-.078-.249-.174-.281-.095-.031-.186-.22-.201-.419-.015-.198-.073-.332-.13-.297-.127.078-.661-.531-.661-.755A.16.16 0 0047.011 8c-.085 0-.198-.131-.249-.292-.105-.323-2.759-3.124-2.767-2.919-.003.07-.082-.004-.175-.164-.093-.16-.273-.292-.4-.292-.126 0-.377-.187-.557-.416-.18-.23-.453-.417-.605-.417-.153 0-.23-.077-.172-.171.058-.094.044-.16-.032-.147-.387.067-.721-.039-.721-.23 0-.118-.167-.227-.372-.242-.205-.016-.399-.107-.431-.203-.032-.095-.169-.174-.306-.174-.136 0-.36-.112-.498-.25a.941.941 0 00-.571-.25c-.177 0-.322-.075-.322-.166 0-.092-.23-.167-.512-.167-.281 0-.624-.113-.761-.25-.138-.138-.433-.25-.655-.25-.223 0-.405-.075-.405-.167 0-.091-.338-.166-.75-.166-.492 0-.75-.073-.75-.211 0-.305-10.911-.573-13.73-.337M79.826.063c-.051.05-.553.105-1.117.122-.685.021-1.054.106-1.112.256-.053.138-.348.226-.758.226-.37 0-.672.075-.672.166 0 .092-.246.167-.547.167-.3 0-.707.113-.904.251a1.89 1.89 0 01-.787.286c-.236.02-.429.094-.429.166 0 .072-.179.13-.399.13-.219 0-.442.113-.495.25-.052.138-.195.25-.318.25-.386 0-1.119.409-1.12.625-.001.115-.181.209-.401.209-.219 0-.575.186-.791.413-.216.228-.486.416-.601.417-.115.002-.208.078-.208.17 0 .091-.113.166-.25.166-.138 0-.25.075-.25.167 0 .092-.113.167-.25.167-.138 0-.232.056-.209.125.056.167-1.327 1.541-1.551 1.541-.097 0-.13.076-.073.168.057.092-.013.213-.157.268-.143.055-.26.192-.26.304 0 .112-.188.304-.417.427-.229.123-.417.364-.417.536 0 .172-.168.478-.375.68-.206.202-.401.517-.432.701-.032.183-.163.393-.292.466a.489.489 0 00-.234.375c0 .133-.094.243-.208.245-.142.001-.128.059.041.179.188.133.199.198.042.261-.115.047-.208.266-.208.488 0 .255-.096.402-.263.402-.183 0-.253.14-.232.459.045.692.006.816-.172.541-.119-.184-.162-.072-.164.425-.002.372-.09.763-.197.869-.106.107-.213.62-.237 1.141-.024.52-.127.998-.229 1.061-.122.076-.169.707-.137 1.851l.047 1.737 3.853.044 3.852.045.031-1.461c.017-.804.103-1.487.19-1.517.087-.031.158-.425.158-.875 0-.618.061-.82.25-.82.174 0 .25-.176.25-.583 0-.321.075-.583.166-.583.092 0 .167-.188.167-.417 0-.229.074-.417.163-.417.09 0 .211-.187.269-.416.057-.229.157-.417.222-.417s.288-.303.496-.673c.389-.692 1.772-2.16 2.035-2.16.082 0 .148-.113.148-.25 0-.139.148-.25.334-.25.183 0 .333-.075.333-.167 0-.092.112-.167.25-.167.137 0 .25-.075.25-.166 0-.092.188-.167.417-.167.259 0 .416-.094.416-.25 0-.153.156-.25.403-.25.222 0 .428-.07.458-.156.047-.13.523-.262 1.191-.33.074-.008.088-.089.032-.181-.062-.099.134-.166.48-.166.321 0 .63-.075.686-.167.057-.092.578-.167 1.159-.167.785 0 1.08-.064 1.152-.25.08-.21.621-.25 3.444-.25 1.903 0 3.309.064 3.257.148-.13.21.501.347 1.613.35.527.001.959.077.959.169 0 .092.256.167.569.167.314 0 .82.125 1.125.278 1.031.516 1.134.555 1.47.555.185 0 .317.092.294.204-.023.113.127.23.333.262.207.031.375.127.375.212 0 .086.105.155.233.155.127 0 .277.118.332.261.055.143.177.213.272.154.094-.058.151-.011.126.105-.025.116.097.241.271.279.434.094.837.513 1.115 1.16.128.298.327.541.442.541.115 0 .209.15.209.334 0 .183.075.333.167.333.092 0 .167.225.167.5s.075.5.166.5c.092 0 .167.178.167.396 0 .218.112.49.25.604.164.136.25.508.25 1.083 0 .498.09.951.208 1.048.223.184.209 3.274-.013 3.136-.064-.039-.138.353-.167.87-.028.517-.137 1.043-.241 1.168a1.17 1.17 0 00-.226.48c-.02.138-.192.417-.382.619s-.346.494-.346.648c0 .155-.097.281-.216.281-.391 0-1.114.412-1.116.635 0 .12-.07.176-.154.124-.085-.052-.267.018-.405.156-.138.139-.524.252-.857.252-.361 0-.563.067-.502.167.062.099-.153.171-.531.179-.899.017-1.46.137-1.524.325-.031.09-.747.162-1.592.162-.845 0-1.607.069-1.694.154-.087.084-.891.183-1.786.219-.945.038-1.711.149-1.825.263-.123.123-.768.198-1.714.198-.835 0-1.588.068-1.675.152-.087.084-.796.188-1.575.232-.916.051-1.402.145-1.375.264.027.121-.348.185-1.092.185-.623 0-1.205.07-1.292.156-.087.086-.583.179-1.103.207-.52.027-.932.126-.917.219.016.092-.345.192-.801.22-.457.029-.871.119-.921.199-.05.081-.442.165-.872.187-.46.024-.817.13-.866.259-.046.121-.305.22-.576.22-.27 0-.516.072-.546.161-.031.089-.295.179-.586.201-.292.022-.498.092-.459.155.087.141-.343.316-.775.316-.175 0-.319.075-.319.167 0 .091-.153.166-.339.166-.186 0-.382.113-.434.25-.053.138-.234.25-.402.25s-.352.075-.409.167c-.056.092-.286.167-.51.167-.223 0-.388.056-.365.125.023.068-.026.137-.11.151-.083.015-.218.146-.3.292-.081.146-.302.265-.491.265-.231 0-.312.079-.25.242.062.16.013.21-.147.149-.133-.051-.286.028-.343.175-.057.147-.194.267-.307.267-.112 0-.304.188-.427.417-.122.229-.322.417-.444.417a.218.218 0 00-.222.213c0 .117-.15.321-.334.453-.183.132-.333.337-.333.454 0 .117-.113.213-.25.213-.139 0-.25.148-.25.333 0 .184-.066.334-.147.334-.081 0-.189.157-.239.35-.05.193-.171.3-.269.24-.109-.067-.178.057-.178.316 0 .235-.075.427-.167.427-.092 0-.167.188-.167.417 0 .229-.06.416-.135.416-.156 0-.665 1.676-.734 2.417-.026.275-.132.484-.235.465-.322-.059-.315 8.11.007 8.535.14.183.256.573.259.865.003.293.08.578.172.635.091.057.166.399.166.76 0 .473.07.657.25.657.138 0 .25.113.25.252s.07.382.155.542c.085.159.198.401.252.539.053.137.241.475.416.75.176.275.325.631.332.792.007.16.124.291.262.291.137 0 .25.113.25.25 0 .138.075.25.167.25.091 0 .166.117.166.26 0 .143.075.214.167.157.092-.057.167.014.167.157s.112.26.25.26a.25.25 0 01.25.25c0 .137.078.25.174.25.235 0 1.087.867 1.03 1.047-.025.079.022.102.106.05.084-.051.245.018.358.155.113.136.301.248.418.248.116 0 .255.112.307.25.053.137.211.25.351.25.141 0 .256.075.256.166 0 .092.152.167.338.167.186 0 .382.113.435.25.052.137.275.25.494.25.22 0 .399.075.399.167 0 .091.15.166.334.166.185 0 .333.111.333.25 0 .181.185.25.667.25.366 0 .666.075.666.167 0 .092.228.167.506.167.277 0 .541.093.585.208.044.115.434.231.87.259.434.027.814.121.845.208.03.087.614.158 1.297.158.94 0 1.264.06 1.335.246.081.209.643.235 3.787.176 4.049-.076 4.133-.082 4.008-.283-.047-.076.439-.139 1.081-.139.642 0 1.213-.075 1.27-.167.056-.091.374-.166.705-.166.331 0 .722-.109.868-.241.146-.133.584-.26.971-.283.388-.023.706-.102.706-.176 0-.073.152-.134.338-.134.186 0 .382-.112.435-.25.052-.137.271-.25.485-.25.214 0 .435-.075.492-.166.056-.092.248-.167.426-.167s.324-.079.324-.177c0-.097.075-.13.166-.073.092.057.167.024.167-.073 0-.098.112-.177.25-.177s.25-.075.25-.167c0-.091.094-.168.208-.17.115-.001.503-.26.864-.574.36-.315.735-.526.833-.47.098.055.123.04.054-.036-.114-.126.294-.519.584-.562.271-.04 2.79-2.789 2.79-3.045 0-.089.075-.116.167-.059.092.056.167-.002.167-.131 0-.128.3-.539.666-.913.367-.374.667-.799.667-.943 0-.145.075-.263.167-.263.091 0 .166-.113.166-.25 0-.687.502-.205.521.5.025.889.034.946.182 1.179.063.099.137.615.164 1.147.03.579.134.998.258 1.046.115.044.209.209.209.366 0 .409.579 1.544.717 1.405.105-.105.19.323.132.661-.014.075.053.09.147.032.093-.059.17.011.17.154s.1.26.222.26.322.187.445.416c.135.253.369.417.594.417.204 0 .414.113.467.252.053.138.155.242.226.23.377-.062.72.039.63.185-.064.102.216.166.728.166.464 0 .928.097 1.051.22.323.321 5.499.403 5.433.085-.033-.161.233-.235.98-.271 1.284-.061 1.251.046 1.213-3.876-.025-2.597-.061-2.953-.286-2.866-.169.064-.216.031-.137-.097.066-.107.041-.195-.056-.195s-.177.094-.179.209c-.002.139-.056.125-.164-.042-.138-.214-.162-.208-.164.042-.002.259-.198.291-1.753.291-1.12 0-1.75-.063-1.75-.176 0-.097-.063-.137-.141-.089-.078.048-.3-.06-.493-.24-.194-.181-.43-.328-.525-.328-.096 0-.174-.117-.174-.26 0-.143-.075-.213-.167-.157-.091.057-.166-.046-.166-.228a.951.951 0 00-.249-.58c-.216-.216-.257-2.567-.316-18.137-.066-17.709-.145-20.596-.56-20.513-.142.028-.209-.197-.209-.708 0-.413-.075-.75-.166-.75-.092 0-.167-.198-.167-.44s-.111-.524-.246-.625c-.136-.102-.264-.424-.285-.715-.021-.292-.098-.494-.17-.449-.073.045-.132-.123-.132-.373 0-.249-.05-.404-.11-.344-.108.108-.378-.274-.71-1.007a1.57 1.57 0 00-.508-.582c-.186-.117-.339-.299-.339-.404 0-.106-.112-.236-.25-.288-.138-.053-.25-.203-.25-.334 0-.13-.117-.282-.261-.337-.143-.055-.213-.176-.156-.268.057-.092.038-.168-.042-.168s-.309-.153-.51-.339c-.2-.187-.364-.305-.364-.262 0 .044-.273-.179-.607-.493-.334-.315-.712-.572-.841-.572s-.409-.188-.621-.417c-.212-.229-.546-.417-.742-.417-.196 0-.356-.06-.356-.134 0-.206-1.221-.699-1.733-.699-.249 0-.412-.067-.361-.149.113-.183-.292-.351-.846-.351-.233 0-.368-.073-.31-.167.064-.103-.254-.166-.841-.166-.738 0-.925-.051-.856-.232.058-.151-.038-.24-.274-.255-1.32-.085-13.88-.191-13.953-.117m63.101.087c-.453.067-.853.211-.889.319-.039.117-.405.198-.895.198-.51 0-.79.064-.726.166.059.096-.09.167-.347.167-.248 0-.558.131-.69.292-.225.273-.234.27-.143-.042.09-.31.081-.313-.13-.042-.125.161-.35.292-.5.292-.151 0-.274.075-.274.167 0 .091-.225.166-.5.166-.311 0-.484.079-.458.209.023.117-.159.231-.417.261-.252.029-.458.122-.458.208s-.101.156-.224.156-.442.188-.708.417c-.267.23-.616.46-.776.512-.161.051-.292.168-.292.258 0 .091-.075.119-.167.063-.091-.057-.166-.027-.166.065 0 .093-.255.29-.567.438a3.044 3.044 0 00-.939.754c-.204.267-.448.438-.542.38-.094-.058-.125-.032-.07.057.107.173-.439.722-.718.722-.09 0-.164.113-.164.25 0 .138-.075.25-.167.25-.092 0-.167.095-.167.211 0 .116-.187.351-.416.523-.229.172-.417.397-.417.5 0 .102-.187.389-.417.636-.229.247-.416.565-.416.706a.255.255 0 01-.25.258c-.156 0-.25.157-.25.416 0 .23-.075.417-.167.417-.092 0-.167.08-.167.179 0 .098-.112.291-.25.428-.222.222-.25-.298-.25-4.684V1.489l-3.625.017-3.625.017.041 39.92c.023 21.956.084 39.988.135 40.072.052.084 1.829.152 4.001.152h3.907V66.339c0-13.557.029-15.317.25-15.233.137.053.25.229.25.391 0 .163.111.388.248.501.136.114.207.273.157.354-.051.081.025.148.168.148.143 0 .26.123.26.273 0 .149.188.446.417.658.229.213.416.502.416.642 0 .327.516.937.697.825.075-.046.137-.006.137.09 0 .264.54.84.696.744.075-.047.137.032.137.175s.117.26.26.26c.143 0 .213.075.157.166-.057.092.014.167.156.167.143 0 .26.112.26.25 0 .137.132.25.292.25.16 0 .587.263.947.583.36.321.804.584.986.584.182 0 .28.05.218.112-.147.148.724.718 1.099.72.16.001.292.113.292.251 0 .137.145.25.323.25.178 0 .37.075.427.167.056.091.369.166.694.166.475 0 .571.053.488.269-.071.184-.03.241.128.18.128-.049.437.018.688.148.251.13.71.237 1.021.237.362 0 .549.074.522.208-.026.132.202.228.625.261.367.029.738.123.825.208.087.086.673.156 1.302.156.634 0 1.102.067 1.05.15-.228.37 6.426.474 6.793.106.133-.133.743-.262 1.463-.31 1.737-.116 3.039-.361 3.114-.587.036-.106.306-.192.601-.192.294 0 .61-.075.701-.166.091-.091.378-.183.637-.205.259-.021.507-.134.552-.251a.347.347 0 01.294-.212c.118 0 .423-.108.679-.241.256-.133.527-.204.602-.157.076.047.137-.032.137-.175 0-.166.151-.26.417-.26.229 0 .417-.075.417-.167 0-.091.129-.166.286-.166.158 0 .451-.192.652-.426.202-.235.523-.438.714-.452.191-.015.348-.123.348-.241s.112-.215.25-.215c.137 0 .25-.07.25-.155 0-.086.168-.206.375-.267.206-.061.61-.362.899-.668.288-.306.569-.511.625-.455.055.055.101.016.101-.087 0-.186 1.312-1.534 1.493-1.534.05 0 .192-.225.313-.5.122-.275.332-.5.467-.5.136 0 .203-.071.149-.157-.053-.086.069-.311.272-.5s.305-.343.228-.343c-.078 0 .052-.169.287-.375.236-.207.592-.694.793-1.084.201-.389.432-.708.514-.708.083 0 .15-.106.15-.236 0-.131.114-.449.254-.709.139-.259.326-.682.416-.94.09-.258.238-.422.33-.365.098.06.167-.109.167-.407 0-.28.075-.51.167-.51.091 0 .166-.225.166-.5 0-.333.084-.5.25-.5.175 0 .25-.176.25-.583 0-.321.075-.583.167-.583.092 0 .167-.182.167-.403 0-.222.082-.43.183-.464.1-.033.223-.415.271-.847.049-.433.154-.786.234-.786.08 0 .145-.367.145-.816 0-.547.077-.845.235-.905.24-.093.358-.883.527-3.529.046-.734.13-1.446.186-1.584.056-.137.142-.362.19-.5.298-.845.154-8.764-.155-8.572-.084.051-.15-.572-.15-1.418 0-.83-.059-1.51-.131-1.51-.072 0-.136-.131-.143-.291-.069-1.568-.144-2.039-.338-2.114-.138-.052-.221-.365-.221-.83 0-.41-.075-.791-.167-.848-.091-.057-.166-.353-.166-.659 0-.34-.097-.593-.25-.651-.157-.06-.25-.315-.25-.685 0-.323-.075-.588-.167-.588-.092 0-.167-.225-.167-.5 0-.307-.079-.484-.204-.459-.112.023-.231-.145-.264-.375-.033-.229-.129-.488-.212-.575-.084-.087-.153-.331-.153-.541 0-.23-.1-.384-.25-.384-.156 0-.25-.157-.25-.416 0-.229-.075-.417-.167-.417-.091 0-.166-.141-.166-.313a.784.784 0 00-.254-.524c-.14-.116-.217-.248-.171-.293.045-.046-.141-.365-.413-.709-.273-.344-.496-.709-.496-.81 0-.101-.075-.184-.166-.184-.092 0-.167-.113-.167-.25 0-.138-.075-.25-.167-.25-.091 0-.166-.116-.166-.258 0-.142-.188-.432-.417-.644-.229-.213-.417-.472-.417-.576 0-.104-.112-.189-.25-.189a.256.256 0 01-.25-.26c0-.143-.067-.218-.149-.167-.146.09-.429-.37-.377-.615.014-.068-.065-.106-.176-.083-.111.023-.277-.122-.368-.323-.092-.201-.308-.402-.482-.447-.196-.052-.267-.159-.189-.286.073-.117.057-.161-.036-.103-.09.055-.514-.236-.943-.647-.429-.411-.78-.694-.78-.629 0 .065-.174-.046-.387-.246-.213-.2-.438-.313-.5-.251s-.113-.012-.113-.165-.104-.278-.231-.278c-.344 0-1.113-.433-.99-.557.06-.059-.129-.155-.419-.213-.289-.058-.526-.165-.526-.239 0-.074-.169-.16-.375-.192-.207-.031-.355-.154-.33-.274.026-.119-.017-.177-.095-.129-.077.048-.35-.022-.606-.155-.256-.132-.598-.241-.76-.241a.75.75 0 01-.501-.25c-.114-.137-.428-.25-.697-.25-.292 0-.447-.069-.384-.171.058-.094.044-.16-.032-.147-.557.097-1.554-.047-1.554-.224 0-.32-11.045-.584-12.906-.308m59.781-.03c-.398.037-.709.153-.711.265-.001.119-.066.099-.164-.052-.138-.213-.162-.207-.164.042-.002.239-.155.292-.846.292-.519 0-.803.064-.74.166.087.141-.511.257-.958.187-.069-.011-.125.093-.125.23 0 .167-.167.25-.5.25-.275 0-.5.075-.5.167 0 .091-.152.166-.339.166-.186 0-.381.113-.434.25-.053.138-.269.25-.481.25-.212 0-.411.079-.443.174-.032.096-.226.187-.43.203-.205.015-.373.124-.373.242s-.15.215-.333.215c-.184 0-.334.075-.334.166 0 .092-.15.167-.333.167-.191 0-.333.111-.333.26 0 .143-.065.22-.144.171-.079-.049-.458.209-.841.573-.383.365-.818.663-.967.663-.149 0-.224.046-.167.103.167.167-.361.596-.572.465-.118-.073-.149-.047-.08.065.067.108-.099.296-.396.45-.281.145-.474.324-.429.397.046.073-.142.299-.416.502-.273.202-.458.431-.411.509.048.077-.025.183-.162.236a.41.41 0 00-.249.351c0 .14-.117.255-.26.255-.142 0-.213.075-.156.167.056.091.029.166-.06.166-.09 0-.335.282-.545.625-.209.344-.441.65-.513.681-.073.03-.132.154-.132.274 0 .12-.113.261-.25.314a.41.41 0 00-.25.351c0 .14-.075.255-.167.255-.092 0-.167.107-.167.237 0 .278-.527 1.322-.708 1.402-.069.031-.125.205-.125.387a.935.935 0 01-.243.574c-.134.134-.2.354-.148.49.063.164.016.217-.137.158-.159-.061-.244.056-.27.374-.021.254-.113.487-.203.517-.091.031-.166.229-.166.441 0 .211-.112.428-.25.481-.155.059-.25.313-.25.67 0 .316-.071.6-.158.63-.087.031-.176.367-.198.747-.029.491-.103.667-.259.607-.158-.06-.218.103-.218.591 0 .371-.075.721-.167.778-.091.056-.166.516-.166 1.021 0 .595-.089 1.007-.25 1.169-.171.171-.25.591-.25 1.322 0 .603-.073 1.071-.167 1.071-.108 0-.167 2.056-.167 5.833 0 3.778.059 5.834.167 5.834.096 0 .167.523.167 1.236 0 1.312.107 1.82.35 1.67.122-.076.252 1.482.165 1.981-.013.076.053.09.147.032.106-.066.171.153.171.576 0 .452.084.714.25.778.153.058.25.311.25.651 0 .306.059.592.13.636.072.045.149.33.172.635.023.305.115.58.204.611.09.03.12.124.069.208-.052.084-.015.152.082.152s.176.188.176.417c0 .229.075.417.167.417.092 0 .167.179.167.399 0 .219.112.442.25.494.137.053.25.249.25.435s.075.338.166.338c.092 0 .167.179.167.397 0 .218.112.489.248.602.137.113.207.273.156.355-.05.082.025.194.169.249.143.055.26.207.26.339 0 .132.188.442.417.689.229.247.417.581.417.743 0 .161.096.293.214.293.266 0 .821.909.656 1.074-.066.066-.008.095.13.065.153-.034.241.057.227.236-.013.16.081.292.208.292s.231.125.231.277c0 .153.046.233.102.177.108-.108 1.065.865 1.065 1.083 0 .071.074.129.165.129.091 0 .479.334.863.742s.748.71.81.672c.061-.038.27.079.463.259.194.18.403.327.465.327.063 0 .197.109.299.241a.872.872 0 00.435.292c.137.028.415.219.617.426.202.206.483.375.625.375.142 0 .258.075.258.166 0 .092.188.167.417.167.259 0 .416.094.416.25s.158.25.417.25c.229 0 .417.075.417.167 0 .091.173.166.384.166.212 0 .531.11.709.245.178.135.492.247.698.25.207.003.375.08.375.172 0 .092.257.167.57.167.313 0 .597.084.632.187.034.104.455.226.934.272.479.046.912.149.961.229.049.08.685.145 1.413.145 1.015 0 1.324.054 1.324.23 0 .189.683.23 3.833.23 3.432 0 3.834-.028 3.836-.271.002-.237.024-.24.164-.022.108.166.162.18.164.041.002-.148.375-.208 1.303-.208.715 0 1.372-.072 1.459-.16.088-.087.477-.181.865-.208.388-.027.741-.142.785-.257.044-.115.275-.208.513-.208s.574-.076.746-.168c.173-.092.504-.184.735-.203.232-.019.459-.131.504-.249.045-.117.268-.214.494-.214.227 0 .459-.075.515-.166.057-.092.249-.167.427-.167s.323-.113.323-.25c0-.156.158-.25.417-.25.229 0 .417-.075.417-.167 0-.091.152-.166.338-.166.186 0 .382-.113.435-.25.052-.138.28-.25.504-.25.23 0 .364-.073.306-.167-.057-.092.014-.167.157-.167s.263-.093.266-.208c.004-.115.379-.383.834-.596.454-.213.826-.494.826-.625s.113-.237.25-.237c.138 0 .25-.078.25-.174 0-.187 1.238-1.493 1.416-1.493.163 0 .584-.454.584-.63 0-.085.179-.348.398-.583.218-.236.495-.651.616-.923.12-.272.3-.464.4-.425.1.038.194-.1.21-.307.015-.208.107-.403.202-.435.096-.032.174-.239.174-.461 0-.247.097-.403.25-.403.226 0 .324-.198.27-.541-.011-.069.055-.125.147-.125s.167-.15.167-.334c0-.183.056-.333.125-.334.207-.002.708-.999.708-1.411 0-.212.112-.429.25-.482.137-.052.25-.243.25-.424s.075-.375.167-.432c.091-.057.166-.353.166-.659 0-.305.096-.592.212-.637.117-.044.23-.293.251-.552.022-.259.114-.545.205-.636.091-.091.166-.454.166-.805 0-.352.117-.819.26-1.037.156-.237.24-.657.209-1.036l-.053-.638h-7.666l-.052.449c-.032.272-.132.419-.256.371-.112-.043-.212.055-.221.218-.044.767-.139 1.212-.258 1.212-.071 0-.13.181-.13.403 0 .572-.172.947-.377.82-.104-.064-.125-.027-.051.092.068.11.011.371-.126.58a2.378 2.378 0 00-.31.784c-.033.222-.153.386-.265.363-.112-.023-.195.014-.185.083.059.369-.061.673-.436 1.109-.229.267-.417.59-.417.718 0 .129-.077.187-.17.129-.094-.058-.161-.044-.147.032.062.359-.06.593-.599 1.148-.321.331-.584.661-.584.735 0 .074-.112.178-.25.231-.137.053-.251.229-.252.393-.002.226-.036.244-.144.074-.106-.168-.164-.133-.236.142-.061.233-.168.319-.299.238-.116-.072-.161-.056-.103.037.055.089-.054.269-.243.4-.189.132-.567.445-.842.697-.275.252-.571.459-.658.459-.088 0-.113.075-.056.166.057.092-.008.167-.143.167-.305 0-1.271.538-1.273.708 0 .069-.23.125-.511.125-.297 0-.466.07-.406.167.058.095-.086.167-.336.167-.241 0-.551.112-.688.25-.138.137-.455.25-.705.25-.25 0-.528.073-.617.162-.089.089-.484.187-.879.219s-.775.149-.844.261c-.209.338-7.53.289-7.72-.051-.092-.165-.382-.258-.803-.258-.362 0-.658-.075-.658-.167 0-.091-.255-.166-.566-.166-.311 0-.602-.096-.647-.212-.044-.117-.279-.229-.521-.249a2.121 2.121 0 01-.825-.288c-.211-.139-.437-.201-.5-.137-.064.064-.232-.05-.373-.252-.142-.202-.328-.325-.413-.272-.085.053-.155.017-.155-.08 0-.098-.113-.177-.25-.177a.25.25 0 01-.25-.25c0-.138-.072-.25-.16-.25-.226 0-1.327-.767-1.672-1.165-.16-.184-.376-.335-.48-.335a.184.184 0 01-.188-.179c0-.221-.421-.654-.636-.654-.088 0-.278-.244-.422-.542-.145-.298-.528-.827-.853-1.176-.324-.349-.589-.793-.589-.986 0-.194-.044-.308-.098-.255-.162.163-.736-.519-.736-.875 0-.183-.075-.333-.166-.333-.092 0-.167-.087-.167-.194 0-.311-.551-1.473-.699-1.473-.074 0-.134-.172-.134-.383 0-.211-.071-.455-.157-.542-.086-.087-.184-.37-.218-.629-.034-.258-.134-.521-.222-.583-.088-.062-.185-.375-.215-.696-.03-.321-.112-.621-.181-.667-.069-.046-.166-.449-.215-.895-.049-.447-.165-.86-.257-.917-.179-.111-.326-1.305-.47-3.812l-.088-1.541 22.386-.042 22.387-.043.031-2.878c.018-1.753-.03-2.84-.125-2.782-.092.057-.163-.443-.173-1.205-.022-1.743-.06-2.072-.289-2.499-.107-.2-.194-.814-.194-1.365 0-.55-.075-1.047-.167-1.104-.092-.057-.167-.352-.167-.656 0-.304-.112-.647-.25-.761-.137-.114-.25-.448-.25-.742 0-.295-.052-.587-.115-.651-.064-.063-.138-.282-.167-.486-.048-.348-.427-1.389-.714-1.959-.07-.141-.181-.498-.246-.794-.065-.295-.187-.495-.271-.443-.084.052-.153-.051-.153-.229 0-.178-.109-.534-.242-.79s-.196-.538-.141-.628c.056-.09.015-.109-.093-.043-.113.07-.235-.006-.293-.182-.288-.871-.913-1.95-1.523-2.63-.115-.128-.208-.306-.208-.397 0-.09-.079-.191-.174-.223-.096-.031-.187-.222-.202-.423-.015-.201-.056-.337-.09-.303-.093.093-.701-.551-.701-.743 0-.092-.07-.167-.155-.167-.086 0-.204-.151-.262-.336-.059-.184-.177-.292-.262-.24-.085.053-.154-.013-.154-.146 0-.133-.113-.286-.25-.338a.417.417 0 01-.25-.361c0-.146-.075-.219-.166-.163-.092.057-.251-.083-.355-.31-.103-.228-.366-.458-.584-.513-.217-.055-.395-.173-.395-.263 0-.09-.1-.163-.222-.163s-.322-.188-.445-.417c-.123-.229-.365-.417-.538-.417-.173 0-.269-.075-.212-.166.057-.092-.01-.167-.149-.167a.504.504 0 01-.384-.217c-.074-.12-.415-.348-.759-.508-.343-.16-.625-.362-.625-.449 0-.088-.15-.159-.333-.159-.183 0-.333-.07-.333-.155 0-.086-.169-.181-.375-.213-.207-.031-.355-.154-.33-.274.026-.119-.034-.167-.132-.106-.098.06-.36-.009-.581-.155-.222-.145-.562-.264-.755-.264a.982.982 0 01-.601-.25c-.138-.138-.39-.25-.562-.25-.171 0-.358-.075-.414-.167-.057-.091-.372-.166-.7-.166-.376 0-.676-.108-.81-.292-.206-.282-10.736-.486-13.199-.255m167.669.037c-.388.063-.854.104-1.034.091-.181-.014-.367.075-.414.197-.047.123-.332.222-.64.222-.306 0-.628.072-.715.159-.088.088-.478.182-.867.209-.428.029-.707.13-.707.257 0 .119-.209.208-.49.208-.27 0-.537.075-.593.167-.057.091-.286.166-.51.166-.251 0-.407.096-.407.25 0 .138-.138.25-.308.25-.399 0-1.359.48-1.359.679 0 .085-.142.155-.316.155-.173 0-.492.186-.708.413-.216.228-.524.416-.684.417-.16.002-.292.078-.292.17 0 .091-.112.166-.25.166a.256.256 0 00-.25.26c0 .143-.075.214-.166.157-.092-.057-.167.014-.167.157s-.08.26-.179.26c-.238 0-.654.427-.654.672 0 .108-.113.153-.25.101-.153-.059-.25-.001-.25.149 0 .134-.075.244-.167.244-.092 0-.167.083-.167.185 0 .101-.187.332-.416.512-.229.18-.417.437-.417.571 0 .133-.113.286-.25.339-.137.052-.25.194-.25.314s-.078.244-.174.276c-.096.032-.187.226-.202.431-.016.205-.084.372-.152.372-.15 0-.569.912-.711 1.549-.057.256-.163.429-.234.385-.071-.044-.148.232-.171.614-.022.381-.114.739-.205.795-.437.27.013 8.554.49 9.032.106.106.192.402.192.659 0 .256.074.466.164.466.09 0 .21.188.268.417.057.229.171.417.253.417.082 0 .149.192.149.426 0 .242.072.382.166.324.092-.057.167.014.167.156 0 .143.113.26.25.26s.25.1.25.223c0 .122.206.417.458.656.675.638.869.906.745 1.029-.06.06.015.062.167.004.179-.069.353.016.493.241.12.191.312.347.427.347.116 0 .21.113.21.25 0 .138.117.25.26.25.143 0 .213.075.157.167-.059.095.081.167.323.167.274 0 .427.092.427.257 0 .153.118.237.291.208.187-.031.272.041.236.201-.03.138.001.194.07.125.07-.069.301-.011.514.129.214.14.389.212.389.16 0-.051.164.06.364.247.311.289.86.436 1.344.359.069-.011.125.055.125.147s.188.167.417.167c.259 0 .416.094.416.25 0 .154.157.25.407.25.224 0 .453.075.51.166.057.092.436.167.843.167.547 0 .74.065.74.25 0 .174.175.25.574.25.315 0 .62.075.676.167.057.091.352.166.656.166.305 0 .647.113.761.25.133.16.501.25 1.02.25.448 0 .813.075.813.167 0 .092.375.167.834.167.56 0 .833.069.833.21 0 .142.34.228 1.042.262.573.027 1.066.12 1.097.206.03.085.352.155.714.155s.825.101 1.028.224c.203.123.706.242 1.119.263.412.022.821.109.908.193.087.084.425.156.75.159.326.003.738.115.916.25.177.134.492.244.698.244.206 0 .412.06.456.132.045.073.367.151.716.175.349.023.693.147.765.274.071.128.277.204.457.169.18-.034.371.009.425.097a.186.186 0 00.254.063c.085-.053.155-.017.155.08 0 .098.188.177.417.177.229 0 .416.075.416.167 0 .091.19.166.422.166.232 0 .465.113.518.25.053.138.28.25.505.25.23 0 .363.073.305.167-.058.095.082.167.324.167.268 0 .426.093.426.25 0 .137.117.25.26.25.143 0 .223.059.178.132-.045.072.059.142.229.155.349.026 1.026.632.875.782-.053.054.028.097.181.097.152 0 .277.083.277.185 0 .101.188.332.417.512.229.18.417.464.417.631 0 .167.117.348.26.403.144.055.218.17.165.255-.052.085.018.267.156.406.139.138.252.392.252.563 0 .172.078.39.174.486.231.231.23 4.286-.002 4.363-.095.032-.172.305-.172.606 0 .302-.112.642-.248.755-.137.114-.208.272-.158.353.05.08-.093.33-.317.554-.225.225-.366.45-.315.502.052.051.002.093-.111.093-.112 0-.157.076-.1.168.057.092-.014.213-.157.268-.143.055-.261.204-.261.332 0 .128-.117.232-.26.232-.142 0-.22.064-.172.142.048.077-.097.24-.323.361s-.411.281-.411.355c0 .074-.3.288-.667.475-.367.187-.667.414-.667.504 0 .09-.192.163-.426.163-.242 0-.382.072-.324.167.097.157.037.181-.583.241-.137.013-.231.114-.208.225.035.168-.276.247-.732.186-.058-.008-.156.067-.217.166-.062.099-.312.197-.557.217-.244.02-.482.133-.527.251-.045.118-.345.214-.67.214-.324 0-.589.075-.589.166 0 .092-.267.167-.594.167-.327 0-.758.09-.959.2-.867.478-9 .456-8.704-.023.041-.066-.353-.137-.876-.158-.523-.021-.975-.108-1.006-.195-.03-.087-.312-.157-.625-.157s-.569-.066-.569-.147c0-.08-.45-.314-1-.52-.55-.206-1-.44-1-.52 0-.081-.113-.147-.25-.147-.138 0-.25-.079-.25-.176 0-.097-.071-.133-.157-.08-.087.054-.374-.115-.639-.374-.266-.259-.563-.445-.661-.412-.099.033-.298-.111-.444-.319-.147-.209-.266-.326-.266-.261s-.454-.34-1.01-.901c-.587-.592-.973-1.115-.922-1.248.05-.13-.018-.229-.157-.229a.248.248 0 01-.244-.25c0-.137-.075-.25-.167-.25-.092 0-.167-.15-.167-.333 0-.185-.111-.333-.25-.333-.167 0-.25-.168-.25-.51 0-.298-.069-.467-.166-.407-.095.058-.167-.082-.167-.323 0-.268-.093-.427-.25-.427-.175 0-.25-.176-.25-.583 0-.321-.075-.584-.167-.584-.091 0-.166-.36-.166-.8 0-.44-.094-.893-.209-1.008-.114-.114-.246-.71-.291-1.325l-.084-1.117-3.791-.033-3.792-.033v1.742c0 1.049.066 1.741.167 1.741.091 0 .166.413.166.917 0 .684.061.916.239.916s.223.171.178.666c-.039.427.025.752.178.905.131.131.239.46.239.73 0 .271.111.585.248.698.136.113.21.267.164.342-.047.075-.011.181.078.236.089.056.115.223.057.373-.069.181-.039.232.091.151.172-.106.288.312.215.774-.011.069.055.125.147.125.091 0 .166.082.166.182 0 .101.149.372.331.603.182.232.289.489.238.572-.051.084.002.131.12.106.117-.025.216.05.22.168.005.118.106.275.225.349.119.073.228.29.243.482.014.192.07.322.123.289.053-.033.244.159.424.427.179.269.383.488.451.489.069 0 .125.112.125.25 0 .137.1.25.222.25s.322.187.445.416c.122.229.256.384.297.343.04-.041.259.147.487.417.227.271.481.449.565.398.083-.052.151-.009.151.095 0 .28.437.664.756.664.179 0 .245.089.184.248-.052.137-.041.24.024.231.377-.057.708.044.619.188-.056.092.02.167.169.167.15 0 .376.093.504.208.562.504.722.599 1.096.656.219.033.377.158.352.277-.025.119.018.178.095.13.078-.048.355.023.615.158s.649.26.863.278c.214.018.39.128.39.246 0 .186.427.284 1.125.258.114-.004.208.059.208.141 0 .081.256.148.569.148.314 0 .599.088.635.196.072.214 1.392.451 3.213.575.641.044 1.393.183 1.669.31.718.33 7.664.311 7.997-.021.151-.151.644-.227 1.479-.227.688 0 1.298-.075 1.355-.167.056-.091.427-.166.822-.166.437 0 .802-.099.928-.25.125-.152.49-.25.923-.25.393 0 .741-.072.771-.16.031-.087.332-.177.67-.2.337-.022.6-.117.583-.211-.017-.094.157-.199.386-.233s.499-.129.6-.212c.101-.083.391-.168.645-.189.254-.021.498-.133.543-.25.044-.117.26-.212.48-.212.219 0 .399-.075.399-.167 0-.091.154-.166.343-.166.201 0 .297-.074.233-.178-.06-.098.047-.219.24-.27.193-.05.35-.157.35-.238 0-.081.188-.148.417-.148.259 0 .417-.094.417-.25 0-.141.149-.25.343-.25.189 0 .297-.075.24-.166-.057-.092.018-.167.165-.167.147 0 .441-.187.654-.417.212-.229.475-.416.585-.416.109 0 .153-.075.096-.167-.057-.092.014-.167.157-.167s.26-.08.26-.178c0-.231.424-.655.654-.655a.177.177 0 00.179-.175c0-.096.262-.445.583-.775.321-.331.584-.74.584-.909 0-.169.085-.308.19-.308.259 0 .631-.516.638-.887.003-.167.118-.416.255-.553a.958.958 0 00.25-.581c0-.183.075-.285.167-.229.094.058.166-.077.166-.31 0-.526.165-.96.327-.86.208.128.338-1.968.339-5.477.001-3.173-.23-5.519-.526-5.336-.077.048-.14-.143-.14-.423 0-.281-.075-.51-.166-.51-.092 0-.167-.153-.167-.339 0-.186-.113-.382-.25-.434-.137-.053-.25-.234-.25-.402s-.075-.352-.167-.409c-.091-.056-.166-.244-.166-.416 0-.173-.087-.368-.193-.433-.127-.079-.147-.045-.057.099.089.145.069.178-.058.1-.106-.066-.192-.196-.192-.289 0-.093-.207-.377-.459-.63s-.607-.66-.789-.904c-.182-.244-.413-.443-.514-.443-.1 0-.282-.188-.405-.417-.123-.229-.323-.417-.445-.417s-.222-.12-.222-.267c0-.173-.091-.233-.256-.17a.264.264 0 01-.351-.149c-.052-.136-.202-.247-.332-.247-.131 0-.28-.11-.332-.245-.051-.135-.349-.337-.661-.45-.312-.113-.568-.256-.568-.319s-.131-.158-.291-.212a3.512 3.512 0 01-.542-.243c-.667-.389-1.024-.531-1.331-.531-.185 0-.336-.097-.336-.215 0-.121-.231-.232-.535-.255-.294-.022-.575-.106-.625-.185-.049-.08-.352-.17-.673-.201-.321-.031-.682-.151-.804-.267-.121-.116-.514-.21-.875-.21-.36 0-.654-.075-.654-.167 0-.092-.323-.167-.717-.167-.394 0-.796-.079-.893-.176-.097-.097-.602-.22-1.121-.274-.52-.053-.986-.162-1.034-.24-.049-.079-.403-.146-.787-.149-.384-.003-.886-.113-1.115-.244-.229-.131-.735-.241-1.125-.244-.39-.003-.708-.081-.708-.173 0-.091-.375-.166-.834-.166-.458 0-.833-.068-.833-.151 0-.083-.375-.203-.833-.266-.458-.063-.875-.183-.927-.266-.051-.083-.456-.151-.899-.151-.585 0-.833-.073-.908-.267-.058-.15-.21-.226-.347-.173-.134.051-.506-.016-.827-.15-.32-.134-.776-.243-1.013-.243-.246 0-.388-.072-.329-.167.056-.091.004-.172-.115-.179-.529-.031-.884-.149-.938-.312-.032-.096-.24-.175-.461-.175-.222 0-.403-.059-.403-.132 0-.072-.164-.143-.364-.158-.2-.015-.429-.144-.508-.286-.08-.142-.245-.258-.367-.258-.287 0-.975-.357-1.292-.671a7.313 7.313 0 00-.714-.579c-.636-.454-1.397-1.14-1.088-.981.215.111.218.089.021-.153-.126-.155-.317-.282-.424-.282-.108 0-.334-.336-.503-.746-.169-.41-.364-.71-.433-.668-.198.123-.356-1.006-.438-3.128-.051-1.315-.018-1.958.1-1.958.097 0 .177-.228.177-.506 0-.295.104-.545.25-.601.137-.052.25-.185.25-.295 0-.375.416-1.096.635-1.097.119-.001.171-.076.115-.168-.057-.092-.019-.167.083-.167.102 0 .14-.075.083-.166-.056-.092-.023-.167.074-.167s.176-.113.176-.25a.25.25 0 01.25-.25c.138 0 .25-.075.25-.167 0-.091.105-.166.233-.166.127 0 .275-.113.328-.25a.408.408 0 01.351-.25c.14 0 .255-.075.255-.167 0-.092.113-.167.25-.167s.25-.075.25-.166c0-.092.152-.167.339-.167.186 0 .381-.113.434-.25.053-.138.232-.25.398-.25.165 0 .326-.073.357-.161.03-.089.301-.18.601-.203.365-.027.519-.112.464-.255-.059-.154.118-.214.629-.214.391 0 .784-.073.874-.163.089-.089.554-.176 1.033-.193.479-.017.871-.091.871-.166 0-.074.125-.087.277-.028.187.071.238.042.157-.089-.09-.146.597-.195 2.733-.195 1.615 0 2.813.064 2.761.148-.119.193.478.347 1.354.35.384.001.745.077.801.169.057.092.305.169.552.172.247.003.594.115.772.25.178.135.457.245.62.245.163 0 .554.144.869.321.314.177.617.277.671.222.055-.054.1-.011.1.096s.112.194.25.194c.137 0 .25.075.25.167 0 .091.139.166.31.166.17 0 .45.188.623.417.172.229.412.417.533.417.121 0 .174.074.118.164-.059.096.011.122.167.062.184-.07.298.009.361.252.051.195.194.355.318.355.123 0 .314.169.423.375.11.206.337.496.506.645.169.148.307.354.307.458 0 .104.075.189.167.189.092 0 .167.152.167.338 0 .186.112.382.25.435.137.052.25.238.25.411 0 .174.075.316.166.316.092 0 .167.225.167.5s.059.5.131.5c.12 0 .199.336.237 1 .008.137.116.398.24.578.138.201.225.793.225 1.523 0 1.096.031 1.201.375 1.294.657.176 7.459.12 7.459-.062a2.51 2.51 0 00-.015-.273c-.007-.059.086-.17.209-.247.166-.106.17-.142.014-.144-.153-.002-.208-.466-.208-1.758 0-1.406-.05-1.774-.25-1.851-.175-.067-.25-.34-.25-.911 0-.449-.066-.816-.146-.816-.08 0-.194-.304-.253-.675-.06-.376-.18-.629-.271-.573-.09.056-.164-.086-.164-.316 0-.229-.076-.463-.169-.521-.093-.058-.133-.163-.089-.235.045-.072-.027-.273-.158-.447-.132-.174-.242-.448-.245-.608-.003-.16-.126-.292-.273-.292-.167 0-.233-.092-.174-.245.052-.135-.031-.37-.184-.523-.153-.153-.293-.378-.311-.5-.018-.121-.301-.505-.63-.851-.328-.347-.598-.686-.599-.753-.002-.232-1.638-1.769-1.763-1.657-.068.062-.076-.022-.016-.188.059-.165.041-.259-.04-.209-.081.05-.51-.208-.953-.574-.444-.367-.939-.666-1.101-.666-.162 0-.295-.113-.295-.25 0-.156-.157-.25-.416-.25-.229 0-.417-.075-.417-.167 0-.092-.196-.167-.434-.167-.318 0-.409-.067-.339-.25.072-.187-.028-.25-.399-.25-.272 0-.495-.075-.495-.166 0-.092-.192-.167-.426-.167-.236 0-.382-.073-.326-.163.057-.092-.196-.212-.573-.272-.371-.059-.675-.169-.675-.244 0-.075-.356-.159-.791-.187-.462-.03-.778-.127-.759-.234.067-.364-11.391-.571-13.406-.243M237.833 1.67c0 .093.188.467.417.83.229.363.417.737.417.83 0 .094.099.17.222.17.122 0 .326.206.455.458s.516.758.861 1.124c.346.365.628.75.628.854 0 .105.112.283.248.396.137.113.208.272.157.354-.05.081.013.147.141.147.127 0 .332.188.454.417.123.229.304.418.403.419.1.002.068.075-.069.164-.219.142-.218.162.013.164.145.002.364.19.487.42.122.229.322.416.444.416.123 0 .222.15.222.334 0 .183.075.333.167.333.092 0 .167.085.167.189s.192.368.427.585c.235.218.438.545.452.728.014.182.126.331.249.331.124 0 .178.075.122.167-.057.092.014.167.156.167.143 0 .26.112.26.25 0 .137.121.25.268.25.177 0 .233.09.166.266-.065.169.047.385.305.588.225.177.456.47.513.652.058.183.175.289.26.236.085-.052.155.004.155.125 0 .12.188.422.417.669.229.247.416.569.416.716 0 .147.075.221.167.164.092-.056.167.009.167.145 0 .137.262.527.583.867.321.34.583.68.583.756 0 .076.218.361.485.633.267.273.62.726.786 1.006.166.281.36.51.432.51.072 0 .131.078.131.174 0 .096.187.362.416.591.23.229.417.53.417.669s.075.206.167.149c.091-.056.166.052.166.24 0 .194.109.344.25.344.224 0 .281.105.236.439-.008.059.049.153.125.209.437.319 1.213 1.399 1.117 1.554-.065.106-.036.135.069.07.101-.062.313.111.478.391.164.277.351.503.416.503.066 0 .145.169.177.375.031.207.149.357.261.334.113-.023.205.07.205.208 0 .137.075.25.166.25.092 0 .167.113.167.25s.112.25.25.25c.137 0 .25.113.25.25s.075.25.167.25c.091 0 .168.094.169.208.001.115.225.461.498.77.272.309.454.628.404.708-.05.081.013.147.141.147.329 0 .776.864.496.958-.115.039-.208.214-.208.39 0 .175-.07.319-.156.319-.085 0-.203.151-.262.336-.058.184-.176.292-.261.24-.085-.053-.155.059-.155.247 0 .189-.092.325-.204.302-.112-.023-.23.127-.262.333-.031.207-.127.375-.212.375-.085 0-.155.121-.155.268 0 .17-.092.233-.25.172-.138-.053-.25-.009-.25.096 0 .106-.155.357-.344.558a5.624 5.624 0 00-.652.928c-.169.309-.375.548-.456.531-.082-.017-.244.122-.36.309-.14.224-.147.299-.021.222.12-.075.11.011-.028.232-.121.193-.314.351-.429.351-.116 0-.21.112-.21.25 0 .137-.075.25-.167.25-.091 0-.168.094-.169.208-.002.193-.595.968-1.276 1.67-.157.162-.305.423-.328.58-.023.157-.121.312-.218.345a.284.284 0 00-.175.255c0 .108-.188.337-.417.509-.229.172-.417.453-.417.623 0 .171-.112.31-.25.31a.25.25 0 00-.25.25c0 .137-.075.25-.166.25-.092 0-.167.125-.167.278 0 .153-.048.23-.107.171-.058-.059-.253.191-.433.555-.18.364-.395.62-.477.569-.082-.051-.15.027-.15.172a.416.416 0 01-.25.361c-.137.053-.25.203-.25.334 0 .13-.112.28-.25.333-.137.053-.25.2-.25.328s-.075.232-.166.232c-.092 0-.167.095-.167.21 0 .116-.187.413-.417.66-.229.247-.416.527-.416.623 0 .096-.105.174-.233.174-.127 0-.276.116-.331.259-.067.175-.033.219.107.136.114-.067-.112.201-.502.595-.389.394-.708.814-.708.934 0 .12-.185.364-.411.542-.226.178-.365.369-.309.425.055.055-.022.148-.173.206-.15.058-.274.285-.274.504 0 .22-.08.399-.178.399-.231 0-.655.424-.655.655 0 .098-.074.178-.163.178-.09 0-.211.187-.268.416-.058.228-.172.374-.253.323-.082-.05-.149.025-.149.168 0 .143-.105.26-.234.26s-.313.226-.409.502c-.096.276-.291.547-.433.601-.142.055-.258.204-.258.331 0 .128-.075.233-.166.233-.092 0-.167.112-.167.25 0 .137-.09.231-.201.208-.11-.023-.204.048-.208.158-.004.11-.101.294-.216.409-.115.114-.208.267-.208.339 0 .253-.561.784-.722.685-.09-.056-.111-.017-.048.086.063.102-.038.339-.224.525-.187.187-.34.415-.34.506a.172.172 0 01-.176.167c-.097 0-.14.059-.095.131.044.073-.214.451-.574.841-.499.54-.655.846-.655 1.285v.576H241c3 0 4.667-.059 4.667-.166 0-.233.617-.827.736-.709.053.054.097-.102.097-.347 0-.284.09-.444.25-.444.137 0 .25-.113.25-.25 0-.138.075-.25.167-.25.091 0 .166-.113.166-.25 0-.138.117-.25.26-.25.143 0 .219-.067.169-.148-.051-.081.02-.241.157-.354.136-.113.248-.314.248-.445 0-.132.057-.204.126-.161.07.043.269-.216.444-.574.174-.358.421-.652.55-.652.128 0 .186-.075.129-.168-.057-.092.013-.212.157-.267.143-.055.26-.197.26-.315s.113-.257.25-.31c.138-.053.25-.183.25-.29 0-.107.155-.328.345-.492.189-.165.339-.342.333-.395-.047-.415.025-.596.239-.596.137 0 .25-.113.25-.25 0-.138.075-.25.167-.25a.17.17 0 00.166-.174c0-.096.188-.376.417-.623.229-.247.417-.544.417-.66 0-.115.112-.21.25-.21a.25.25 0 00.25-.25c0-.137.075-.25.166-.25.092 0 .167-.15.167-.333 0-.183.1-.333.222-.333s.328-.207.458-.459c.269-.521.424-.734.925-1.272.195-.209.407-.544.47-.744.064-.2.185-.32.27-.268.085.053.155-.059.155-.247 0-.194.109-.344.25-.344.137 0 .25-.144.25-.321 0-.177.188-.469.417-.649.229-.18.416-.377.416-.436 0-.06.189-.298.42-.529.231-.231.376-.49.323-.577-.053-.086.02-.202.163-.257.144-.055.261-.204.261-.332 0-.128.075-.232.167-.232.091 0 .166-.104.166-.232s.113-.276.25-.328a.41.41 0 00.25-.351c0-.141.075-.256.167-.256.092 0 .167-.112.167-.25 0-.137.107-.25.239-.25.131 0 .334-.262.45-.583.116-.321.308-.583.427-.583.12 0 .217-.117.217-.26 0-.156.078-.212.195-.139.131.081.16.029.088-.159-.069-.179.01-.352.222-.484.18-.113.328-.266.328-.339 0-.074.188-.322.417-.551.229-.229.417-.526.417-.659 0-.134.075-.243.166-.243.092 0 .167-.112.167-.25a.25.25 0 01.25-.25c.137 0 .25.081.25.179 0 .231.424.655.655.655.098 0 .178.08.178.177 0 .194.84 1.372 1.042 1.462.069.03.125.161.125.291 0 .13.07.236.155.236.086 0 .204.151.262.336.059.185.177.293.262.24.085-.052.154.027.154.177s.225.498.5.773.5.611.5.747.074.201.165.145c.095-.058.123.009.066.157-.056.144-.012.259.097.259.297 0 .69.454.718.831.014.185.11.335.214.335.103 0 .328.26.499.578.211.391.353.513.441.375.092-.146.129-.13.131.056.004.421.403 1.155.628 1.157.114 0 .208.118.208.261 0 .143.067.218.149.168.082-.051.196.095.253.323.057.229.178.416.268.416.09 0 .163.08.163.178 0 .231.424.655.655.655.098 0 .179.188.179.417 0 .229.075.416.166.416.092 0 .167.113.167.25 0 .138.112.25.25.25.222 0 .277.101.239.429-.006.053.176.27.406.483.23.213.372.432.317.488-.056.055.024.1.177.1.167 0 .278.134.278.334 0 .183.075.333.166.333.092 0 .167.085.167.189 0 .103.267.44.594.748.327.309.552.628.501.711-.051.083.03.198.18.255.15.058.228.15.173.204-.118.118.293.56.521.56.088 0 .284.262.436.583.153.321.349.583.436.583.088 0 .159.085.159.19 0 .104.188.363.417.575.229.212.416.486.416.607 0 .122.261.468.58.769.319.3.573.598.564.661-.048.34.05.532.273.532.137 0 .25.08.25.178 0 .098.113.292.252.43.138.139.201.334.139.433-.072.116-.012.143.165.076.18-.07.277-.022.277.136 0 .868.252.913 5.107.913 5.586 0 5.881-.105 4.477-1.594-.321-.341-.584-.721-.584-.846 0-.124-.06-.226-.134-.226-.127 0-1.066-1.194-1.464-1.861a3.207 3.207 0 00-.551-.624c-.203-.176-.381-.472-.395-.656-.013-.185-.084-.3-.157-.255-.073.045-.132-.014-.132-.131s-.177-.365-.394-.551c-.217-.187-.554-.638-.75-1.003-.196-.366-.356-.609-.356-.542 0 .068-.138-.009-.307-.169-.169-.16-.285-.335-.258-.388.027-.053-.172-.339-.443-.635-.271-.297-.492-.61-.492-.696 0-.086-.075-.156-.167-.156-.091 0-.157-.056-.147-.125.055-.344-.044-.542-.269-.542-.138 0-.25-.085-.25-.189s-.19-.365-.421-.579c-.231-.214-.419-.429-.417-.477.02-.442-.011-.628-.093-.546-.095.095-.736-.455-.736-.633 0-.049-.187-.292-.417-.54-.229-.247-.416-.509-.416-.583 0-.074-.181-.328-.401-.566a4.774 4.774 0 01-.624-.868 3.248 3.248 0 00-.599-.774c-.207-.186-.376-.467-.376-.625 0-.157-.113-.286-.25-.286-.138 0-.25-.085-.25-.189s-.155-.323-.345-.487c-.189-.165-.34-.361-.335-.437.01-.153-.579-.928-1.029-1.353-.16-.151-.291-.339-.291-.417 0-.077-.094-.246-.209-.373-.52-.581-.625-.748-.625-.997 0-.147-.066-.226-.147-.176-.082.051-.189-.065-.239-.257-.05-.191-.171-.298-.269-.238-.098.061-.178-.007-.178-.15s-.075-.26-.167-.26c-.091 0-.166-.15-.166-.333 0-.183-.071-.333-.158-.333-.086 0-.29-.225-.452-.5-.163-.275-.392-.5-.51-.5-.117 0-.214-.113-.214-.25 0-.138-.061-.25-.135-.25-.075 0-.239-.263-.365-.584-.126-.321-.327-.583-.447-.583-.121 0-.219-.104-.219-.232s-.118-.277-.261-.332c-.143-.055-.213-.176-.156-.269.057-.093-.013-.214-.156-.269-.143-.055-.261-.205-.261-.332 0-.128-.067-.233-.148-.233-.082 0-.197-.19-.255-.423-.059-.233-.179-.379-.268-.324-.089.055-.162.032-.162-.052 0-.084-.169-.336-.375-.561-.206-.224-.505-.684-.663-1.022l-.288-.614.496-.566c.273-.311.497-.649.497-.751 0-.103.075-.187.166-.187.092 0 .167-.083.167-.184 0-.101.188-.332.417-.512.229-.18.416-.43.416-.554 0-.124.263-.504.584-.844.32-.341.583-.703.583-.806 0-.102.188-.389.417-.636.229-.247.416-.523.416-.613 0-.09.087-.218.193-.283.127-.079.147-.045.057.099-.089.144-.069.178.058.099.106-.065.192-.264.192-.442s.075-.324.167-.324c.092 0 .167-.069.167-.154 0-.084.206-.369.458-.633s.604-.687.781-.94c.178-.253.466-.624.641-.825.175-.2.427-.573.559-.828.133-.255.313-.42.401-.365.088.054.16-.019.16-.161 0-.143.063-.26.14-.26.077 0 .282-.263.455-.584.172-.321.372-.583.443-.583.07 0 .128-.079.128-.175 0-.096.169-.339.375-.541.207-.202.4-.48.43-.617a.688.688 0 01.296-.386c.132-.074.196-.205.143-.291-.053-.086-.012-.157.092-.157.254 0 .674-.434.545-.563-.056-.057-.015-.103.092-.103s.194-.098.194-.218c0-.119.262-.504.583-.854.321-.35.584-.707.584-.794 0-.086.262-.433.582-.77.32-.338.582-.709.583-.826.001-.116.27-.472.599-.791.329-.319.542-.581.474-.581-.067 0 .039-.14.236-.311.198-.171.359-.396.359-.5 0-.104.112-.189.25-.189.161 0 .251-.163.253-.458.002-.357.038-.403.164-.208.134.207.162.193.167-.084.003-.183.196-.514.428-.735.233-.221.534-.614.668-.875.135-.26.318-.473.408-.473.089 0 .162-.112.162-.25s.075-.25.167-.25a.163.163 0 00.166-.158c0-.087.188-.36.417-.608.229-.247.417-.551.417-.675s.117-.226.26-.226c.142 0 .213-.075.156-.166-.056-.092.014-.167.157-.167.15 0 .26-.143.26-.339 0-.186.112-.381.25-.434.137-.053.25-.2.25-.328s.075-.232.167-.232c.091 0 .166-.15.166-.334 0-.325-.111-.333-4.845-.333-4.826 0-5.321.054-5.321.578 0 .098-.173.328-.625.833-.115.127-.209.312-.209.41a.176.176 0 01-.172.179c-.094 0-.22.131-.279.292-.059.16-.282.457-.495.658-.213.202-.387.446-.387.542 0 .096-.074.175-.163.175-.09 0-.211.187-.268.415-.058.229-.172.374-.253.324-.082-.051-.149.067-.149.261s-.075.306-.167.25c-.092-.057-.167.014-.167.156 0 .143-.112.26-.25.26-.137 0-.25.142-.25.316 0 .174-.186.493-.413.709-.228.215-.416.49-.417.61-.002.12-.069.177-.15.127-.081-.05-.234.119-.34.374-.106.256-.377.664-.603.908-.225.243-.41.603-.41.8 0 .25-.076.33-.25.263-.138-.053-.25-.013-.25.088 0 .101-.187.358-.417.57-.229.212-.417.521-.418.686-.001.165-.225.476-.499.692-.273.216-.455.461-.404.543.107.174-.32.648-.583.648-.099 0-.179.112-.179.25 0 .137-.074.25-.163.25-.09 0-.211.187-.268.415-.058.229-.181.368-.275.31-.094-.058-.137-.006-.097.116.083.248-.425.825-.725.825-.107 0-.146.048-.088.107.162.161-.422 1.06-.688 1.06-.137 0-.193.102-.136.25.061.159-.003.25-.176.25-.15 0-.224.049-.163.11.06.06-.15.425-.466.812-.317.386-.528.749-.471.807.058.057.024.104-.074.104-.099 0-.39.333-.646.739-.257.406-.521.704-.588.663-.066-.04-.174.014-.24.121-.076.122-.049.151.072.077.333-.206.208.148-.141.4-.184.132-.334.318-.334.414 0 .095-.149.266-.332.38-.371.232-1.001-.216-1.001-.71 0-.138-.075-.25-.167-.25-.091 0-.166-.113-.166-.25a.249.249 0 00-.247-.25c-.136 0-.294-.188-.352-.417-.057-.229-.175-.417-.263-.417-.087 0-.112-.075-.055-.166.057-.092-.001-.167-.129-.167-.127 0-.332-.187-.454-.417-.123-.229-.323-.416-.445-.416s-.222-.153-.222-.339c0-.187-.206-.555-.458-.819-.716-.749-.823-.916-.741-1.161.041-.125.004-.184-.083-.13-.207.128-.734-.492-.765-.9-.013-.175-.12-.318-.238-.318s-.215-.056-.215-.125c-.001-.069-.221-.383-.491-.698-.269-.316-.452-.634-.406-.709.046-.074.004-.135-.093-.135s-.177-.112-.177-.25a.256.256 0 00-.26-.25c-.142 0-.213-.075-.156-.166.056-.092-.014-.167-.157-.167-.229 0-.347-.309-.276-.721.014-.075-.047-.093-.135-.039-.087.054-.208-.059-.269-.25-.061-.192-.151-.308-.201-.258-.09.09-1.046-1.132-1.046-1.336 0-.059-.178-.273-.397-.476-.218-.202-.448-.53-.511-.727a1.052 1.052 0 00-.436-.532c-.177-.095-.322-.25-.322-.345 0-.095-.114-.286-.252-.425-.138-.138-.202-.332-.141-.43.066-.106.032-.131-.082-.06-.105.065-.192.04-.192-.056 0-.097-.225-.39-.5-.653s-.5-.546-.5-.63c0-.083-.3-.514-.666-.957-.366-.443-.624-.873-.573-.956.05-.082-.012-.149-.14-.149-.127 0-.332-.187-.454-.417-.123-.229-.286-.416-.362-.416-.076 0-.138-.115-.138-.256a.412.412 0 00-.25-.351c-.138-.052-.25-.202-.25-.333s-.112-.28-.249-.333c-.137-.053-.208-.163-.157-.245.053-.086-2.011-.149-4.918-.149-3.294 0-5.01.058-5.01.17m58.278-.059c-.225.225-.129 40.187.097 40.279.154.062.149.087-.02.097-.167.009-.181.071-.051.227.098.118.196.978.218 1.911.029 1.218.102 1.72.259 1.78.143.055.219.393.219.973 0 .489.076.964.168 1.057.093.092.187.475.209.849.022.375.092.65.156.611.146-.089.485 1.108.368 1.298-.048.077-.008.14.089.14.098 0 .177.153.177.339 0 .186.112.382.25.434.137.053.25.276.25.495 0 .22.079.399.177.399.097 0 .13.075.073.167-.057.091-.019.166.083.166.103 0 .14.076.083.168-.057.092.013.213.157.268.143.055.26.193.26.307 0 .32.506 1.257.679 1.257.085 0 .155.085.155.189s.262.436.583.739c.321.302.583.596.583.652 0 .179.907.91 1.135.915.12.003.176.074.124.158-.052.084.169.315.49.513.322.199.585.413.585.475 0 .063.3.244.666.403.367.159.667.364.667.456 0 .092.15.167.333.167.184 0 .334.075.334.167 0 .091.119.166.266.166.146 0 .502.124.791.274 1.006.524 1.108.56 1.593.56.269 0 .516.082.55.183.033.1.416.223.851.272.434.049.83.154.879.233.049.08.526.145 1.059.145.534 0 1.223.105 1.532.232.79.327 6.922.34 7.104.015.079-.14.519-.235 1.208-.261.596-.023 1.123-.1 1.172-.172.048-.073.367-.151.708-.174.341-.023.62-.106.62-.184s.075-.096.167-.039c.091.056.166.023.166-.074s.263-.176.584-.176c.32 0 .583-.075.583-.167 0-.092.163-.167.362-.167.199 0 .491-.116.648-.259.157-.142.439-.27.626-.284.188-.014.304-.085.259-.158-.045-.073.068-.132.25-.132a.955.955 0 00.581-.25c.138-.138.331-.25.429-.25.098 0 .178-.075.178-.167 0-.091.188-.166.417-.166.245 0 .417-.096.417-.232 0-.128.187-.279.416-.337.23-.057.417-.176.417-.263 0-.087.112-.115.25-.062.137.053.25.008.25-.1 0-.246.416-.673.655-.673.098 0 .178-.101.178-.224s.263-.365.584-.538c.32-.172.583-.372.583-.443 0-.07.103-.128.23-.128.126 0 .322-.224.436-.498.113-.274.262-.464.33-.422.068.042.264-.184.435-.502.171-.318.375-.578.452-.578.234 0 .617-.459.617-.738 0-.144.075-.262.167-.262.091 0 .166-.104.166-.23s.113-.323.25-.437a.77.77 0 00.25-.52c0-.173.113-.313.25-.313.215 0 .394 5.41.298 8.943-.004.143.952.187 3.598.167l3.604-.027.042-29.375.043-29.375h-7.835v17.083c0 11.278-.056 17.084-.166 17.084-.099 0-.167.6-.167 1.466 0 .951-.073 1.54-.208 1.675-.235.235-.242.267-.271 1.202-.013.404-.088.635-.188.573-.099-.061-.166.133-.166.477 0 .318-.163.941-.362 1.385-.429.956-.424.941-.451 1.472-.012.25-.121.416-.271.416-.137 0-.241.057-.23.125.071.447-.046 1.046-.186.959-.095-.059-.167.083-.167.328 0 .238-.108.473-.239.524-.138.053-.197.204-.139.355.063.164.033.222-.077.154-.103-.064-.253.102-.353.389-.096.275-.258.5-.36.5-.102 0-.144.067-.093.149.051.082-.02.192-.157.245a.417.417 0 00-.249.362c0 .294-.384.744-.636.744-.088 0-.15.131-.137.291.013.161-.07.273-.185.25-.115-.023-.19.024-.167.105.023.08-.182.399-.457.708-.274.309-.481.616-.46.681.021.066-.065.08-.191.031-.132-.05-.385.132-.6.434-.217.304-.467.484-.602.432-.133-.051-.231.016-.231.156 0 .135-.081.245-.179.245-.098 0-.283.094-.411.208-.564.506-.743.626-.945.631-.118.003-.358.113-.532.244-.173.132-.391.193-.483.136-.092-.057-.25.002-.351.131-.223.285-1.224.65-1.782.65a1.55 1.55 0 00-.754.241c-.582.408-8.063.41-8.063.003 0-.165-.135-.245-.375-.224-.749.064-1.31-.022-1.209-.187.063-.101-.192-.166-.656-.166-.418 0-.76-.07-.76-.155 0-.18-.944-.679-1.286-.679-.129 0-.188-.075-.131-.166.057-.092-.017-.167-.164-.167-.147 0-.442-.169-.655-.375-.478-.464-.925-.771-1.306-.899-.16-.054-.292-.174-.292-.268 0-.093-.133-.29-.297-.438-.164-.149-.556-.683-.872-1.187-.316-.504-.632-.941-.703-.972-.07-.03-.128-.237-.128-.458 0-.222-.075-.403-.166-.403-.092 0-.167-.265-.167-.589 0-.369-.093-.624-.25-.684-.141-.054-.25-.302-.25-.568 0-.26-.075-.519-.167-.576-.091-.056-.166-.468-.166-.914 0-.499-.097-.908-.25-1.062-.22-.219-.25-2.775-.25-20.978 0-15.9-.047-20.776-.2-20.929-.217-.217-7.644-.301-7.856-.089M151.394 6.583c.07.185.362.25 1.111.25.634 0 .976.063.912.167-.087.14.649.262 1.125.186.068-.01.125.093.125.231 0 .165.165.25.49.25.269 0 .536.075.593.166.057.092.249.167.427.167.177 0 .304.092.281.204-.023.113.127.23.334.262.206.031.375.127.375.212 0 .086.137.155.304.155.167 0 .48.188.696.417.215.229.479.417.586.417.108 0 .466.262.797.583.33.321.679.583.775.583.096 0 .175.081.175.179 0 .231.424.655.655.655.098 0 .178.112.178.25 0 .137.075.25.167.25.092 0 .167.115.167.255s.112.298.25.351c.137.053.25.2.25.328s.075.232.166.232c.092 0 .167.113.167.25 0 .138.097.25.215.25s.226.157.24.348c.015.191.186.485.38.654.194.168.348.368.341.444-.007.076.101.27.239.431.139.162.252.443.252.625 0 .183.111.332.249.332.163 0 .229.127.192.371-.031.204.044.471.168.595a.875.875 0 01.224.536c0 .171.075.358.167.414.091.057.166.297.166.533 0 .237.108.514.239.616.131.101.26.447.288.768.027.321.102.622.166.669.064.047.151.422.192.833.044.433.155.73.262.706.121-.027.187.299.187.925 0 .532.07 1.038.156 1.125.087.087.179.926.207 1.864.034 1.181.114 1.731.26 1.787.286.11.302 4.366.016 4.461-.124.042-.217.685-.259 1.806-.036.957-.137 1.812-.223 1.899-.087.087-.16.537-.163 1-.003.463-.113 1.029-.244 1.258-.131.23-.241.661-.244.959-.004.298-.081.541-.173.541-.092 0-.167.338-.167.75 0 .556-.064.75-.25.75-.165 0-.25.166-.25.49 0 .27-.075.537-.166.594-.092.056-.167.278-.167.492 0 .214-.097.426-.215.471-.118.045-.318.463-.445.927-.126.465-.292.806-.368.759-.076-.047-.139.106-.139.341 0 .268-.093.426-.25.426a.251.251 0 00-.25.25c0 .138-.075.25-.166.25-.092 0-.158.057-.147.125.074.468-.043.69-.312.594-.16-.058-.237-.045-.171.028.228.252-2.163 3.253-2.592 3.253-.053 0-.343.25-.645.556-.303.305-.681.603-.842.661-.16.058-.291.184-.291.278a.176.176 0 01-.179.172c-.098 0-.295.117-.438.26-.143.142-.362.22-.488.171-.13-.049-.229.019-.229.158 0 .134-.087.244-.194.244-.311 0-1.472.552-1.472.699 0 .074-.21.135-.467.135s-.538.069-.625.153c-.087.084-.496.175-.908.202-.413.026-.828.149-.922.273-.293.384-7.875.299-7.794-.087.019-.091-.356-.174-.833-.184-.476-.011-.892-.096-.923-.189-.031-.092-.312-.168-.626-.168-.404 0-.569-.076-.569-.26 0-.143-.067-.219-.149-.168-.199.123-1.684-.543-1.684-.757 0-.092-.064-.129-.142-.081-.079.049-.285-.019-.459-.151-.174-.132-.447-.242-.608-.245-.16-.003-.291-.124-.291-.269 0-.145-.091-.234-.202-.197-.19.064-.691-.309-1.566-1.164-.211-.206-.45-.375-.53-.375-.08 0-.246-.187-.369-.417-.123-.229-.323-.416-.445-.416s-.223-.057-.224-.125c-.001-.069-.301-.457-.667-.862-.365-.405-.664-.828-.664-.94 0-.113-.107-.245-.237-.295-.131-.051-.371-.377-.533-.727-.162-.349-.393-.695-.513-.768-.119-.073-.217-.28-.217-.458 0-.179-.075-.325-.167-.325-.091 0-.166-.141-.166-.313a.777.777 0 00-.25-.521.77.77 0 01-.25-.52c0-.172-.075-.313-.167-.313-.092 0-.167-.22-.167-.488 0-.269-.112-.601-.25-.738-.137-.138-.25-.439-.25-.669 0-.23-.075-.465-.166-.522-.092-.056-.167-.361-.167-.676 0-.383-.078-.574-.235-.574-.165 0-.262-.286-.324-.958-.199-2.147-.404-3.405-.584-3.585-.319-.318-.263-9.575.06-9.897.174-.174.25-.601.25-1.405 0-.806.063-1.159.208-1.168.159-.01.158-.033-.007-.099-.146-.059-.162-.15-.05-.285.09-.11.183-.515.206-.901.023-.386.124-.702.225-.702.1 0 .202-.279.225-.62.023-.341.094-.659.159-.708.065-.049.144-.313.176-.588.032-.275.113-.538.179-.584.252-.173.679-1.237.679-1.692 0-.311.086-.474.25-.474.139 0 .25-.148.25-.334 0-.183.075-.333.166-.333.092 0 .167-.15.167-.333 0-.184.075-.334.167-.334.091 0 .166-.115.166-.255s.113-.298.25-.351c.138-.053.25-.229.25-.392s.3-.596.667-.962c.367-.367.667-.755.667-.863 0-.108.075-.15.166-.093.092.056.167-.019.167-.167 0-.148.075-.223.167-.167.091.057.166-.014.166-.156 0-.143.082-.26.182-.26.1 0 .509-.338.91-.75.401-.413.882-.75 1.069-.75.196 0 .339-.11.339-.26 0-.143.067-.219.148-.169.081.051.241-.02.354-.157a.772.772 0 01.519-.248c.172 0 .313-.075.313-.166 0-.092.142-.167.315-.167.174 0 .359-.113.412-.25.052-.138.229-.251.392-.253.47-.003 1.613-.443 1.68-.646.034-.101.341-.184.681-.184.341 0 .694-.075.785-.166.092-.091.671-.18 1.288-.197.692-.019 1.192-.115 1.305-.251.285-.343 5.736-.315 5.869.03m60.166 0c.066.172.334.25.851.25.416 0 .756.06.756.133 0 .073.279.151.62.174.341.023.672.128.737.233.065.104.33.218.589.252.259.034.495.133.526.219.03.086.237.156.458.156.254 0 .403.096.403.26 0 .143.064.22.142.172.078-.048.285.02.458.151.174.132.431.242.571.245.14.003.373.137.518.297.33.366.953.875 1.07.875.085 0 .328.186.818.625.128.115.308.208.4.208.091 0 .19.169.22.375a.474.474 0 00.428.429c.206.029.375.128.375.219 0 .156.787 1.294 1.021 1.477.059.046.139.234.178.417.039.183.157.315.263.294.106-.022.154.062.106.186-.048.125.03.272.172.327.143.054.26.214.26.354 0 .141.075.256.167.256.091 0 .166.15.166.333 0 .183.094.333.209.333.114 0 .351.448.526.994.174.547.381.955.458.907.077-.048.141.07.141.262s.103.515.23.718c.127.203.214.538.194.744-.02.22.057.375.187.375.142 0 .222.207.222.574 0 .315.064.613.143.662.078.048.187.52.242 1.048.054.529.178.987.274 1.019.104.035.174.656.174 1.545v1.486h-36.704l.115-.542c.063-.298.154-.932.201-1.409.047-.477.191-.954.32-1.062.137-.113.235-.5.235-.924 0-.402.075-.73.167-.73.091 0 .166-.256.166-.569 0-.314.071-.595.157-.625.086-.031.197-.28.246-.555.05-.274.167-.524.26-.555.094-.032.171-.232.171-.446s.072-.414.161-.444c.089-.031.183-.243.209-.473.044-.398.14-.575.573-1.062.106-.119.22-.398.254-.619.033-.221.137-.388.23-.372.094.017.181-.113.194-.287.013-.175.178-.483.366-.685.188-.202.391-.522.45-.712.059-.19.321-.524.582-.742.261-.218.434-.462.384-.542-.049-.08-.01-.145.087-.145.097 0 .176-.113.176-.25a.25.25 0 01.25-.25c.138 0 .25-.078.25-.173 0-.257 1.493-1.661 1.766-1.661.129 0 .234-.117.234-.26 0-.142.075-.213.167-.156.092.056.167.042.167-.032 0-.074.356-.358.792-.63.435-.272.894-.595 1.021-.718.126-.123.332-.183.458-.135.13.05.229-.018.229-.157 0-.135.145-.245.323-.245.178 0 .37-.075.427-.167.056-.091.278-.166.492-.166.214 0 .432-.113.485-.25.065-.171.332-.25.837-.25.408 0 .766-.074.797-.164.03-.089.412-.183.847-.208.435-.025.792-.106.792-.18s.075-.088.166-.032c.092.057.167.024.167-.073 0-.307 4.942-.235 5.06.073M99.76 34.042c-.07 5.567-.182 7.237-.509 7.564-.12.12-.202.453-.182.74.021.306-.055.556-.183.606-.121.046-.219.248-.219.449s-.07.437-.154.524c-.085.087-.179.383-.209.658-.031.291-.141.483-.262.459-.115-.023-.209.108-.209.291 0 .184-.075.334-.166.334-.092 0-.167.115-.167.257 0 .141-.187.459-.417.707-.229.247-.416.543-.416.659 0 .115-.117.21-.26.21-.143 0-.222.062-.175.138.047.076-.136.381-.406.677-.271.296-.493.609-.493.695 0 .086-.112.157-.25.157-.137 0-.231.067-.208.148.048.17-.682.852-.912.852-.228 0-.63.444-.511.563.09.09-.068.128-.381.092-.053-.006-.26.166-.459.382a3.463 3.463 0 01-.862.636c-.275.134-.599.337-.72.452-.121.114-.332.208-.468.208-.147 0-.199.079-.128.195.081.13.03.16-.151.091-.15-.058-.317-.032-.373.057a.188.188 0 01-.255.067c-.085-.053-.155.021-.155.163 0 .172-.157.262-.458.266-.252.003-.601.113-.775.244-.174.132-.372.205-.441.163-.068-.043-.167.035-.22.172-.062.161-.321.249-.734.249-.351 0-.71.07-.797.156-.087.086-.552.18-1.033.209-.509.03-.875.13-.875.24 0 .223-2.276.319-6.042.253-1.057-.018-1.447-.082-1.417-.231.027-.131-.259-.242-.791-.306-.459-.055-1.032-.183-1.275-.283-.243-.101-.498-.132-.568-.069-.07.063-.087.001-.038-.136.062-.177-.037-.258-.344-.276-.237-.015-.459-.109-.492-.209-.034-.1-.167-.182-.297-.182-.13 0-.236-.075-.236-.166 0-.092-.104-.167-.232-.167-.346 0-3.102-2.529-3.102-2.846 0-.085-.075-.154-.166-.154-.092 0-.167-.142-.167-.316 0-.173-.113-.358-.25-.411a.417.417 0 01-.25-.361c0-.146-.075-.219-.167-.162-.097.06-.166-.113-.166-.419 0-.287-.103-.624-.229-.75-.125-.125-.206-.424-.18-.665.029-.26-.048-.474-.188-.528-.313-.12-.354-4.746-.042-4.68.117.025.204-.189.216-.53.011-.314.111-.602.222-.639.11-.037.201-.248.201-.47 0-.258.095-.402.267-.402.173 0 .233-.092.17-.257a.264.264 0 01.149-.351c.136-.052.247-.199.247-.327s.075-.232.167-.232c.091 0 .166-.113.166-.25a.25.25 0 01.25-.25c.138 0 .25-.065.25-.144 0-.273.88-1.023 1.2-1.023.176 0 .274-.075.217-.166-.057-.092.051-.167.24-.167.194 0 .343-.109.343-.25 0-.156.158-.25.417-.25.229 0 .417-.074.417-.163 0-.09.187-.211.416-.269.23-.057.417-.171.417-.253 0-.081.146-.148.323-.148.178 0 .365-.067.415-.148.051-.081.355-.197.677-.258.322-.06.585-.181.585-.269 0-.087.258-.159.573-.159.316 0 .62-.075.677-.166.057-.092.305-.167.552-.168.246-.001.663-.113.925-.25a2.653 2.653 0 011.032-.249c.305 0 .601-.075.658-.167.056-.091.586-.166 1.176-.166.843 0 1.074-.054 1.074-.25 0-.215 1.37-.357 2.273-.236.058.008.154-.063.212-.157.058-.094.654-.187 1.324-.206.713-.021 1.305-.123 1.428-.246.116-.116.766-.251 1.445-.3 2.726-.199 3.876-.363 3.943-.565.047-.14.47-.207 1.305-.207.713 0 1.236-.071 1.236-.167 0-.091.295-.166.655-.166.36 0 .767-.113.905-.25.137-.138.48-.25.762-.25.281 0 .512-.075.512-.167 0-.092.168-.167.375-.168.206-.001.525-.185.708-.409.183-.224.387-.411.454-.415.066-.005.091 2.261.056 5.034m27.042 83.916c1.496.028 3.896.028 5.333 0 1.438-.028.215-.05-2.718-.05-2.934 0-4.11.022-2.615.05" fill="#04b4cc"></path>
    <path d="M169.833 10.27c0 .091.11.312.245.49s.245.248.245.157c0-.092-.11-.313-.245-.491-.135-.177-.245-.248-.245-.156M94.282 49.755c-.257.227-.401.412-.32.412.08 0 .323-.188.538-.417.498-.53.388-.528-.218.005M6 95.856c0 .343.143.655.417.909.229.212.416.458.416.546 0 .088.263.431.584.761.32.33.583.674.583.764 0 .09.107.164.238.164.132 0 .263.169.292.375.06.423 3.637.704 3.637.285 0-.235.421-.66.654-.66a.177.177 0 00.179-.174c0-.096.187-.376.417-.623.229-.247.416-.512.416-.587 0-.076.263-.386.584-.689.425-.401.583-.691.583-1.072v-.522h-1.595c-1.498 0-2.072.16-2.072.577 0 .106-.967 1.09-1.071 1.09-.032 0-.106-.187-.164-.417-.057-.229-.178-.416-.268-.416-.09 0-.163-.081-.163-.179 0-.498-.496-.655-2.072-.655H6v.523m81.167-.106c0 .229.075.417.166.417.092 0 .167.15.167.333 0 .185.111.333.25.333.138 0 .25.081.25.179 0 .098.107.286.238.417s.319.238.417.238c.098 0 .178.187.178.416 0 .23.075.417.167.417.092 0 .167.112.167.25s.08.25.178.25c.098 0 .286.107.417.238s.238.319.238.417c0 .116.641.178 1.833.178 1.456 0 1.834-.047 1.834-.232 0-.128.112-.275.25-.328a.42.42 0 00.25-.363c0-.304.387-.743.654-.743a.177.177 0 00.179-.174c0-.096.188-.376.417-.624.229-.247.416-.543.416-.659 0-.115.075-.21.167-.21.092 0 .167-.112.167-.25s.075-.25.166-.25c.092 0 .167-.15.167-.333 0-.313-.111-.334-1.802-.334h-1.803l-.278.584c-.153.32-.354.583-.448.583-.093 0-.169.112-.169.25s-.075.25-.167.25c-.091 0-.166-.112-.166-.25s-.081-.25-.179-.25c-.194 0-.655-.41-.655-.583 0-.424-.566-.584-2.071-.584-1.591 0-1.595.002-1.595.417M7.75 100.833c-.057.092-.353.167-.659.167-.34 0-.593.097-.651.25-.053.138-.244.25-.425.25s-.375.075-.432.167c-.056.091-.248.166-.426.166s-.324.113-.324.25c0 .138-.075.25-.166.25-.217 0-1.5 1.283-1.5 1.5 0 .092-.081.167-.179.167-.294 0-.655.452-.655.821 0 .196-.108.346-.25.346-.155 0-.25.157-.25.416 0 .23-.075.417-.166.417-.092 0-.167.179-.167.399 0 .219-.113.442-.25.495-.181.069-.25.352-.25 1.017 0 .507-.075.922-.167.922-.223 0-.223 4.279 0 4.417.092.057.167.474.167.927 0 .62.062.823.25.823.175 0 .25.176.25.583 0 .321.075.584.167.584.091 0 .166.152.166.338 0 .186.113.382.25.435.138.052.25.2.25.328s.075.232.167.232c.092 0 .168.094.169.208.005.341.982 1.349 1.573 1.622.302.139.555.328.563.42.008.092.168.191.355.22.187.029.34.123.34.208 0 .086.146.155.325.155.179 0 .399.132.488.292.318.568 8.687.516 8.687-.054 0-.142.167-.238.417-.238.229 0 .416-.075.416-.166 0-.092.188-.167.417-.167.259 0 .417-.094.417-.25 0-.138.08-.25.178-.25.231 0 .655-.424.655-.655 0-.098.08-.178.179-.178.23 0 .654-.424.654-.655 0-.098.075-.179.167-.179.092 0 .167-.142.167-.315 0-.174.112-.359.25-.412.157-.06.25-.315.25-.684 0-.324.075-.589.166-.589.092 0 .167-.375.167-.833v-.833h-3.667v.416c0 .23-.075.417-.166.417-.092 0-.167.152-.167.339 0 .186-.113.381-.25.434-.138.053-.25.168-.25.257 0 .216-.432.637-.655.637-.098 0-.178.112-.178.25 0 .155-.158.25-.417.25-.229 0-.417.075-.417.166 0 .092-.181.167-.402.167-.222 0-.43.079-.462.175-.083.252-3.516.267-3.6.016-.035-.105-.245-.191-.466-.191-.222 0-.403-.075-.403-.167 0-.091-.187-.166-.417-.166-.229 0-.416-.081-.416-.179 0-.231-.424-.655-.655-.655a.18.18 0 01-.179-.178c0-.231-.424-.655-.654-.655-.099 0-.179-.187-.179-.417 0-.229-.075-.416-.167-.416-.091 0-.166-.182-.166-.405 0-.223-.113-.517-.25-.655-.17-.17-.25-.59-.25-1.312 0-.603-.087-1.148-.2-1.262-.156-.155-.156-.2 0-.2.136 0 .2-.371.2-1.172 0-.888.06-1.195.25-1.267.154-.06.25-.313.25-.662 0-.311.075-.565.166-.565.092 0 .167-.116.167-.258 0-.142.188-.432.417-.644.229-.213.416-.472.416-.576a.19.19 0 01.19-.189c.104 0 .363-.187.575-.417.212-.229.502-.416.644-.416.142 0 .258-.075.258-.167 0-.092.258-.167.573-.167.316 0 .62-.075.677-.166.057-.092.736-.167 1.51-.167.827 0 1.407.069 1.407.167 0 .091.183.166.406.166.224 0 .454.075.51.167.057.092.249.167.427.167s.323.112.323.25c0 .137.085.25.189.25.2 0 .977.828.978 1.041 0 .069.112.125.25.125.156 0 .25.158.25.417 0 .229.075.417.167.417.091 0 .166.187.166.416V108H19.5v-1c0-.556-.074-1-.167-1-.091 0-.166-.263-.166-.583 0-.408-.076-.584-.25-.584a.25.25 0 01-.25-.25c0-.137-.075-.25-.167-.25-.092 0-.167-.174-.167-.388 0-.244-.155-.472-.416-.612-.229-.122-.417-.322-.417-.444 0-.123-.113-.222-.25-.222-.138 0-.25-.075-.25-.167 0-.092-.15-.167-.333-.167-.186 0-.334-.111-.334-.25a.25.25 0 00-.25-.25c-.137 0-.25-.075-.25-.166 0-.092-.187-.167-.416-.167-.229 0-.417-.074-.417-.165 0-.09-.302-.213-.67-.272-.369-.059-.711-.172-.76-.252-.128-.206-5.692-.185-5.82.022m14.75 10V121H36v-1.481c0-1.835.486-1.68-5.292-1.683l-4.541-.003v-17.166H22.5v10.166m15.778-10.055c-.061.061-.111 4.636-.111 10.166V121h14v-1.5c0-1.213-.048-1.504-.25-1.521a3.164 3.164 0 01-.417-.062c-.092-.023-2.304-.051-4.917-.063l-4.75-.021V112.5h7.834v-3.667h-7.834v-4.495l4.875-.044 4.875-.044.048-1.792.047-1.791h-6.645c-3.654 0-6.694.05-6.755.111M55 110.833V121h3.667v-6.929c0-6.158.027-6.9.25-6.678.137.137.25.33.25.428 0 .099.075.179.166.179.092 0 .167.152.167.339 0 .186.112.381.25.434.137.053.25.2.25.328s.075.232.167.232c.091 0 .166.15.166.334 0 .183.076.333.167.333.092 0 .298.3.456.667.159.366.384.666.5.666.116 0 .211.16.211.356 0 .195.139.477.309.625.17.148.363.438.428.644.065.207.188.375.274.375.085 0 .155.081.155.179 0 .098.114.292.252.43s.208.321.156.406c-.053.085.022.199.165.254.143.055.261.242.261.416 0 .173.075.315.166.315.092 0 .167.113.167.25 0 .138.112.25.25.25.144 0 .25.151.25.356 0 .196.188.53.417.742.229.213.416.502.416.644 0 .142.067.258.149.258.082 0 .196.188.253.417.058.229.178.417.268.417.09 0 .164.112.164.25 0 .137.075.25.166.25.092 0 .167.139.167.31 0 .17.188.45.417.623.229.172.416.445.416.606 0 .265.205.294 2.084.294H71.5v-20.333h-3.667v6.828c0 6.001-.03 6.816-.25 6.732-.137-.053-.25-.23-.25-.394s-.186-.475-.413-.691c-.228-.215-.416-.523-.417-.684-.002-.16-.078-.291-.17-.291-.091 0-.166-.109-.166-.243 0-.133-.188-.43-.417-.659-.229-.229-.417-.57-.417-.757 0-.188-.093-.342-.208-.343-.215-.001-.625-.732-.625-1.115 0-.119-.113-.217-.25-.217-.138 0-.252-.131-.255-.291-.007-.361-.382-.875-.638-.875-.105 0-.19-.188-.19-.417 0-.229-.075-.417-.167-.417-.092 0-.167-.104-.167-.232s-.112-.275-.25-.328c-.137-.053-.25-.253-.25-.444 0-.192-.075-.302-.166-.246-.092.057-.167-.061-.167-.262 0-.202-.187-.54-.417-.752-.229-.213-.416-.508-.416-.656 0-.306-.387-.746-.655-.746-.098 0-.179-.188-.179-.417 0-.229-.067-.417-.148-.417-.082 0-.196-.187-.253-.416-.058-.229-.179-.417-.269-.417-.089 0-.163-.08-.163-.179 0-.527-.484-.654-2.488-.654H55v10.166m34.25-10c-.057.092-.361.167-.677.167-.398 0-.573.076-.573.25 0 .15-.154.25-.383.25-.522 0-1.281.37-1.282.625-.001.115-.158.208-.349.208-.375 0-2.153 1.701-2.153 2.06 0 .116-.147.369-.326.561-.18.193-.376.546-.435.783-.06.238-.176.474-.257.524-.082.051-.148.388-.148.749 0 .473-.07.657-.25.657-.214 0-.25.471-.25 3.238 0 2.656.045 3.283.25 3.488.137.137.25.518.25.845 0 .327.075.595.166.595.092 0 .167.188.167.417 0 .259.094.417.25.417.137 0 .25.146.25.326 0 .387 2.535 3.007 2.91 3.007.141 0 .257.075.257.167 0 .091.183.166.408.166.225 0 .482.132.572.292.148.266.536.292 4.355.292 3.799 0 4.211-.028 4.405-.292a.8.8 0 01.57-.292c.196 0 .356-.075.356-.166 0-.092.113-.167.25-.167a.25.25 0 00.25-.25c0-.138.132-.252.292-.255.349-.007.875-.379.875-.621 0-.094.112-.215.25-.268.138-.052.25-.23.25-.395 0-.164.188-.439.417-.611.229-.173.416-.438.416-.59 0-.152.069-.348.152-.435.131-.137.264-1.58.202-2.2-.044-.45-3.687-.277-3.687.175 0 .522-.37 1.28-.625 1.282-.115.001-.208.082-.208.18 0 .231-.424.655-.655.655-.098 0-.179.112-.179.25 0 .139-.148.25-.333.25-.183 0-.333.075-.333.166 0 .092-.184.167-.409.167-.224 0-.468.094-.541.208-.092.143-.633.209-1.717.209s-1.625-.066-1.717-.209c-.073-.114-.354-.208-.625-.208-.27 0-.491-.075-.491-.167 0-.091-.081-.166-.179-.166-.098 0-.283-.094-.411-.209-.551-.494-.74-.625-.903-.625-.096 0-.174-.112-.174-.25 0-.137-.075-.25-.167-.25-.091 0-.166-.142-.166-.315 0-.174-.113-.359-.25-.412-.138-.052-.25-.285-.25-.517 0-.232-.075-.422-.167-.422-.092 0-.167-.263-.167-.584 0-.407-.075-.583-.25-.583-.209 0-.25-.343-.25-2.083 0-1.741.041-2.084.25-2.084.175 0 .25-.176.25-.583 0-.321.075-.583.167-.583.092 0 .167-.188.167-.417 0-.259.094-.417.25-.417a.25.25 0 00.25-.25c0-.137.069-.25.155-.25.085 0 .179-.162.208-.359.032-.218.3-.488.678-.683.344-.178.625-.391.625-.474 0-.083.15-.15.334-.15.183 0 .333-.075.333-.167 0-.092.221-.167.49-.167.27 0 .537-.075.593-.166.057-.092.699-.167 1.427-.167.771 0 1.323.07 1.323.167 0 .091.263.166.584.166.32 0 .583.075.583.167 0 .092.152.167.339.167.186 0 .381.112.434.25.053.137.168.25.257.25.216 0 .637.432.637.654 0 .099.112.179.25.179.155 0 .25.157.25.417 0 .229.075.416.166.416.092 0 .167.265.167.589v.588l2.042-.047 2.041-.046.053-.542c.038-.402-.015-.542-.209-.542-.193 0-.26-.173-.26-.666 0-.367-.075-.667-.167-.667-.092 0-.167-.145-.167-.321a.94.94 0 00-.25-.572c-.137-.137-.25-.33-.25-.428 0-.099-.075-.179-.166-.179-.092 0-.167-.112-.167-.25s-.08-.25-.179-.25c-.23 0-.654-.424-.654-.655a.18.18 0 00-.179-.178c-.231 0-.655-.424-.655-.655 0-.098-.187-.179-.416-.179-.229 0-.417-.075-.417-.166 0-.092-.187-.167-.417-.167-.259 0-.416-.094-.416-.25 0-.174-.175-.25-.574-.25-.315 0-.62-.075-.676-.167-.062-.1-1.193-.166-2.834-.166-1.64 0-2.771.066-2.833.166m14.75 10V121h13.667v-1.5c0-1.075-.059-1.507-.209-1.525a4.545 4.545 0 01-.375-.064c-.091-.022-2.248-.048-4.791-.058l-4.625-.02V112.5h7.833v-3.667h-7.833v-4.5h9.5v-3.666H104v10.166m16.167-8.5V104h5.166c2.842 0 5.167.045 5.167.099 0 .227-.585 1.068-.744 1.07-.151.002-.888.967-1.072 1.405-.037.086-.224.319-.417.517-.729.749-1.1 1.253-1.1 1.494a.25.25 0 01-.25.248c-.138 0-.25.074-.25.164 0 .09-.263.434-.584.764-.32.331-.583.745-.583.92 0 .175-.08.319-.179.319-.23 0-.654.424-.654.655 0 .098-.099.178-.219.178-.121 0-.322.263-.448.584-.126.32-.295.583-.376.583-.198 0-.624.435-.624.637 0 .088-.112.204-.25.257-.138.052-.25.2-.25.327s-.329.57-.732.984c-.403.414-.783.913-.845 1.107-.062.195-.182.355-.268.355-.085 0-.155.08-.155.178 0 .231-.424.655-.655.655-.115 0-.178.617-.178 1.75V121h15.666v-1.5c0-1.085-.057-1.502-.208-1.506-.115-.004-2.646-.005-5.625-.002-3.827.004-5.331-.046-5.125-.168.16-.096.292-.283.292-.416s.075-.241.166-.241c.092 0 .167-.113.167-.25a.25.25 0 01.25-.25c.138 0 .25-.057.25-.125 0-.069.188-.343.417-.61.229-.266.416-.53.416-.587 0-.056.338-.47.75-.919.413-.449.75-.954.75-1.122 0-.167.113-.304.25-.304.138 0 .25-.08.25-.179 0-.23.424-.654.655-.654.098 0 .179-.113.179-.25 0-.138.075-.25.166-.25.092 0 .167-.188.167-.417 0-.229.078-.417.173-.417.318 0 1.494-1.302 1.494-1.653 0-.191.08-.347.178-.347.192 0 .655-.409.655-.579 0-.057.188-.277.417-.489.229-.213.416-.465.416-.561 0-.097.375-.571.834-1.054.458-.483.833-.982.833-1.109 0-.274.401-.708.655-.708.116 0 .178-.64.178-1.833v-1.833h-15.166v1.666m25.5 8.5V121h13.512l-.048-1.542c-.033-1.082-.11-1.548-.256-1.562-.115-.012-2.308-.03-4.875-.042l-4.667-.021V112.5h7.834v-3.667h-7.834v-4.5h4.717c5.542 0 5.117.169 5.117-2.033v-1.633h-13.5v10.166m20.666-10c0 .092-.215.167-.479.167s-.573.112-.687.25c-.114.138-.311.25-.437.25-.127 0-.23.075-.23.167 0 .091-.15.166-.333.166-.186 0-.334.111-.334.25 0 .138-.08.25-.178.25-.268 0-.655.44-.655.744a.42.42 0 01-.25.363c-.138.052-.25.275-.25.494 0 .22-.075.399-.167.399-.101 0-.166.775-.166 1.99 0 1.147.07 2.034.166 2.094.092.056.167.238.167.403 0 .165.188.441.417.613.229.172.416.407.416.523 0 .116.096.211.214.211.117 0 .321.15.453.333.132.183.411.333.62.333.227 0 .38.101.38.25 0 .156.157.25.417.25.229 0 .416.075.416.167 0 .092.255.167.566.167.349 0 .602.095.661.25.06.157.315.25.685.25.323 0 .588.075.588.166 0 .092.375.167.834.167.629 0 .833.061.833.25 0 .175.176.25.583.25.321 0 .584.075.584.167 0 .091.187.166.416.166.236 0 .417.097.417.222 0 .122.188.322.417.445.229.123.416.356.416.518 0 .163.075.342.167.399.092.056.167.281.167.5 0 .218-.075.443-.167.5-.092.056-.167.208-.167.337 0 .352-.942 1.246-1.313 1.246-.179 0-.353.084-.388.186-.092.277-3.299.298-3.299.022 0-.114-.187-.208-.416-.208-.229 0-.417-.057-.417-.127s-.164-.201-.363-.292c-.2-.09-.482-.406-.625-.702-.144-.296-.356-.54-.47-.542-.127-.002-.209-.233-.209-.587 0-.321-.075-.583-.166-.583-.092 0-.167-.188-.167-.417v-.417h-3.667v.74c0 .408.075.787.167.844.092.056.167.436.167.843 0 .547.065.74.25.74.155 0 .25.157.25.417 0 .229.075.416.166.416.092 0 .167.188.167.417 0 .259.094.417.25.417.137 0 .25.08.25.178 0 .231.424.655.655.655.098 0 .178.112.178.25 0 .139.148.25.334.25.183 0 .333.075.333.167 0 .091.085.166.19.166.104 0 .286.132.403.292.414.566 8.574.515 8.574-.054 0-.136.161-.238.377-.238.207 0 .517-.187.69-.416.172-.229.452-.417.623-.417.191 0 .31-.119.31-.31 0-.17.187-.451.416-.623.23-.172.419-.464.422-.648.003-.185.116-.481.25-.659.353-.467.349-3.633-.005-3.927-.138-.114-.25-.385-.25-.602 0-.434-.479-1.097-.696-.963-.076.047-.137 0-.137-.103 0-.239-.42-.665-.655-.665-.098 0-.179-.112-.179-.25 0-.156-.157-.25-.416-.25-.229 0-.417-.075-.417-.167 0-.091-.179-.166-.399-.166-.219 0-.442-.113-.495-.25-.06-.157-.315-.25-.684-.25-.324 0-.589-.075-.589-.167 0-.092-.329-.167-.732-.167-.497 0-.763-.08-.828-.25-.066-.171-.334-.25-.851-.25-.415 0-.755-.075-.755-.166 0-.092-.263-.167-.584-.167-.407 0-.583-.075-.583-.25 0-.138-.098-.25-.217-.25-.511 0-1.114-.428-1.115-.792-.001-.206-.076-.375-.168-.375-.092 0-.167-.3-.167-.666 0-.367.067-.667.148-.667.081 0 .187-.156.237-.346a.677.677 0 01.436-.436c.19-.05.346-.156.346-.237 0-.081.188-.148.417-.148.229 0 .416-.075.416-.166 0-.097.528-.167 1.25-.167.723 0 1.25.07 1.25.167 0 .091.188.166.417.166.229 0 .417.075.417.167 0 .092.187.167.416.167.26 0 .417.094.417.25 0 .137.075.25.167.25.091 0 .166.152.166.338 0 .186.113.382.25.435.155.059.25.312.25.661v.566h3.667v-1c0-.556-.074-1-.167-1-.091 0-.166-.228-.166-.506 0-.295-.104-.545-.25-.601-.138-.052-.25-.227-.25-.388 0-.384-1.361-1.839-1.72-1.839-.154 0-.28-.075-.28-.166 0-.092-.104-.167-.23-.167s-.323-.112-.437-.25c-.114-.138-.386-.25-.604-.25-.218 0-.396-.075-.396-.167 0-.104-1.056-.166-2.833-.166-1.778 0-2.834.062-2.834.166m19.815.001c-.148.087-.505.175-.792.197-.294.023-.523.134-.523.254 0 .118-.187.215-.416.215-.229 0-.417.075-.417.167 0 .091-.187.166-.417.166-.259 0-.416.095-.416.25 0 .138-.081.25-.179.25-.231 0-.655.424-.655.655a.18.18 0 01-.178.179c-.231 0-.655.424-.655.654 0 .099-.08.179-.179.179-.294 0-.654.452-.654.821 0 .196-.109.346-.25.346-.138 0-.25.145-.25.323 0 .178-.075.37-.167.427-.092.056-.167.254-.167.438a.953.953 0 01-.25.585c-.137.138-.25.541-.25.895 0 .355-.075.692-.166.748-.216.134-.224 4.703-.009 4.778.087.031.178.383.201.782.023.408.137.763.258.81.119.045.216.337.216.648s.067.566.149.566c.082 0 .196.187.253.416.058.23.178.417.268.417.09 0 .164.112.164.25s.07.25.155.25c.086 0 .198.131.249.292.135.42.986 1.375 1.226 1.375.112 0 .203.075.203.166 0 .092.15.167.333.167.184 0 .334.094.335.208.001.212.731.625 1.103.625.113 0 .336.132.497.292.561.562 8.565.512 8.565-.054 0-.142.167-.238.417-.238.229 0 .417-.075.417-.166 0-.092.187-.167.416-.167.26 0 .417-.094.417-.25 0-.138.08-.25.179-.25.23 0 .654-.424.654-.655a.18.18 0 01.179-.178c.222 0 .655-.421.655-.637 0-.089.112-.204.25-.257.137-.053.25-.248.25-.434 0-.187.075-.339.166-.339.092 0 .167-.254.167-.566 0-.348.096-.602.25-.661.171-.066.25-.334.25-.851v-.755h-3.752l-.224.541c-.523 1.265-.688 1.555-1.014 1.787-.189.135-.343.341-.343.458 0 .118-.188.214-.417.214-.229 0-.417.075-.417.166 0 .092-.155.167-.344.167-.189 0-.494.08-.677.178-.463.248-3.527.259-3.61.013-.035-.105-.244-.191-.466-.191-.221 0-.403-.075-.403-.167 0-.091-.187-.166-.416-.166-.229 0-.417-.078-.417-.173 0-.095-.338-.501-.75-.902s-.75-.85-.75-.999a.423.423 0 00-.25-.366c-.138-.053-.25-.275-.25-.495 0-.219-.075-.399-.167-.399-.092 0-.166-.433-.166-.968 0-.593-.095-1.093-.245-1.291-.296-.391-.33-1.021-.06-1.111.11-.037.228-.519.27-1.1.041-.569.141-1.076.222-1.125.08-.05.146-.312.146-.581 0-.325.084-.49.25-.49.14 0 .25-.149.25-.34 0-.187.338-.667.75-1.068s.75-.811.75-.911c0-.1.188-.181.417-.181.229 0 .416-.075.416-.167 0-.092.3-.167.667-.167.367 0 .667-.075.667-.166 0-.098.583-.167 1.416-.167.834 0 1.417.069 1.417.167 0 .091.183.166.407.166.224 0 .453.075.51.167.056.092.248.167.426.167s.324.112.324.25c0 .137.075.25.167.25.29 0 1.499 1.36 1.499 1.686 0 .173.07.314.155.314.086 0 .179.168.209.375.051.363.112.375 1.886.375h1.834l.05-.877c.039-.672-.01-.9-.208-.976-.164-.063-.259-.308-.259-.665 0-.311-.075-.566-.167-.566-.091 0-.166-.112-.166-.25a.251.251 0 00-.25-.25c-.142 0-.25-.149-.25-.345 0-.369-.361-.821-.655-.821a.18.18 0 01-.179-.179c0-.294-.452-.655-.821-.655-.196 0-.345-.108-.345-.25a.251.251 0 00-.25-.25c-.138 0-.25-.075-.25-.166 0-.092-.156-.167-.346-.167a.972.972 0 01-.595-.25c-.137-.138-.465-.25-.728-.25-.263 0-.525-.075-.581-.167-.133-.214-5.403-.213-5.769.001m21.352-.001c0 .092-.292.167-.649.167-.423 0-.682.087-.745.25-.052.138-.233.25-.401.25-.456 0-1.202.387-1.204.625 0 .115-.132.211-.293.214-.342.006-.875.377-.875.61 0 .089-.187.262-.416.384-.229.123-.417.323-.417.445s-.117.222-.26.222c-.143 0-.219.067-.168.148.05.081-.021.24-.157.354-.137.113-.248.301-.248.417 0 .117-.118.257-.261.312-.143.055-.218.169-.165.254.052.085-.018.268-.156.406a.98.98 0 00-.252.597c0 .19-.072.345-.161.345-.088 0-.21.375-.271.834-.061.458-.176.833-.256.833-.197 0-.186 4.791.011 4.861.086.031.197.393.246.804.049.412.166.774.26.806.094.031.171.238.171.46 0 .221.067.402.149.402.082 0 .196.188.253.417.058.229.178.417.268.417.09 0 .164.174.164.388 0 .244.155.472.416.612.23.122.417.29.417.373 0 .208.438.627.655.627.098 0 .178.08.178.178 0 .223.421.655.637.655.089 0 .204.112.257.25.053.138.248.25.434.25.187 0 .339.075.339.167 0 .091.188.166.417.166.248 0 .416.096.416.236 0 .562 8.165.615 8.574.056.117-.16.332-.292.477-.292.144 0 .309-.075.366-.166.057-.092.249-.167.427-.167.177 0 .323-.112.323-.25a.25.25 0 01.25-.25c.137 0 .25-.075.25-.167 0-.091.094-.169.208-.172.228-.006.959-.567.959-.736 0-.12.214-.391.875-1.107.252-.273.458-.606.458-.74 0-.135.075-.245.167-.245.091 0 .166-.179.166-.399 0-.219.113-.442.25-.494.157-.06.25-.315.25-.685 0-.323.075-.588.167-.588.105 0 .167-1.164.167-3.157 0-1.925-.065-3.197-.167-3.26-.092-.057-.167-.314-.167-.573 0-.258-.112-.563-.25-.677-.137-.114-.25-.305-.25-.424 0-.281-.546-1.24-.708-1.242-.069 0-.125-.081-.125-.179 0-.231-.424-.655-.655-.655a.179.179 0 01-.178-.179c0-.23-.424-.654-.655-.654a.18.18 0 01-.179-.179c0-.222-.42-.655-.637-.655-.088 0-.204-.112-.256-.25-.053-.137-.249-.25-.435-.25s-.338-.075-.338-.166c0-.092-.188-.167-.417-.167-.229 0-.417-.097-.417-.215 0-.122-.232-.232-.539-.255-.296-.023-.611-.114-.7-.202-.219-.219-5.594-.214-5.594.005m4 3.334c0 .091.266.166.591.166.399 0 .736.135 1.04.417.247.229.543.417.659.417.115 0 .21.075.21.166 0 .092.112.167.25.167.137 0 .25.085.25.189s.139.31.309.458c.171.148.363.438.428.645.066.206.189.375.274.375.086 0 .156.187.156.416 0 .23.075.417.166.417.092 0 .167.182.167.405 0 .222.112.517.25.655.374.373.361 3.695-.015 3.905-.146.082-.24.179-.21.217.099.122-.407 1.485-.552 1.485-.077 0-.14.139-.14.31 0 .17-.187.45-.416.623-.229.172-.417.407-.417.523 0 .116-.08.21-.179.21-.23 0-.654.424-.654.655 0 .098-.188.179-.417.179-.229 0-.417.075-.417.166 0 .092-.181.167-.402.167-.222 0-.429.078-.461.174-.089.265-3.279.297-3.38.034-.044-.114-.327-.208-.629-.208-.391 0-.639-.12-.861-.417-.173-.229-.421-.416-.552-.416-.28 0-.715-.399-.715-.655 0-.098-.112-.179-.25-.179-.137 0-.252-.131-.255-.291-.006-.349-.379-.875-.619-.875-.177 0-.333-.573-.487-1.792-.057-.453-.173-.708-.322-.708-.338 0-.324-1.933.017-2.274.137-.138.25-.545.25-.905s.075-.655.166-.655c.092 0 .167-.153.167-.34 0-.318.093-.477.625-1.07.115-.128.208-.284.208-.347 0-.191 1.28-1.409 1.481-1.409.102 0 .186-.113.186-.25 0-.156.157-.25.417-.25.229 0 .416-.075.416-.167 0-.092.221-.167.49-.167.27 0 .537-.075.594-.166.056-.092.661-.167 1.343-.167.716 0 1.24.07 1.24.167" fill="#64646c"></path>
    <path d="M388.167 2.167c0 .091.112.166.25.166.137 0 .25-.075.25-.166 0-.092-.113-.167-.25-.167-.138 0-.25.075-.25.167M120.582 41.583c0 21.634.019 30.459.043 19.612.024-10.847.024-28.547 0-39.333-.024-10.787-.043-1.912-.043 19.721M40.039 12.167c.114.183.265.333.336.333.07 0 .034-.15-.08-.333-.115-.184-.266-.334-.337-.334-.07 0-.034.15.081.334m181.685.415c.106.228.252.416.324.417.153.001-.147-.604-.367-.74-.082-.051-.063.094.043.323m38.776 6.34c0 .135.112.245.25.245.137 0 .25-.067.25-.149 0-.082-.113-.192-.25-.245-.152-.058-.25 0-.25.149M35.458 52.777c-.457.24-.617.556-.281.556.097 0 .13-.075.073-.166-.057-.092-.005-.169.115-.172.12-.003.364-.116.542-.25.404-.306.159-.288-.449.032m-16.791.178a.9.9 0 01.372.278c.076.113.124.072.125-.108.002-.196-.12-.287-.372-.279-.251.009-.292.045-.125.109m313.625 3.338c-.252.156-.459.347-.459.424 0 .076.225-.021.5-.217s.5-.388.5-.428c0-.106-.04-.09-.541.221" fill="#1c8cd0"></path>
    <path d="M388.167 2.167c0 .091.112.166.25.166.137 0 .25-.075.25-.166 0-.092-.113-.167-.25-.167-.138 0-.25.075-.25.167M120.582 41.583c0 21.634.019 30.459.043 19.612.024-10.847.024-28.547 0-39.333-.024-10.787-.043-1.912-.043 19.721M40.039 12.167c.114.183.265.333.336.333.07 0 .034-.15-.08-.333-.115-.184-.266-.334-.337-.334-.07 0-.034.15.081.334m181.685.415c.106.228.252.416.324.417.153.001-.147-.604-.367-.74-.082-.051-.063.094.043.323m38.776 6.34c0 .135.112.245.25.245.137 0 .25-.067.25-.149 0-.082-.113-.192-.25-.245-.152-.058-.25 0-.25.149M35.458 52.777c-.457.24-.617.556-.281.556.097 0 .13-.075.073-.166-.057-.092-.005-.169.115-.172.12-.003.364-.116.542-.25.404-.306.159-.288-.449.032m-16.791.178a.9.9 0 01.372.278c.076.113.124.072.125-.108.002-.196-.12-.287-.372-.279-.251.009-.292.045-.125.109m313.625 3.338c-.252.156-.459.347-.459.424 0 .076.225-.021.5-.217s.5-.388.5-.428c0-.106-.04-.09-.541.221" fill="#1c8cd0"></path>
    <path d="M388.167 2.167c0 .091.112.166.25.166.137 0 .25-.075.25-.166 0-.092-.113-.167-.25-.167-.138 0-.25.075-.25.167M120.582 41.583c0 21.634.019 30.459.043 19.612.024-10.847.024-28.547 0-39.333-.024-10.787-.043-1.912-.043 19.721M40.039 12.167c.114.183.265.333.336.333.07 0 .034-.15-.08-.333-.115-.184-.266-.334-.337-.334-.07 0-.034.15.081.334m181.685.415c.106.228.252.416.324.417.153.001-.147-.604-.367-.74-.082-.051-.063.094.043.323m38.776 6.34c0 .135.112.245.25.245.137 0 .25-.067.25-.149 0-.082-.113-.192-.25-.245-.152-.058-.25 0-.25.149M35.458 52.777c-.457.24-.617.556-.281.556.097 0 .13-.075.073-.166-.057-.092-.005-.169.115-.172.12-.003.364-.116.542-.25.404-.306.159-.288-.449.032m-16.791.178a.9.9 0 01.372.278c.076.113.124.072.125-.108.002-.196-.12-.287-.372-.279-.251.009-.292.045-.125.109m313.625 3.338c-.252.156-.459.347-.459.424 0 .076.225-.021.5-.217s.5-.388.5-.428c0-.106-.04-.09-.541.221" fill="#1c8cd0"></path>
  </g>
</svg>
