<?xml version="1.0" encoding="iso-8859-1"?>
<!-- Uploaded to: SVG Repo, www.svgrepo.com, Generator: SVG Repo Mixer Tools -->
<svg fill="#000000" height="800px" width="800px" version="1.1" id="Layer_1" xmlns="http://www.w3.org/2000/svg" xmlns:xlink="http://www.w3.org/1999/xlink" 
	 viewBox="0 0 330 330" xml:space="preserve">
<g id="XMLID_26_">
	<path id="XMLID_27_" d="M165,0C74.019,0,0,74.019,0,165s74.019,165,165,165s165-74.019,165-165S255.981,0,165,0z M165,300
		c-74.44,0-135-60.561-135-135S90.56,30,165,30s135,60.561,135,135S239.439,300,165,300z"/>
	<path id="XMLID_31_" d="M115.14,147.14c3.72-3.72,5.86-8.88,5.86-14.14c0-5.26-2.14-10.42-5.86-14.141
		C111.42,115.14,106.26,113,101,113c-5.27,0-10.42,2.14-14.14,5.859C83.13,122.58,81,127.74,81,133c0,5.26,2.13,10.42,5.86,14.14
		c3.72,3.72,8.88,5.86,14.14,5.86C106.26,153,111.42,150.859,115.14,147.14z"/>
</g>
</svg>