<?xml version="1.0" encoding="utf-8"?>
<!-- Generator: Adobe Illustrator 27.5.0, SVG Export Plug-In . SVG Version: 6.00 Build 0)  -->
<svg fill="#164e63" version="1.1" id="Layer_1" xmlns="http://www.w3.org/2000/svg" xmlns:xlink="http://www.w3.org/1999/xlink" x="0px" y="0px"
	 viewBox="0 0 800 800" style="enable-background:new 0 0 800 800;" xml:space="preserve">
<g>
	<path d="M721.949,374.44l-0.544-1.088v-5.438l-0.544-0.544l-2.719-4.351l-3.263-1.088l-1.088-3.263h-1.632l-1.088,1.088
		l-4.351,0.544l-0.544-2.175l-2.175-0.544l-0.544,0.544v2.175l-0.544,1.632l-3.807,0.544l-0.544-3.263l-1.088-0.544l-1.088,3.263
		l-4.351-0.544l-2.175,2.175v-4.894h1.632l0.544-2.175h-1.088v-5.438v-1.632l-0.466-1.165l-0.078-0.466l-0.544-3.807l2.719-5.438
		l-0.544-1.632l-0.544-2.719l2.719-3.263l0.242-1.692l0.302,0.604v-2.719l4.351,1.088h5.438l6.526,1.088l7.07,1.088h21.753
		l1.088-1.088l0.544-2.719l-1.631-2.719l-4.895-1.088l-9.245-0.544l-4.895-1.088l-1.631-1.632l-7.07-0.544l-2.175-0.544
		l-7.614-2.719l-9.245-1.632v-1.088l1.632-1.632l1.631-5.438l-0.544-3.807l-2.175-2.719l-3.263-0.544l-1.632,3.263l-2.175,1.088
		h-4.351l-1.088-0.544l-2.719-2.175l-1.088-3.263l2.175-2.175l4.351-1.088v-2.175l-1.631-0.544l-1.631,1.088l-1.36,0.544h-1.903
		l-1.632-1.632l-0.544-2.719l1.088-2.175l1.088-4.351l1.631-2.719l0.544-3.263l-1.088-2.175h-8.157l-2.175-0.544l0.544-3.263
		l-0.544-2.175h-4.351l-2.719,1.088l-1.631-1.631l-0.816-0.408l-0.816-0.68l-0.326,0.109l-0.218-0.109l-1.088,0.544l-0.544,2.175
		l1.152,2.687l0.48,3.839l-3.807,1.632l-4.713-0.725l-2.901-1.45l-2.175-4.351h-2.719l-0.502,3.012l-1.673,1.339l-6.526,0.544
		l-1.36-4.079l-0.816-3.535l-0.906-2.115l-0.181-0.604l-0.136-0.136l-0.408-0.952l-1.088-0.544l-0.544-0.544l-0.979-0.218
		l-0.653-0.326l-3.807-1.088l-0.544-0.544h-2.175l-1.088,1.088l-0.078,0.544l-1.554,2.719l-3.807,1.632l-3.263,4.351h-2.719
		l-2.175,2.719l-5.438,1.088l-3.263-0.544l-1.088-2.719v-4.351l-3.807-4.894l-4.351-3.263l-2.175-1.088v-1.088l-2.719-3.263
		l-3.807-3.807l-0.544-2.175l1.631-2.175l2.175-4.351v-5.982l-0.544-1.632v-4.351l-0.544-2.175l-3.263-2.175l-3.263-4.351
		l0.544-2.175l5.982-4.351l0.544-7.07l1.088-5.438l-0.544-2.175l-2.175-1.088v-3.807l-2.719-7.614l-0.544-5.982l-0.725-4.169
		l-0.363-2.9l-0.544-5.438l0.544-0.544l0.544-2.719l-1.631-1.631l-0.628-0.251l-1.004-0.837l-1.088-3.807l-3.263-2.175l-0.952-2.855
		l-0.136-0.952l-0.408-0.68l-0.136-0.408l-0.272-0.272l-0.816-1.36l-0.906-0.363l-0.181-0.181l-1.631-0.544l-2.719-1.088
		l-1.632-0.363l-3.807-1.269l-4.351-2.175l-5.982-0.544l-6.526-1.088h-9.789l-1.631,0.408l-1.038-0.26l-1.318-1.055l-1.45-1.813
		l-1.218-2.741l0.13-0.522l-0.653-0.653l-0.435-0.979l-0.855-0.311l-0.233-0.233l-0.906-0.181l-3.988-1.45l-2.175-1.631
		l-3.263-1.632h-3.807h-4.351l-1.088-0.544l-2.233-2.977l0.057-0.286l-1.088-1.088h-2.719l-0.544,0.544l-3.263-0.544h-4.351
		l-3.807,1.088l-3.807-0.544l-2.175-2.719l-1.632-5.982l-2.175-1.088l-1.088-3.263v-5.982l0.544-2.719l-0.155-0.777l0.155-0.855
		l-0.363-0.181l-0.725-3.626l-2.175-2.719l-3.263-1.088v-1.088l0.544-3.263l-0.544-1.632l-4.351-1.088l-2.719-2.175l-2.571-0.791
		l-0.692-0.297l-4.895-1.631l-1.36-0.272l-2.447-0.816h-5.438l-2.175,0.544h-4.895l-1.088-2.175l-5.982,0.544l-1.631-1.632
		l-8.701-2.175l-0.544-1.632v-1.631v-8.701l-0.544-1.088l-3.263-2.175l-4.351-3.807l-4.351-1.631l-7.614-0.544l-1.632-1.088
		l-1.631-3.263l-2.719-0.544l-8.157,3.807h-4.894v-5.438h-2.175l-2.175,1.631l-3.263,4.351l-4.059,3.69l-0.291,0.117l-1.632,1.631
		l-3.263,0.544l-1.088-1.088h-2.719l-3.807,2.175l-2.175,3.263l-0.544,4.894l1.088,1.632l0.761,0.218l0.326,0.326l1.152,0.096
		l1.568,0.448l4.895,1.631l7.07,1.088l3.263,1.632l0.544,1.36v1.318l-6.526-0.502l-1.45,0.544H360.3l-0.181,0.136l-2.538,0.952
		l-4.351,0.544l-2.175-1.088l-1.571-3.142l-0.06-0.665l-0.544-0.544l-2.719-2.719v-3.807v-1.631l-0.408-0.408l-0.136-0.68
		l-0.634-0.091l-0.453-0.453h-2.719h-4.351l-2.175-5.438l-2.719-4.351l-1.631-3.263l-2.175-2.719h-2.719l-5.982,3.807l-3.19,0.399
		l-1.885-0.269l-3.082-1.761l-3.263-5.982l-2.719-1.088l-3.263-2.175l-3.807-1.631l-3.263-2.175l-2.719-2.719l-0.544-7.614h-1.632
		l-2.175,2.719l-2.719,1.631h-20.122l-16.315-1.631l-3.807-1.632l-5.982-1.631l-7.614-0.544l-2.175-0.544l-12.508-1.088h-7.07
		l-5.982,2.175l-8.157,1.088l-3.263,1.088l-2.719,3.263v11.964l0.544,2.175l4.894,13.052l-0.544,3.263l-2.175,2.719l-0.408,0.816
		l-0.68,0.816l-0.181,0.906l-0.906,1.813l-1.428,2.379l-1.473,0.884l-2.538,1.088l-4.351,2.175l-4.894,3.807l-5.438,1.088
		l-1.088,1.088l-3.263,5.982l-2.719,2.175l-2.719,2.719l-2.719,2.175h-5.438l-4.894-1.631l-15.771-4.351h-9.789l-2.719,0.544
		l-0.692,0.346l-9.097,2.373l-8.157,2.175l-3.807,2.175l-7.07,10.333v8.157l-3.807,1.088l-3.807,2.175l-0.544,2.175l2.719,4.894
		v7.07l-1.088,1.632l-3.807,1.088l-0.15,0.6l-0.394-0.056v1.632l2.175,2.719l0.109,0.022l0.435,0.522l0.109,0.036l0.435,0.508
		l0.725-0.121l1.994,0.665l3.807,2.719l1.632,4.895l2.719,1.088l1.088,2.175l2.25,3.601l0.469,2.11v2.447l-1.088,1.631l-3.807,1.631
		l-1.088,2.719l-2.719,0.544l-1.631-4.351h-2.719l-4.351,2.719v0.029l-5.982,3.778l-2.719,0.544l0.544-5.982l-1.088-1.088
		l-3.263,0.544l-3.263,4.351l-1.088,2.719H55.21l-2.175,1.088l-2.719,1.632l-0.544,1.632l1.632,1.631l-0.544,2.719l-3.263,1.631
		l-1.03,1.202l-0.057-0.115l-1.506,1.883l-1.71,1.026l-4.942,0.898l-5.438,2.175l-4.351,3.807l-2.175,3.263v3.807l0.544,0.544
		l1.632,2.719l-1.088,3.807v5.438l0.544,2.175l0.544,10.877v14.14l-1.088,7.614l-1.632,4.895l-2.175,11.964v14.14v5.438l1.088,1.088
		l4.894,5.982l3.807,1.088l2.175,1.632v5.982l0.544,0.544l6.526,1.088l2.719,1.632l1.727,6.046l-0.096,0.48l0.408,0.612l0.136,0.476
		l0.272,0.136l0.272,0.408h0.544l4.351,2.175l4.894,3.263l1.088,4.894l0.544,1.088v0.544l0.453,0.363l0.091,0.181l0.816,0.544
		l1.36,1.088l0.363,0.06l0.725,0.483l0.989-0.198l1.187,0.198l0.155-0.466l0.388-0.078v-3.807h3.807l1.632,1.088l0.483-0.242
		l0.604,0.242l-0.099-0.494l1.187-0.593l2.719-2.719l2.719,0.544l1.632,1.632l-0.544,2.719l-7.07,0.544l-0.544,1.088l0.544,1.631
		l2.719-0.544h4.351l1.088,1.088h2.719v-1.088l-2.719-1.632l2.175-1.088l0.242-0.363l0.302-0.181l2.175-1.088l4.351,2.719
		l2.719,1.632l2.175-0.544l3.807-5.438l2.719-0.544l-0.544,3.263l3.263,0.544l1.088-1.631l4.351,0.544l0.544,2.175l-1.631,1.088
		v2.719l1.631,0.544l4.351,2.175l8.701,1.088l1.088,1.632v4.894l-0.544,4.351l-1.088,1.088l-6.526,1.632l-0.544,2.719l1.632,4.351
		l2.719,4.351l2.175-1.088l3.807,0.544l0.025-0.049l3.782,1.681l2.175,2.719l0.544,2.719h-1.088l0.544,2.719l-1.088,5.438
		l1.088,2.719l3.263,2.175l-2.175,2.719l-2.719,1.631v1.632v1.632l0.544,1.088l0.435,0.217l0.653,0.87l1.088,3.807l1.088,1.088
		l1.269,0.181l0.906,0.363l0.593-0.148l1.038,0.148l2.175-2.175l3.263-1.088l0.906-0.906l1.088-0.435l2.357,1.885l3.161,1.054
		l-0.442,2.209l-0.544,2.719l2.719,1.088l0.544,1.632l2.175,1.632l0.544-3.807l-1.088-2.719l-0.46-2.761l3.179-1.59l2.719-2.175
		l0.065-0.261l1.566-1.37l3.807-4.895l2.719,0.544l1.631,1.631l2.175,1.088l1.088,2.719l0.46,0.377l0.084,0.167l0.311,0.155
		l5.128,4.195l0.544,2.175l-2.719-1.632h-4.351h-1.632l-1.631,1.632l-2.175,0.544l-1.632-2.175l-0.326,0.218l-0.218-0.218
		l-1.088,1.088l0.544,1.632l2.677,1.339l-0.502,3.012l-1.631,1.632l0.544,2.175v3.807l-1.088,2.719h-1.631l-2.175,1.088v1.088
		l-3.807-1.088l-3.807-3.807l0.544-4.351H153.1l-2.719,1.632l-0.091,0.242l-0.453,0.302l-0.388,1.942l-0.699,1.865l0.181,0.725
		l-0.181,0.906l0.445,0.148l0.099,0.396l3.807,1.631v3.263h-3.263l-1.088,0.544l-0.544,2.719h-2.719l-4.894-3.263l-2.719-1.088
		l-1.088,2.175l-2.175,0.544l-5.438,4.351l-0.544,2.719l2.175,3.807l3.263,1.632l3.807-0.544l5.982-1.088l2.175-2.175l2.719,0.544
		l2.175-0.544l0.544-2.719l-1.088-2.175v-2.719l2.175-0.363v1.45l1.088,1.632l2.175,0.544l4.351-4.351l1.088-3.807l0.544,0.544
		h2.719h3.263l4.351-0.544l1.632,1.088h4.351l2.719-2.175h2.175l2.175,0.544v-2.719l-1.088-0.544v-2.175l1.632-1.632l-0.544-3.807
		l-1.088-5.438l3.807-1.088l3.263,1.632l-1.631,1.632l-0.544,2.175l1.088,2.175v3.263h1.088v1.088l2.175,0.544l-1.088-3.807
		l1.632-3.807l-0.476-3.807h5.914l1.631,3.263l0.696,0.435l0.392,0.653l1.813,0.725l1.45,0.906l1.631,2.719h-1.088v3.807
		l0.544,0.544h3.263l1.631-3.807h2.175v4.895l0.544,1.523v0.109l2.175,5.982v4.351l-0.544,1.088l-3.263,2.719l-5.438,1.632v-3.807
		l-0.544-1.088v0l-1.088-2.175l-0.725-0.725l0.181-0.363l-1.631-1.088l-1.088-1.088v-3.263l-0.544-2.175l-2.175-1.631h-3.263
		l-1.088,0.544l-0.136,0.272l-0.408,0.272l-0.109,0.761l-0.435,0.87l0.167,1.004l-0.167,1.171l0.483,0.725l0.06,0.363l1.088,1.36
		l0.544,0.816l0.317,1.586l-0.317,2.221v0.109l-0.445,0.979h-0.099l-0.544,1.088l-0.016,0.217l-1.072,2.502h-3.263l-1.632-1.632
		l-4.351-3.807v-1.088v-4.351l-0.544-0.544l-0.544-0.544l-1.088,0.217l-1.088-0.217l-0.544,0.544v3.263l1.088,3.263l-2.175,1.088
		h-0.544l-0.544,0.544v0.218l-0.544,0.326l0.544,1.088v0.544l0.29,0.036l0.254,0.508h3.263l-0.544,1.088l-0.544,2.719l-2.175,1.088
		h-0.544l-0.544,0.544l0.544,5.982l-0.653,1.088h-0.435l-0.544,1.632l0.544,1.632h2.175l3.054-2.749l0.209,0.03l2.175-2.175
		l1.73-0.346l2.076,0.346l0.363,1.088l0.181,1.088l0.078-0.311l0.466,1.398l1.088,5.438l-2.175,0.544l-3.757,2.818l-0.049-0.099
		l-2.175,1.088l-4.894,1.631l-1.088,2.175l-3.263,3.807l-0.544,3.263l1.632,1.088l0.544,1.631l-2.175,0.544l0.544,1.631l4.894,1.088
		l0.544,2.719l-3.263,19.034l0.544,8.158l-2.947,0.368l0.228-0.912h-2.719l-1.088,1.088l-2.719,2.719v1.632v2.175v1.631l2.175,1.088
		h8.157v2.719l-2.175,1.088v9.245l1.632,3.263l2.719,3.807v3.263l-2.719,3.807h-2.175v1.631v4.351l-1.088,1.088l-3.807,0.544
		l-1.088,1.631l-4.351,2.719h-4.351v2.719l-1.632,1.088l-5.438,1.088l-0.544,2.175l-0.544,2.719l-1.088,2.175l2.719,2.175
		l1.632,3.807l2.175,1.632l1.088,2.719l3.263,1.632l0.544,2.719l2.175,1.088l3.807,0.544h3.263l3.263,0.544l2.719,2.175l1.883,1.046
		l0.837,0.586l0.777,0.311l1.398,0.777l0.091-0.181l0.453,0.181l0,0l2.719,1.088l2.175,1.632l4.894,0.544h6.526l2.175-1.631
		l2.175,0.544l1.088-0.544l0.544-4.895l1.088-0.544l4.894-0.544l0.544-1.088l-0.544-1.632l-0.363-0.181l-0.181-0.363l-1.088-2.175
		l0.544-3.263l2.719,0.544l2.719-0.544l-1.088-1.632l-0.544-2.175l3.263-2.175l-0.544-3.263l1.631,0.544l1.088,3.807l1.632,1.632
		l5.438,4.894l1.495,3.739l0.136,0.612l0.136,0.068l0.408,1.02l4.351,0.544l0.544,0.544l1.631,5.982l2.719,2.175v2.719l2.175,0.544
		l1.088-1.088l1.631,1.632v3.263l-1.088,4.894l-2.128,3.405l-0.047-0.142l-0.544,1.088l-3.263,2.175l-0.087,0.218l-0.457,0.326
		l-0.109,1.088l-0.435,1.088v3.263l-1.632,3.807l-1.088,7.07l-1.631,4.351v2.175h0.435l0.109,0.544h2.719l1.088-1.631l0.544-1.632
		l1.088-2.175h2.719l1.495,0.408l0.136,0.136l0.163-0.054l4.188,1.142l5.982,2.175v4.351l-3.263,0.544l-0.544,1.088v3.807
		l0.544,0.544l0.544,3.263l-4.351,0.544l-2.175,1.088l-0.049,0.247l-0.494,0.297v3.807l-2.719,1.631l1.088,1.632l4.895,0.544
		l1.632,3.263l17.946,2.175l0.544,4.894v5.438v3.807l-1.631,1.632v4.351l-0.544,3.807l2.175,2.175l4.351-0.544l3.807-0.544
		l2.175,1.632l1.632,4.351h-1.088l0.544,1.631h2.719h1.088l1.088,3.263h4.351l1.088,1.088l1.128,0.242l0.504,0.302l3.444,0.544
		l2.538,0.544l0.218-0.109l0.326,0.052v0.057l3.807,0.544v1.632l-3.807,0.544v1.088l5.438,2.175l-1.632,4.351l-1.088,3.263
		l-2.175,0.544v2.719l2.719,0.544l0.544-1.631l8.701,2.175l1.632,1.631l-1.088,2.175v2.175l2.175-0.544l1.088-3.263l1.088-1.088
		l1.088-2.175h2.719l0.544-0.544l3.263-2.175l3.263-0.544l3.655,5.939l1.24,3.306l1.632,2.175l0.209,0.126l0.335,0.418l0.816,0.272
		l1.36,0.816l0.435-0.218l0.653,0.218l1.088-1.088h0l0,0l1.631-1.631l0.196-0.457l1.98-2.262l1.632,0.326l1.571,0.943l0.703,1.055
		l0.445,3.115l-8.701,0.544l0.136,0.544h-0.136l0.544,1.632l8.701,0.544l1.632,1.088l2.719,0.544l3.263,2.719l-1.088,3.263
		l1.632,2.175v5.982l-0.544,2.719h3.263v1.631v1.088l0.544,3.263l2.719-0.544l2.175-4.351l2.175-2.175l4.786,1.196l2.284,0.979
		l2.175,2.175v5.982l1.632,4.351l2.719,1.631l2.719-0.544l2.175-5.438l1.78,0.297l3.115,1.335h0l4.894,3.263l4.894,1.632
		l0.544,1.088h1.632l3.807-5.438h3.807l1.632-2.175l3.807-3.263l0.544-3.807l-1.632-2.175l-7.614-2.175l-2.719-0.544l-2.175,1.632
		l-1.632,2.719h-1.631l-0.544-1.631l-2.175-0.544l-0.786,1.571l-1.934-0.483l0.544-3.263l3.263-1.088l0.544-3.807l-0.544-0.544
		l-4.351-2.175v-4.894l0.544-3.263l2.175-2.175l-0.466-3.263l0.466-3.263l6.526,0.544l0.544-1.088l-0.088-0.965l0.632-2.842
		l3.263,0.544l4.169,1.39l1.527,1.272l3.005,3.864l5.982,4.351l2.175,3.263v4.351l-1.632,2.719l-0.544,2.719h-1.088l-1.088,1.632
		l2.719,1.088l1.088,2.719l0.544,4.895l-0.544,1.088v5.438l0.544,2.719l2.719,4.351l7.07,3.807l7.07,0.544v-1.631l-0.326-0.816
		l-0.761-5.71l-2.175-1.631v-3.807l1.088-1.088v-4.351l-0.544-1.088v-5.982l-3.263-1.631l-0.544-3.807l-0.544-5.982l1.088-3.263
		l2.719-1.088l2.719,1.632h3.263l1.632-1.632l0.544-3.263h1.088l5.982-2.175l4.351,0.544l3.263-2.175l3.807-4.351l-1.632-4.894
		l0.544-5.982v-7.614l-3.263-1.631l-1.632,2.719l-2.719,1.088l-1.088,7.614l-1.631,0.544h-3.263l-2.175-1.631v-8.158l-0.544-1.088
		v-6.526l-4.351-4.351v-2.175l5.982-2.175l0.89-0.396l0.742-0.148l0.204-0.272l1.044-0.464l0.384,0.192l1.187-0.89l0.445-0.198
		l3.263-1.088h1.088l1.631-0.979l7.07-2.828l0.544-1.631l-2.175-1.631l-0.397,0.088l-0.147-0.088l-4.351,1.088l-3.807,1.088h-6.526
		l-1.702-0.426l-0.473-2.837l-0.453-0.272l-0.091-0.272h-0.363l-1.813-1.088v-1.632l1.088-1.631v-3.263l2.175-2.719l4.894-0.544
		l2.175,1.631l4.895-0.544l6.526,0.544l2.175,1.088l2.719-0.544l2.175-2.719l1.632-1.632l5.982,0.544l3.263-2.175l2.719-3.263
		l2.719-1.088v-1.088l-2.719-4.895l-3.839-3.359l-1.6-4.799h-1.631l-2.719-0.544l-4.894-2.175l-1.36-0.68l-0.66-1.651l0.388-3.108
		l1.631-0.544l4.351-0.544h2.175l1.208-0.483l0.423-0.06l0.311-0.233l0.777-0.311l0.692-0.791l0.396-0.297l0.054-0.218l1.142-1.305
		l0.979-0.653l2.447-2.447l1.903-1.36l4.351-3.263l2.719,0.544h2.175l2.51-4.518l0.753-0.377h1.088l1.631,1.088l2.175,3.807
		l2.719,0.544l2.719-1.088h2.719l1.088,1.088l-0.302,1.813l-0.242-0.725l-0.544,2.175l2.719,2.175l2.719,0.544l0.032-0.064
		l2.687,1.152l2.719,2.719l1.088,3.263l2.175,1.088l2.175,2.719l0.155,0.078l0.388,0.466l0.906,0.181l0.725,0.363l0.408-0.136
		l0.68,0.136l3.807-1.632l3.807,0.544l-0.049-0.074l0.593,0.074l6.526-4.351l4.894-2.175l-0.544,3.807l1.088,1.088l4.351-0.544
		l1.632-1.632l-0.145-1.45l0.145-0.725l-0.229-0.115l-0.261-2.605h4.296l1.088-1.088l0.311-0.777l0.233-0.311l-0.042-0.167
		l1.673-4.183l5.982,0.544l2.719,2.175l4.351,3.807l2.719,0.544l1.631-1.088l0.544-3.807l1.088-1.088l1.632-5.438l-0.544-1.632
		l-2.175-0.544l-0.544-2.175l-0.272-0.272l-0.272-0.816l-1.632-1.305v-0.87l1.632-1.088l2.719-2.719l6.526-5.438l2.719-0.544
		l1.088,3.263l4.351,8.157l2.175,0.544l1.632-2.175l-1.088-2.175v-5.438l0.544-1.088l3.263-1.632l0.544-2.175l-1.632-1.088
		l-1.088-2.175h7.07l2.175,1.088v1.088l-3.807-0.544l-1.631,2.719v4.894l0.716,0.429l-0.172,0.114l2.175,1.088h4.351l-1.088,4.351
		v3.263v7.614h1.088l1.631-3.263v-5.438h2.175l1.088,1.088h3.263l2.719-1.088l2.719,1.632l3.263,0.544l1.631-1.088l1.632-2.719
		v-4.894l2.175,0.544h4.351l4.351-1.632l1.088-7.07l-0.544-1.631l-5.438-0.544l0.544-1.631l6.526-1.088l0.544-1.088h3.263
		l2.719-1.631l2.175-2.719l3.263-1.632l1.631-2.719l1.088-3.263l-2.719-0.544l-1.631,1.088l-2.719,0.544h-1.631l-0.172,0.258
		l-2.004,0.286v-3.807l-3.807-3.263l-0.544-2.719l3.807-4.351l2.719-7.07l1.088-5.438l0.544-5.982l-2.175-2.719l0.544-3.807
		l2.175-3.263h2.719l5.438,2.719h4.351l3.263-3.263l0.544-3.807l2.175-0.544l2.175-2.175l0.544-6.526l0.544-3.263l2.175-1.088
		v-2.719l-0.544-0.544l0.544-2.175l-0.544-2.719v-3.807l-0.544-0.544l-4.351-0.544v-4.894l0.494-2.719h0.049l0.544-3.263
		l1.088-2.719l-1.088-0.544l-1.088-2.719v-7.614l-0.544-2.719l2.175-1.632l0.362-0.544l0.725-0.544l1.088-2.175l1.088-1.632
		l0.218-0.979l0.326-0.653l-0.148-0.148l0.692-3.115l-1.088-1.632h-2.719l-0.544,0.544l-3.807,1.088l-0.816,1.224l-0.272-0.136
		l-1.088,2.175v4.894l0.544,2.175h-1.088l-0.816,0.272l-1.903,0.272l-3.263,2.175v-1.631l-1.088-1.632l-0.544-2.719l1.088-3.263
		l3.263-0.544l1.088-1.088v-5.438h-2.175l-1.631,2.719l-1.631,0.544l-0.544-1.632l0.544-4.351l1.631-2.719l0.272-1.088h0.272
		l0.544-3.263l2.175-2.719l4.895-2.175v-2.175l0.816-2.447l0.997-0.997l1.45-0.363l1.632,1.088l4.351,0.544l4.351-3.807l0.544-2.175
		l-1.632-1.632l-4.895-1.632l-0.544-2.175l5.438,0.544l-0.544-2.175l-0.544-2.719l2.719-1.631l2.175-3.263l0.064-0.32l0.48-0.768
		v-1.631l0.512-2.559l3.839-2.879h4.894l2.719-1.088l2.719,2.175l5.438,1.088l1.088,2.175l1.631,0.544l1.088-1.631h2.175
		l2.719,1.631l2.175,0.544l1.632-1.632l3.263-1.631l1.088-5.438l2.719-3.263l0.064-0.448l0.48-0.64l-0.194-1.36l0.194-1.36
		l-0.453-0.453l-0.091-0.634l1.632-3.807v-3.807l-2.719-2.175L721.949,374.44z M629.497,591.429l-0.544,2.175l-0.544,1.088
		l-0.408,0.408l-0.68,0.136l-4.351-3.263l-0.453-1.813l0.344-0.689l1.74-1.305l-0.099-0.297l4.449-1.335l1.632-2.175h1.088
		l0.544,2.175l-2.175,2.175l-0.322,2.897L629.497,591.429z M254.253,645.812l-1.631,0.544l0.544-1.088L254.253,645.812z
		 M384.501,79.955l0.272,0.816l0.363-0.181l0.181,0.181v3.807l-2.719,1.631h-0.544l-3.263-0.544l-3.263-2.719l-1.088-2.719
		l4.713-1.088h2.9l2.039,0.408L384.501,79.955z M145.487,348.336l4.351,0.544l0.302,1.511l-0.302,1.209l-1.632,0.544l-3.807,0.544
		v-2.719L145.487,348.336z M662.671,293.409v-3.263l1.631-2.175h1.088l0.544,1.632l-1.088,3.807H662.671z M377.703,697.476
		l-0.544-2.719l3.807-4.351l1.813,0.725l0.363,0.363l0.544,5.982l-4.895,0.544L377.703,697.476z M143.855,385.317l-1.088-2.719
		l-2.175-2.719l-0.193,0.055l-1.983-2.23l1.088-1.631l1.088-3.263l2.175-0.544v-1.088l-1.088-0.544l-0.544-2.719l-1.631-1.088
		l-1.632-0.544l-1.088-1.088v-1.088l2.719-0.544l1.088-1.088l0.272-1.088h0.272l0.544-3.263h2.175v1.088l1.631,1.088h4.351
		l0.544,0.544l-0.544,2.719l0.544,2.719v2.719l-0.109,0.109l-2.61,0.435l-0.544-3.807l-2.175-0.544l-0.837,0.167l-1.339-0.167
		l-0.544,0.544l-0.544,2.719l3.263,1.632l-0.544,3.807l-2.719,1.088v2.175l1.767,1.767l0.952,4.759h0.181l0.363,2.175
		L143.855,385.317z M190.625,435.349l0.544,1.631h-1.088L190.625,435.349z M509.96,611.458l-0.058,0.008l0.08-0.139L509.96,611.458z
		 M655.601,522.906l-2.175,0.544v-2.175l1.631-1.088h1.088L655.601,522.906z"/>
	<polygon points="643.637,171.591 646.356,168.871 649.619,163.977 655.057,156.907 658.864,152.556 663.215,149.293 
		668.653,145.487 669.721,142.709 669.741,142.767 671.372,138.417 674.091,137.329 676.811,134.066 680.617,129.715 
		681.161,126.452 679.53,124.821 676.811,124.277 674.635,125.365 668.272,128.791 666.75,129.443 662.671,130.803 661.583,131.891 
		661.583,138.417 659.408,140.592 655.057,144.399 652.882,147.662 639.83,166.152 639.286,169.959 641.461,172.134 	"/>
	<polygon points="450.576,728.475 449.489,729.562 445.682,729.562 443.507,729.018 442.963,730.106 443.507,736.632 
		442.419,736.632 439.156,740.439 439.156,743.158 439.7,743.702 443.507,745.333 447.857,745.333 448.945,746.421 452.208,746.421 
		452.752,745.333 452.208,736.632 454.383,733.913 456.015,732.281 456.015,730.106 454.383,729.018 	"/>
	<polygon points="610.463,626.234 612.638,624.059 613.182,620.252 611.551,617.533 612.094,614.27 610.463,612.095 
		607.744,611.007 601.218,609.919 598.499,609.375 594.692,609.375 593.604,611.551 594.148,613.726 597.411,614.814 
		597.411,617.533 600.13,618.077 605.025,621.883 607.744,625.69 	"/>
	<polygon points="185.73,587.078 185.186,586.534 179.204,585.991 175.941,584.359 174.854,584.903 172.678,588.166 
		166.696,588.166 165.298,589.215 165.065,589.254 164.831,589.564 164.521,589.797 160.533,592.698 159.082,593.604 
		159.082,593.604 154.732,596.323 154.732,596.323 150.925,598.499 149.339,599.609 149.293,599.586 148.206,600.402 
		145.487,602.306 145.338,602.553 144.943,602.849 144.671,603.665 142.224,607.744 141.913,608.832 141.68,608.832 
		140.592,613.182 140.32,616.445 140.048,618.077 134.066,621.883 133.773,622.26 133.522,622.427 133.305,622.862 131.418,625.288 
		131.347,625.146 130.259,626.778 126.452,629.497 124.821,632.76 122.102,636.023 120.47,637.655 119.043,639.286 113.944,644.724 
		108.063,650.213 107.962,650.163 106.874,651.25 105.787,652.338 105.787,655.601 107.418,657.776 110.137,658.32 112.857,656.689 
		112.748,656.58 113.4,656.145 115.213,651.613 117.751,649.075 117.697,649.057 120.47,646.9 120.781,646.045 121.014,645.812 
		121.014,645.404 122.646,640.918 130.259,637.111 137.329,635.479 142.224,631.672 149.293,627.322 153.644,627.322 
		161.258,626.778 166.152,624.603 172.678,619.708 177.029,613.726 180.292,609.919 182.127,607.064 183.555,605.025 
		183.648,604.698 185.186,602.306 188.449,598.499 188.449,595.236 186.274,591.429 	"/>
	<path d="M93.218,378.972l0.06,0.363l0.293,0.167l0.251,0.377l0.522,0.065l2.741,1.566v3.263l0.544,1.631l4.894,1.088h4.351
		l4.894-1.088l2.175-2.175l4.351-3.263l1.088-2.719l0.544-3.807l-1.631-1.632h-8.701l-1.088,1.088h0l0,0l-0.544,0.544l-6.526,0.544
		l-1.631-1.088h-4.351l-0.68,0.544h-0.408l-1.088,1.088l-0.026,0.129l-0.518,0.414l0.198,1.187l-0.198,0.989L93.218,378.972z
		 M108.977,375.781l0.073,0.29h1.088v2.175l-1.088,0.544l-0.502,0.376l-0.314-0.105l-0.816-0.816v-1.631l1.335-0.89L108.977,375.781
		z"/>
	<polygon points="119.926,425.56 116.12,425.56 113.4,426.648 110.681,428.823 110.681,431.542 113.4,435.349 116.12,436.981 
		118.295,437.253 118.295,437.524 120.47,437.524 123.189,434.261 125.727,430.455 125.909,430.455 126.452,429.367 
		125.365,427.192 	"/>
	<polygon points="502.784,658.864 506.047,657.776 506.591,656.145 504.96,653.426 502.784,652.882 501.153,656.145 
		499.521,658.864 498.434,662.671 498.589,663.059 498.434,663.759 499.366,665.002 499.521,665.39 500.79,667.928 502.24,671.916 
		504.416,676.267 507.135,676.267 507.679,675.723 507.679,665.934 506.047,662.671 	"/>
	<polygon points="628.409,228.693 630.585,228.149 632.76,224.886 636.567,219.448 636.023,217.272 633.304,215.097 
		628.409,215.097 625.69,217.272 624.059,223.798 623.515,226.518 624.603,227.605 	"/>
	<polygon points="611.007,640.918 611.551,641.461 614.814,643.093 618.077,643.093 620.796,642.005 622.427,639.286 
		621.883,635.479 619.708,632.76 616.445,630.585 613.182,630.041 611.551,631.672 	"/>
	<polygon points="253.709,672.46 252.078,668.653 249.359,665.934 244.464,665.934 241.745,668.653 241.745,672.46 242.289,673.548 
		244.464,676.267 247.183,677.898 250.99,677.898 253.165,676.267 	"/>
	<polygon points="199.326,590.341 197.694,590.885 194.431,593.604 193.888,597.411 194.975,599.043 197.694,601.762 
		202.045,601.218 204.764,596.867 204.764,593.604 202.589,590.885 	"/>
	<polygon points="402.719,763.824 399.456,763.28 397.281,763.824 394.562,765.455 395.105,769.262 398.368,770.35 403.807,774.156 
		407.07,774.156 408.157,771.981 407.614,768.718 	"/>
	<polygon points="311.899,727.931 306.344,727.503 305.917,727.387 305.858,727.466 304.829,727.387 300.479,727.931 
		301.023,730.106 309.724,735.001 314.618,735.001 314.075,731.194 	"/>
	<polygon points="588.166,130.259 590.885,127.54 590.885,124.277 589.254,122.646 584.903,122.646 581.64,125.365 581.64,128.628 
		582.728,129.715 	"/>
	<polygon points="130.803,407.614 132.978,407.614 136.241,407.614 137.873,404.895 137.329,402.719 134.066,401.088 
		133.522,398.368 131.891,397.825 130.259,398.912 130.259,401.632 129.715,403.263 127.54,403.263 126.452,403.807 	"/>
	<polygon points="128.084,436.981 132.435,439.156 134.066,438.612 135.698,434.261 135.698,433.718 135.698,430.998 
		129.715,430.455 127.54,432.63 126.452,435.349 	"/>
	<polygon points="302.654,720.861 304.829,715.423 303.742,713.791 299.935,713.247 295.04,716.51 295.04,718.686 300.479,721.405 	
		"/>
	<polygon points="96.542,463.085 93.279,465.26 91.647,467.979 92.191,470.154 94.366,471.242 97.085,470.698 99.805,467.979 
		99.805,464.172 99.261,463.085 	"/>
	<polygon points="725.755,307.005 727.387,305.917 728.475,302.11 726.843,299.935 722.492,299.935 721.405,301.566 
		720.861,305.373 721.949,306.461 	"/>
	<polygon points="681.705,511.486 681.705,516.38 682.793,517.468 685.512,518.012 686.599,516.924 687.687,515.836 
		687.854,514.832 688.231,514.205 688.083,513.463 688.231,512.573 687.823,512.165 687.687,511.486 686.735,511.078 
		686.599,510.942 686.545,510.996 683.88,509.854 	"/>
	<polygon points="290.69,701.827 291.234,699.108 291.777,695.301 291.234,694.213 286.339,694.213 285.251,695.301 
		285.795,699.651 288.514,702.371 	"/>
	<polygon points="230.324,650.707 227.061,650.707 225.43,652.882 226.518,655.601 229.237,657.233 233.044,657.233 
		233.587,656.145 233.044,653.426 	"/>
	<polygon points="653.97,593.604 651.25,596.867 651.25,600.13 651.794,601.218 654.513,601.218 657.233,599.043 658.32,596.323 
		657.233,593.604 	"/>
	<polygon points="620.252,643.637 619.164,645.812 616.445,645.812 614.814,647.444 615.357,650.163 618.077,650.163 
		618.62,649.619 620.796,651.25 623.515,650.707 621.883,643.637 	"/>
	<polygon points="609.375,194.432 608.832,197.151 609.919,198.238 612.638,198.782 615.901,197.151 616.445,193.344 615.901,192.8 
		611.007,192.8 	"/>
	<polygon points="287.971,711.072 286.883,712.16 286.883,715.423 288.514,718.142 291.777,718.142 292.321,717.598 
		292.865,712.703 291.234,711.072 	"/>
	<polygon points="141.68,404.351 142.767,405.438 144.943,405.982 146.574,404.351 148.206,401.632 147.118,398.912 
		143.311,398.368 142.767,398.912 143.311,402.175 142.224,402.175 	"/>
	<polygon points="675.723,590.885 674.091,590.885 673.004,591.429 670.285,593.604 669.741,596.867 670.828,598.499 
		673.548,598.499 676.267,593.06 	"/>
	<polygon points="662.127,556.08 658.32,554.448 655.601,553.904 654.513,556.624 653.426,556.624 650.707,558.255 651.25,562.062 
		653.97,564.781 656.145,565.325 657.776,563.693 659.245,560.757 659.408,560.974 660.496,558.255 661.583,559.343 
		662.671,559.343 	"/>
	<polygon points="591.973,198.238 594.692,198.238 596.867,197.151 599.586,193.888 599.586,190.625 595.78,188.993 
		590.885,188.993 589.254,189.537 588.71,192.256 589.797,195.519 	"/>
	<polygon points="91.647,445.138 88.928,443.507 86.209,446.226 86.753,450.033 89.472,451.12 91.647,449.489 	"/>
	<polygon points="588.71,219.992 584.903,216.729 582.184,216.729 581.64,217.272 582.184,219.448 585.447,223.255 587.622,223.798 
		589.254,222.167 	"/>
	<polygon points="693.669,419.034 692.038,417.403 688.775,417.403 685.512,419.578 684.968,421.209 690.406,422.297 
		692.582,421.753 	"/>
	<polygon points="609.919,241.745 609.375,243.92 612.094,246.639 615.357,246.095 615.901,242.289 615.357,241.745 
		612.094,240.657 	"/>
	<polygon points="619.164,659.952 618.077,661.583 617.533,665.39 618.62,667.022 621.34,667.022 622.427,665.39 622.427,662.127 
		621.34,660.496 	"/>
	<polygon points="620.252,604.481 618.62,605.569 618.62,608.832 619.164,609.375 622.971,609.919 624.059,608.832 624.603,605.569 
		623.515,604.481 	"/>
	<polygon points="655.601,575.114 655.601,578.377 653.97,578.377 653.099,578.957 652.882,578.921 652.338,579.465 652.882,581.64 
		655.601,582.184 658.32,580.552 658.864,577.289 656.145,574.57 	"/>
	<polygon points="733.913,358.669 733.913,354.862 732.825,353.23 732.009,352.958 731.738,352.687 731.66,352.842 729.562,352.143 
		728.203,352.687 727.931,352.687 726.843,353.23 724.124,355.406 723.58,358.125 723.761,357.944 723.58,359.213 724.668,360.3 
		727.931,361.932 731.738,361.388 	"/>
	<polygon points="687.687,523.45 686.599,519.643 684.424,519.099 681.705,519.643 681.161,521.818 683.88,523.994 687.143,524.538 
			"/>
	<polygon points="473.961,670.828 473.417,674.091 475.049,678.442 477.224,678.442 477.768,675.723 475.593,670.828 	"/>
	<polygon points="719.229,287.427 719.773,283.62 719.229,283.076 716.51,282.532 715.423,283.076 714.879,286.883 715.966,287.971 
			"/>
	<polygon points="632.76,175.397 633.848,174.31 634.392,170.503 633.848,169.959 631.129,169.959 629.497,171.591 629.497,174.31 
		630.041,174.854 	"/>
	<polygon points="516.924,636.023 515.292,636.567 513.661,639.286 513.661,642.549 515.292,645.268 518.012,645.268 
		519.643,645.268 520.731,644.181 520.731,639.286 519.643,636.567 	"/>
	<polygon points="218.36,649.619 217.816,650.163 216.185,652.882 216.729,655.057 219.448,655.601 221.079,653.97 220.535,650.163 
			"/>
	<polygon points="554.448,658.864 553.904,659.408 553.904,662.127 555.536,665.934 557.711,666.478 557.711,662.127 
		556.624,659.408 	"/>
	<polygon points="738.264,396.737 735.001,398.912 735.544,401.088 738.807,400.544 740.983,398.912 742.07,396.737 
		739.895,396.193 	"/>
	<polygon points="145.487,576.202 143.855,578.921 144.399,582.184 146.03,582.184 147.662,580.008 148.206,575.658 
		146.574,575.658 	"/>
	<polygon points="265.673,743.158 264.586,749.684 265.673,749.684 268.393,745.333 268.936,742.07 266.761,741.527 	"/>
	<polygon points="599.043,209.115 599.586,206.396 598.499,205.308 595.78,204.764 594.692,206.396 595.236,209.659 
		598.499,209.659 	"/>
	<polygon points="686.056,124.277 688.775,123.189 688.775,119.383 686.599,118.295 685.512,118.839 684.424,121.014 
		684.968,123.733 	"/>
	<polygon points="553.361,650.163 551.729,650.707 550.098,652.338 550.098,652.338 549.01,653.426 548.466,656.689 
		550.098,657.776 554.448,658.32 557.167,656.145 557.711,652.338 556.624,650.707 	"/>
	<polygon points="223.255,621.34 222.167,620.252 219.448,619.708 217.816,621.883 218.36,623.515 221.079,624.603 222.711,624.059 
			"/>
	<polygon points="483.206,614.27 483.206,617.533 484.294,620.796 486.469,620.796 486.469,615.358 483.75,613.726 	"/>
	<polygon points="596.867,240.657 598.499,239.026 597.955,235.763 594.692,235.763 593.604,236.85 594.148,239.57 	"/>
	<polygon points="545.203,652.338 542.484,651.25 541.396,651.794 540.853,655.601 543.028,656.689 545.203,655.057 	"/>
	<polygon points="69.35,386.948 67.719,387.492 67.408,387.725 66.631,388.036 66.413,388.471 65.543,389.123 64.999,392.93 
		68.262,397.825 70.982,398.368 72.613,397.281 74.788,394.018 74.788,390.755 73.157,389.123 	"/>
	<polygon points="163.977,401.632 163.433,400 160.714,398.912 158.539,401.088 159.082,403.807 161.258,403.807 	"/>
	<polygon points="271.112,714.335 270.568,716.51 273.287,717.598 276.006,715.966 276.55,713.247 274.919,713.247 	"/>
	<polygon points="656.689,550.098 656.689,547.378 654.513,546.291 651.794,547.922 652.338,550.641 656.145,550.641 	"/>
	<polygon points="775.244,365.739 772.525,362.476 768.174,358.669 761.648,357.037 754.578,356.493 745.768,358.125 
		744.79,358.125 742.07,358.669 741.897,358.842 739.895,359.213 731.738,364.107 729.018,367.914 729.018,370.633 728.475,376.615 
		729.562,377.159 731.738,376.615 734.457,376.615 735.544,380.422 736.632,380.966 742.614,380.966 744.79,381.51 760.017,384.773 
		763.28,384.229 768.718,382.597 769.806,381.51 776.332,375.528 776.332,371.177 	"/>
	<polygon points="597.955,180.836 600.13,181.379 603.393,177.029 602.849,175.397 600.674,175.397 598.499,178.66 	"/>
	<polygon points="596.867,141.136 598.499,139.504 597.955,136.785 595.78,136.241 594.148,137.873 594.692,140.592 	"/>
	<polygon points="668.653,616.445 667.022,618.077 668.109,620.252 670.828,620.252 673.004,619.164 671.916,616.989 	"/>
	<polygon points="593.06,603.393 593.604,600.13 591.429,599.586 589.254,602.306 589.797,604.481 591.429,605.025 	"/>
	<polygon points="582.184,181.379 580.552,183.011 581.64,185.73 584.359,185.73 585.447,184.643 584.359,181.923 	"/>
	<polygon points="587.622,207.483 588.166,204.764 583.815,204.764 582.728,205.308 583.271,207.483 587.078,208.027 	"/>
	<polygon points="582.728,171.047 584.359,169.959 584.359,167.24 583.815,166.696 581.096,166.696 580.008,167.784 
		580.552,170.503 	"/>
	<polygon points="600.674,655.057 601.218,652.338 598.499,651.794 596.867,652.882 596.323,655.057 600.13,655.601 	"/>
	<polygon points="117.207,474.505 118.295,473.417 118.839,470.698 117.751,469.067 114.488,468.523 112.857,469.611 
		112.313,472.874 113.4,473.961 	"/>
	<polygon points="674.635,618.077 674.635,619.708 681.161,619.708 682.249,619.164 682.249,618.077 675.179,617.533 	"/>
	<polygon points="445.138,750.228 444.05,751.316 444.05,754.035 445.682,755.666 447.313,755.122 447.313,751.859 446.77,750.772 	
		"/>
	<polygon points="227.061,644.724 226.518,642.005 224.342,641.461 222.711,642.549 223.255,645.268 226.518,645.268 	"/>
	<polygon points="655.057,632.216 654.513,632.76 654.513,635.479 655.057,636.023 657.233,636.567 658.32,635.479 657.776,632.76 	
		"/>
	<polygon points="90.56,404.351 90.016,401.632 87.297,401.088 86.753,401.632 86.209,403.807 87.297,404.895 90.016,404.895 	"/>
	<polygon points="650.707,669.197 647.987,668.653 648.531,671.916 651.25,674.635 653.426,675.179 651.25,673.004 	"/>
	<polygon points="554.448,627.866 553.904,628.409 553.904,631.129 555.536,632.216 558.255,631.129 557.711,628.953 	"/>
	<polygon points="161.802,465.804 166.152,466.891 167.784,465.26 167.24,462.541 165.608,461.997 165.065,462.541 162.345,462.541 
		160.17,462.541 157.995,463.628 158.539,465.804 	"/>
	<polygon points="151.605,438.748 149.837,436.981 148.931,437.162 148.206,436.981 147.118,437.524 147.118,440.244 
		148.206,445.682 153.644,446.226 154.097,445.319 154.188,445.682 154.732,444.05 160.17,445.682 161.258,447.313 161.418,447.345 
		161.802,447.857 162.988,447.659 163.977,447.857 164.702,447.374 165.065,447.313 164.867,447.264 165.608,446.77 166.152,446.77 
		166.696,446.226 167.24,445.682 167.077,444.703 167.24,444.05 166.96,444.004 166.696,442.419 167.784,442.419 170.503,442.419 
		170.949,441.861 171.047,441.875 172.678,439.7 172.678,434.261 172.134,433.174 172.134,433.174 171.59,432.086 170.503,427.735 
		169.415,426.648 162.889,426.648 161.258,429.911 161.258,434.261 160.533,434.443 160.17,434.261 159.082,434.805 
		155.819,435.893 155.819,436.029 154.732,436.437 154.252,437.237 154.188,436.981 153.644,437.524 153.704,437.947 
		153.15,439.057 	"/>
	<polygon points="590.341,639.286 590.885,642.005 593.604,642.005 594.148,641.461 594.148,638.742 591.429,638.198 	"/>
	<polygon points="102.524,433.174 100.892,434.805 101.436,436.437 104.155,436.981 105.243,435.893 104.699,433.718 	"/>
	<polygon points="651.794,197.151 653.426,197.694 653.97,196.607 654.513,192.8 652.338,192.8 651.25,193.888 	"/>
	<polygon points="458.734,738.264 458.734,742.07 460.365,745.333 461.453,745.333 461.453,742.614 459.822,738.264 	"/>
	<polygon points="603.393,661.039 602.849,658.32 600.13,658.32 599.586,661.039 601.218,662.127 	"/>
	<polygon points="136.785,481.575 138.961,481.031 138.961,478.312 136.241,477.768 135.154,479.943 	"/>
	<polygon points="119.383,459.822 119.383,462.541 122.102,463.085 123.189,461.453 122.646,459.822 120.47,459.278 	"/>
	<polygon points="692.038,456.015 693.669,457.646 695.301,456.015 696.388,453.296 694.213,452.752 	"/>
	<polygon points="738.807,411.42 738.807,408.701 737.176,408.158 736.088,408.701 735.544,411.964 736.632,412.508 	"/>
	<polygon points="738.807,434.261 736.088,434.261 735.544,434.805 735.544,436.981 737.72,437.524 739.351,435.893 	"/>
	<polygon points="650.163,586.534 649.619,583.271 647.444,582.728 646.9,585.447 649.075,587.078 	"/>
	<polygon points="686.056,594.692 684.968,595.78 684.424,598.499 685.149,599.224 684.968,599.586 686.599,600.674 
		689.319,599.586 689.862,596.867 688.775,595.78 	"/>
	<polygon points="318.425,47.053 320.057,44.334 319.513,42.702 317.881,42.702 316.25,44.878 316.794,46.509 	"/>
	<polygon points="594.692,225.43 595.78,222.711 593.604,222.167 591.973,223.255 592.517,225.43 	"/>
	<polygon points="252.621,702.371 252.621,705.09 253.165,705.634 255.341,705.634 255.341,702.371 253.709,701.827 	"/>
	<polygon points="610.463,184.643 611.551,181.379 613.182,180.836 613.182,179.204 611.007,178.66 609.919,179.204 
		607.744,181.923 607.2,184.099 608.288,185.186 	"/>
	<rect x="668.354" y="164.222" transform="matrix(0.1961 -0.9806 0.9806 0.1961 376.0106 789.869)" width="2.773" height="2.773"/>
	<polygon points="614.814,162.889 612.094,162.345 611.551,162.889 611.551,165.608 614.27,165.608 	"/>
	<polygon points="611.551,676.267 609.375,679.53 609.919,682.249 613.182,683.88 615.357,683.337 616.445,681.705 616.663,680.617 
		616.989,680.617 616.989,678.986 615.357,676.811 	"/>
	<polygon points="640.374,611.551 640.918,613.726 643.637,613.182 643.637,610.463 641.461,610.463 	"/>
	<polygon points="631.129,662.127 631.672,664.302 633.848,663.759 634.392,661.039 632.76,660.496 	"/>
	<polygon points="572.939,660.496 572.939,658.864 571.307,655.601 569.132,654.513 568.588,655.057 568.588,657.776 
		569.676,661.039 572.395,663.215 574.026,665.934 576.745,666.478 577.289,665.39 577.289,661.583 576.745,660.496 	"/>
	<polygon points="585.991,606.112 585.447,608.832 587.622,608.832 588.166,606.112 586.534,605.569 	"/>
	<polygon points="582.728,597.411 582.184,599.043 583.815,600.674 584.903,600.13 585.447,597.955 	"/>
	<polygon points="341.81,50.86 339.635,50.86 339.091,51.404 339.091,54.123 341.266,53.579 	"/>
	<polygon points="111.769,481.031 111.769,478.312 109.594,478.312 109.05,478.856 109.594,481.031 	"/>
	<polygon points="545.747,657.776 545.203,660.496 547.378,659.952 547.922,657.776 546.291,657.233 	"/>
	<polygon points="589.254,623.515 591.429,624.059 592.517,621.883 590.341,621.34 589.254,621.883 	"/>
	<polygon points="603.393,146.574 601.762,145.487 600.674,146.03 600.674,148.206 602.849,148.75 	"/>
	<polygon points="696.388,116.663 694.213,115.576 693.669,118.295 695.845,118.839 	"/>
	<polygon points="502.24,615.901 500.065,614.814 500.609,618.62 501.697,618.62 	"/>
	<polygon points="98.173,439.156 97.629,441.331 99.805,441.875 100.348,439.7 98.717,438.612 	"/>
	<polygon points="100.348,358.669 98.173,358.669 97.629,360.844 100.348,361.388 	"/>
	<polygon points="41.615,445.682 44.334,446.226 44.878,444.05 42.158,444.05 	"/>
	<polygon points="454.927,718.686 453.296,718.142 452.208,718.686 452.208,720.317 454.383,720.861 	"/>
	<polygon points="601.762,663.215 601.218,665.39 603.393,665.39 603.937,663.215 602.306,662.671 	"/>
	<polygon points="66.631,432.086 68.806,432.63 69.35,429.911 67.719,429.911 	"/>
	<polygon points="662.671,568.044 662.671,569.676 664.846,570.219 665.39,568.044 663.759,567.5 	"/>
	<polygon points="173.222,386.948 171.59,386.404 170.503,386.948 170.503,388.58 172.678,389.123 	"/>
	<polygon points="584.359,173.766 586.534,173.766 587.078,172.134 584.903,171.047 	"/>
	<polygon points="440.244,725.755 438.068,725.212 438.068,726.843 440.244,727.931 	"/>
	<polygon points="689.319,451.12 692.038,451.664 692.038,450.033 689.319,449.489 	"/>
	<polygon points="683.88,428.823 686.599,429.367 687.143,427.735 684.968,427.192 	"/>
	<polygon points="589.797,686.6 589.797,689.319 591.429,689.319 591.429,686.056 590.341,686.056 	"/>
	<polygon points="686.056,461.453 687.687,462.541 688.775,460.365 686.599,459.822 	"/>
	<polygon points="597.411,173.222 599.586,173.766 600.13,172.134 597.411,171.591 	"/>
	<polygon points="581.64,615.901 583.815,615.901 584.359,613.726 582.728,613.726 	"/>
	<polygon points="585.991,239.026 587.622,239.57 588.166,237.394 585.991,236.85 	"/>
	<polygon points="655.057,698.564 657.233,699.108 657.233,696.932 655.057,696.932 	"/>
	<polygon points="635.479,657.776 637.111,658.864 637.655,656.145 636.023,656.145 	"/>
	<polygon points="644.724,589.797 643.637,591.973 645.268,592.517 646.356,590.341 	"/>
	<polygon points="739.351,458.19 741.527,459.278 742.07,457.102 739.895,457.102 	"/>
	<polygon points="79.683,439.7 79.139,441.875 80.771,441.875 81.314,439.7 80.227,439.156 	"/>
	<polygon points="456.015,681.161 457.646,681.161 457.102,678.442 456.015,678.442 	"/>
	<polygon points="680.617,459.822 682.793,460.365 683.336,458.734 681.705,458.19 680.617,458.734 	"/>
	<polygon points="164.521,420.666 163.977,418.49 162.889,418.49 162.345,419.034 162.889,421.209 	"/>
	<polygon points="156.363,427.735 155.819,429.367 157.995,429.911 157.995,428.279 	"/>
	<polygon points="693.669,409.789 695.845,410.333 696.388,408.701 694.757,408.158 	"/>
	<polygon points="129.172,372.808 126.996,372.808 126.452,374.44 128.628,374.44 	"/>
	<polygon points="216.185,645.268 218.36,644.724 217.816,643.093 216.729,643.093 	"/>
	<rect x="110.365" y="456.242" transform="matrix(0.3162 -0.9487 0.9487 0.3162 -357.5931 418.0758)" width="1.72" height="1.72"/>
	<rect x="700.195" y="446.226" width="2.175" height="1.632"/>
	<rect x="107.102" y="441.559" transform="matrix(0.3162 -0.9487 0.9487 0.3162 -345.8936 404.9313)" width="1.72" height="1.72"/>
	<polygon points="101.436,414.683 102.524,414.683 103.611,412.508 101.98,412.508 	"/>
	<rect x="600.13" y="253.709" width="2.175" height="1.631"/>
	<polygon points="662.671,650.163 664.302,650.163 664.302,647.987 663.215,647.987 	"/>
	<polygon points="106.874,415.227 106.874,413.052 105.243,412.508 105.787,415.227 	"/>
	<polygon points="108.506,329.302 107.418,329.302 106.874,331.477 108.506,331.477 	"/>
	<polygon points="597.955,185.186 597.411,187.362 598.499,187.362 599.586,185.73 	"/>
	<polygon points="704.002,533.239 705.634,533.239 706.177,532.151 704.002,531.607 	"/>
	<polygon points="698.02,470.154 700.195,470.698 700.195,469.067 698.564,469.067 	"/>
	<polygon points="601.762,236.85 600.13,236.85 599.586,237.938 601.762,238.482 	"/>
	<polygon points="645.812,667.022 646.9,667.022 646.9,664.302 646.356,664.302 	"/>
	<polygon points="607.2,647.987 608.288,648.531 608.832,646.356 607.744,646.356 	"/>
	<polygon points="200.414,645.812 202.589,646.356 202.589,645.268 200.957,644.724 	"/>
	<polygon points="633.848,259.147 634.392,256.972 633.304,256.972 632.76,258.604 	"/>
	<polygon points="656.689,655.057 657.776,655.057 658.32,653.426 656.689,653.426 	"/>
	<polygon points="531.064,639.286 532.695,639.286 532.695,638.198 531.064,637.655 	"/>
	<rect x="683.88" y="481.031" width="2.175" height="1.088"/>
	<rect x="175.397" y="447.857" width="1.088" height="2.175"/>
	<polygon points="754.035,442.963 755.666,443.507 756.21,442.419 754.578,441.875 	"/>
	<polygon points="669.741,227.061 670.828,227.061 671.372,225.43 669.741,225.43 	"/>
	<polygon points="627.866,652.338 628.953,652.338 629.497,651.25 627.866,650.707 	"/>
	<polygon points="72.613,432.086 74.245,432.086 74.245,430.998 73.157,430.455 	"/>
	<rect x="234.131" y="629.497" width="1.088" height="1.632"/>
	<rect x="633.848" y="606.656" width="1.088" height="1.632"/>
	<polygon points="754.035,477.224 755.666,476.68 754.578,475.593 	"/>
	<polygon points="157.451,456.559 156.907,457.102 157.995,458.19 158.539,456.559 	"/>
	<rect x="119.383" y="399.456" width="1.631" height="1.088"/>
	<polygon points="161.258,423.929 161.258,425.56 162.345,425.56 162.345,424.472 	"/>
	<polygon points="167.784,383.685 168.327,385.317 168.871,383.685 	"/>
	<polygon points="75.332,332.021 76.964,332.565 76.964,331.477 75.876,331.477 	"/>
	<rect x="428.823" y="725.212" width="1.088" height="1.088"/>
	<rect x="593.06" y="660.496" width="1.088" height="1.088"/>
	<polygon points="249.359,660.496 250.99,660.496 249.359,659.952 	"/>
	<polygon points="231.956,587.078 231.956,587.622 233.587,587.622 	"/>
	<rect x="217.272" y="583.271" width="1.088" height="1.088"/>
	<rect x="681.161" y="433.174" width="1.088" height="1.088"/>
	<polygon points="585.447,211.834 584.359,210.746 584.359,212.378 	"/>
	<rect x="635.479" y="138.417" width="1.088" height="1.088"/>
	<rect x="326.583" y="37.808" width="1.088" height="1.088"/>
	<polygon points="71.525,476.68 72.613,476.137 71.525,475.593 	"/>
	<polygon points="62.824,432.086 63.368,430.998 62.28,430.998 	"/>
</g>
</svg>
