<?xml version="1.0" encoding="UTF-8"?>
<svg xmlns="http://www.w3.org/2000/svg" width="65" height="57" viewBox="0 0 65 57" fill="none">
  <path d="M65 39C65 48.9411 56.9411 57 47 57L20 57C17.2386 57 15 54.7614 15 52L15 18C15 12.4772 19.4772 8 25 8L60 8C62.7614 8 65 10.2386 65 13L65 39Z" fill="#FF9480"></path>
  <g clip-path="url(#clip0_37_21965)">
    <path d="M8.33333 38.6667C8.33333 39.403 8.93029 40 9.66667 40H31C31.7364 40 32.3333 39.403 32.3333 38.6667V24.1733L32.4267 24.46C32.5663 24.9444 32.9909 25.2921 33.4933 25.3333H34.3333H35.1733C35.6687 25.2961 36.0913 24.9606 36.24 24.4867L36.9467 22.2733C37.7563 22.0554 38.534 21.7326 39.26 21.3133L41.32 22.38C41.7561 22.5999 42.2816 22.5368 42.6533 22.22C42.86 22.04 43.06 21.8533 43.2667 21.6467C43.4733 21.44 43.6533 21.2467 43.8333 21.04C44.1502 20.6683 44.2132 20.1428 43.9933 19.7067L42.9267 17.6467C43.346 16.9206 43.6687 16.1429 43.8867 15.3333L46.1 14.6267C46.6136 14.4876 46.9778 14.0316 47 13.5C47 13.2267 47 12.9533 47 12.6667C47 12.38 47 12.1067 47 11.8267C46.9627 11.3313 46.6273 10.9087 46.1533 10.76L43.94 10.0533C43.722 9.24373 43.3993 8.46605 42.98 7.74L44.0467 5.68C44.2666 5.24386 44.2035 4.71839 43.8867 4.34666C43.7067 4.14 43.52 3.94 43.3133 3.73333C43.1067 3.52666 42.9133 3.34666 42.7067 3.16666C42.3349 2.84982 41.8095 2.78676 41.3733 3.00666L39.3133 4.07333C38.5873 3.65403 37.8096 3.3313 37 3.11333L36.24 0.873331C36.1004 0.388885 35.6758 0.041231 35.1733 -2.15322e-06C34.614 -0.0400078 34.0526 -0.0400078 33.4933 -2.15322e-06C32.998 0.0372604 32.5754 0.3727 32.4267 0.846665L31.72 3.08666C30.9104 3.30463 30.1327 3.62736 29.4067 4.04666L27.3467 2.98C26.9105 2.7601 26.3851 2.82315 26.0133 3.14C25.8067 3.32 25.6067 3.50666 25.4 3.71333C25.1933 3.92 25.0133 4.11333 24.8333 4.32C24.5165 4.69172 24.4534 5.2172 24.6733 5.65333L25.74 7.71333C25.3207 8.43938 24.998 9.21706 24.78 10.0267L22.8267 10.6667H8.33333C7.59695 10.6667 7 11.2636 7 12V13.3333C7 14.0697 7.59695 14.6667 8.33333 14.6667V38.6667ZM17.6667 32H23V38.6667H17.6667V32ZM23 12L25.4867 11.2067C25.7111 11.1348 25.8809 10.9498 25.9333 10.72C26.1514 9.7978 26.5184 8.91735 27.02 8.11333C27.1496 7.91307 27.1623 7.65885 27.0533 7.44666L25.8667 5.13333C26.0133 4.97333 26.16 4.80666 26.3133 4.65333C26.4667 4.5 26.64 4.34666 26.8 4.2L29.12 5.40666C29.3263 5.52575 29.5804 5.52575 29.7867 5.40666C30.5907 4.90511 31.4711 4.53806 32.3933 4.32C32.6231 4.26759 32.8081 4.09777 32.88 3.87333L33.6667 1.33333C34.1107 1.30612 34.556 1.30612 35 1.33333L35.7933 3.82C35.8652 4.04444 36.0502 4.21426 36.28 4.26666C37.2022 4.48473 38.0827 4.85177 38.8867 5.35333C39.0929 5.47242 39.3471 5.47242 39.5533 5.35333L41.8667 4.2C42.0267 4.34666 42.1933 4.49333 42.3467 4.64666C42.5 4.8 42.6533 4.96666 42.8 5.13333L41.5933 7.45333C41.4742 7.6596 41.4742 7.91373 41.5933 8.12C42.0949 8.92402 42.4619 9.80447 42.68 10.7267C42.7324 10.9564 42.9022 11.1415 43.1267 11.2133L45.6667 12V12.6667V13.3333L43.18 14.1267C42.9556 14.1985 42.7857 14.3836 42.7333 14.6133C42.5153 15.5355 42.1482 16.416 41.6467 17.22C41.5276 17.4263 41.5276 17.6804 41.6467 17.8867L42.8 20.2C42.6533 20.36 42.5067 20.5267 42.3533 20.68C42.2 20.8333 42.0267 20.9867 41.8667 21.1333L39.5467 19.9267C39.3345 19.8177 39.0803 19.8304 38.88 19.96C38.076 20.4616 37.1955 20.8286 36.2733 21.0467C36.0436 21.0991 35.8585 21.2689 35.7867 21.4933L35 24C34.556 24.0272 34.1107 24.0272 33.6667 24L32.8733 21.5133C32.8015 21.2889 32.6164 21.1191 32.3867 21.0667C31.4645 20.8486 30.584 20.4816 29.78 19.98C29.5797 19.8504 29.3255 19.8377 29.1133 19.9467L26.8 21.1333C26.64 20.9867 26.4733 20.84 26.32 20.6867C26.1667 20.5333 26.0133 20.3667 25.8667 20.2L27.0733 17.88C27.1823 17.6678 27.1696 17.4136 27.04 17.2133C26.5384 16.4093 26.1714 15.5289 25.9533 14.6067C25.9009 14.3769 25.7311 14.1919 25.5067 14.12L23 13.3333C23 13.12 23 12.8978 23 12.6667C23 12.4356 23 12.2133 23 12ZM8.33333 12H21.6667V12.6667V13.3333H8.33333V12ZM22.8267 14.6667L24.7533 15.28C24.9713 16.0896 25.294 16.8673 25.7133 17.5933L24.6467 19.6533C24.4268 20.0895 24.4898 20.6149 24.8067 20.9867C24.9867 21.1933 25.1733 21.3933 25.38 21.6C25.5867 21.8067 25.78 21.9867 25.9867 22.1667C26.3584 22.4835 26.8839 22.5466 27.32 22.3267L29.38 21.26C29.8949 21.5583 30.4374 21.8061 31 22V38.6667H24.3333V32H25C25.3682 32 25.6667 31.7015 25.6667 31.3333C25.6667 30.9651 25.3682 30.6667 25 30.6667H15.6667C15.2985 30.6667 15 30.9651 15 31.3333C15 31.7015 15.2985 32 15.6667 32H16.3333V38.6667H9.66667V14.6667H22.8267Z" fill="#801401"></path>
    <path d="M15 24H12.3333C11.597 24 11 24.597 11 25.3333V28C11 28.7364 11.597 29.3333 12.3333 29.3333H15C15.7364 29.3333 16.3333 28.7364 16.3333 28V25.3333C16.3333 24.597 15.7364 24 15 24ZM12.3333 28V25.3333H15V28H12.3333Z" fill="#801401"></path>
    <path d="M21.6667 24H19C18.2636 24 17.6667 24.597 17.6667 25.3333V28C17.6667 28.7364 18.2636 29.3333 19 29.3333H21.6667C22.4031 29.3333 23 28.7364 23 28V25.3333C23 24.597 22.4031 24 21.6667 24ZM19 28V25.3333H21.6667V28H19Z" fill="#801401"></path>
    <path d="M24.3333 28C24.3333 28.7364 24.9303 29.3333 25.6667 29.3333H28.3333C29.0697 29.3333 29.6667 28.7364 29.6667 28V25.3333C29.6667 24.597 29.0697 24 28.3333 24H25.6667C24.9303 24 24.3333 24.597 24.3333 25.3333V28ZM25.6667 25.3333H28.3333V28H25.6667V25.3333Z" fill="#801401"></path>
    <path d="M11 20.6667C11 21.403 11.597 22 12.3333 22H15C15.7364 22 16.3333 21.403 16.3333 20.6667V18C16.3333 17.2636 15.7364 16.6667 15 16.6667H12.3333C11.597 16.6667 11 17.2636 11 18V20.6667ZM15 18V20.6667H12.3333V18H15Z" fill="#801401"></path>
    <path d="M17.6667 20.6667C17.6667 21.403 18.2636 22 19 22H21.6667C22.4031 22 23 21.403 23 20.6667V18C23 17.2636 22.4031 16.6667 21.6667 16.6667H19C18.2636 16.6667 17.6667 17.2636 17.6667 18V20.6667ZM21.6667 18V20.6667H19V18H21.6667Z" fill="#801401"></path>
    <path d="M34.3333 20C38.3834 20 41.6667 16.7168 41.6667 12.6667C41.6667 8.61657 38.3834 5.33333 34.3333 5.33333C30.2832 5.33333 27 8.61657 27 12.6667C27 16.7168 30.2832 20 34.3333 20ZM33 18.5133V16.1267C33.0009 15.8875 32.8738 15.6662 32.6667 15.5467C31.6998 14.9862 31.0781 13.9784 31.0111 12.8628C30.944 11.7472 31.4405 10.6723 32.3333 10V12C32.3362 12.3534 32.4746 12.6923 32.72 12.9467L33.3867 13.6133C33.9183 14.1145 34.7484 14.1145 35.28 13.6133L35.9467 12.9467C36.1932 12.693 36.3318 12.3537 36.3333 12V10C37.231 10.6687 37.7331 11.7433 37.67 12.8609C37.607 13.9785 36.9872 14.9898 36.02 15.5533C35.8129 15.6729 35.6857 15.8942 35.6867 16.1333V18.52C34.8095 18.7245 33.8971 18.7245 33.02 18.52L33 18.5133ZM34.3333 6.66666C37.113 6.67424 39.5235 8.59004 40.1584 11.2962C40.7933 14.0024 39.4863 16.7903 37 18.0333V16.4933C38.2321 15.6328 38.9743 14.2317 38.9942 12.729C39.014 11.2263 38.3089 9.80603 37.1 8.91333C36.7068 8.64129 36.1981 8.60059 35.7667 8.80666C35.3032 9.02424 35.0052 9.48801 35 10V12L34.3333 12.6667L33.6667 12V10C33.6689 9.49163 33.3819 9.02621 32.9267 8.79999C32.4941 8.59587 31.9853 8.63912 31.5933 8.91333C30.3814 9.80179 29.6714 11.2195 29.686 12.7221C29.7005 14.2248 30.4378 15.6285 31.6667 16.4933V18.0333C29.2184 16.7721 27.943 14.0061 28.5738 11.3252C29.2046 8.64435 31.5795 6.73718 34.3333 6.7V6.66666Z" fill="#801401"></path>
  </g>
  <defs>
    <clipPath id="clip0_37_21965">
      <rect width="40" height="40" fill="white" transform="translate(7)"></rect>
    </clipPath>
  </defs>
</svg>
