<?xml version="1.0" encoding="UTF-8"?>
<svg xmlns="http://www.w3.org/2000/svg" width="66" height="57" viewBox="0 0 66 57" fill="none">
  <path d="M65.5 39C65.5 48.9411 57.4411 57 47.5 57L20.5 57C17.7386 57 15.5 54.7614 15.5 52L15.5 18C15.5 12.4772 19.9772 8 25.5 8L60.5 8C63.2614 8 65.5 10.2386 65.5 13L65.5 39Z" fill="#FF9480"></path>
  <g clip-path="url(#clip0_37_21936)">
    <path d="M19.6277 24.8785H17.2821C16.5515 24.8785 15.957 24.2843 15.957 23.5534V22.246C15.957 22.1688 15.9024 22.102 15.8215 22.0797C15.0083 21.8582 14.224 21.5322 13.4906 21.1114C13.4241 21.0733 13.3457 21.0809 13.2959 21.1306L12.3621 22.0645C12.1118 22.3147 11.7792 22.4523 11.4252 22.4523C11.0715 22.4523 10.7385 22.3147 10.4883 22.0645L8.82968 20.4058C8.57943 20.1556 8.44149 19.8227 8.44149 19.469C8.44149 19.115 8.57943 18.782 8.82968 18.5321L9.76321 17.5982C9.81326 17.5485 9.82088 17.4701 9.78243 17.4035C9.3619 16.6702 9.03597 15.8859 8.81442 15.0726C8.79214 14.9917 8.72531 14.9371 8.6481 14.9371H7.34073C6.61014 14.9371 6.01566 14.3426 6.01566 13.612V11.2665C6.01566 10.5359 6.61014 9.94139 7.34073 9.94139H8.6481C8.72531 9.94139 8.79214 9.88706 8.81442 9.80589C9.03597 8.9929 9.3619 8.2086 9.78274 7.47496C9.82088 7.40843 9.81326 7.33 9.76351 7.28026L8.82968 6.34642C8.57943 6.09648 8.44149 5.76354 8.44149 5.40953C8.44149 5.05584 8.57943 4.72289 8.82968 4.47265L10.4883 2.81402C10.7385 2.56378 11.0712 2.42614 11.4252 2.42614C11.7792 2.42614 12.1121 2.56378 12.3624 2.81433L13.2959 3.74786C13.3457 3.7976 13.4238 3.80523 13.4906 3.76708C14.224 3.34625 15.0079 3.02062 15.8212 2.79876C15.9027 2.77648 15.957 2.70965 15.957 2.63244V1.32507C15.957 0.594481 16.5515 0 17.2821 0H19.6277C20.3583 0 20.9528 0.594481 20.9528 1.32507V2.63244C20.9528 2.70965 21.0071 2.77648 21.0883 2.79846C21.9012 3.02032 22.6855 3.34625 23.4189 3.76708C23.4857 3.80523 23.5638 3.7976 23.6139 3.74786L24.5474 2.81402C25.0653 2.29644 25.9036 2.29614 26.4215 2.81433L26.597 2.9898C27.1448 3.53729 26.3168 4.36675 25.7684 3.81835C25.6604 3.72497 25.5218 3.497 25.3763 3.64288L24.4424 4.57641C24.0201 4.99877 23.3594 5.08391 22.8357 4.78332C22.1887 4.41222 21.4969 4.12475 20.78 3.92913C20.1917 3.76891 19.7806 3.23547 19.7806 2.63214V1.32507C19.7806 1.24054 19.7119 1.17187 19.6274 1.17187H17.2818C17.1976 1.17187 17.1289 1.24054 17.1289 1.32507V2.63244C17.1289 3.23577 16.7178 3.76891 16.1295 3.92944C15.4123 4.12505 14.7205 4.41222 14.0735 4.78332C13.5501 5.08391 12.8894 4.99877 12.4671 4.57641L11.5335 3.64288C11.4963 3.60564 11.4542 3.59802 11.4252 3.59802C11.3962 3.59802 11.3541 3.60564 11.3172 3.64288L9.65823 5.3015C9.6213 5.33843 9.61337 5.38085 9.61337 5.40953C9.61337 5.43853 9.6213 5.48095 9.65823 5.51787L10.5921 6.45171C11.0144 6.87407 11.0996 7.53447 10.799 8.05815C10.4279 8.70543 10.1404 9.39695 9.94479 10.1141C9.78457 10.7025 9.25112 11.1133 8.6481 11.1133H7.34073C7.25619 11.1133 7.18753 11.1822 7.18753 11.2665V13.612C7.18753 13.6966 7.25619 13.7652 7.34073 13.7652H8.6481C9.25112 13.7652 9.78457 14.176 9.94509 14.7644C10.1404 15.4818 10.4279 16.1734 10.799 16.8203C11.0996 17.344 11.0144 18.0044 10.5921 18.4268L9.65853 19.3606C9.6213 19.3975 9.61367 19.44 9.61367 19.469C9.61367 19.4976 9.62161 19.5401 9.65853 19.5773L11.3172 21.2356C11.377 21.2954 11.474 21.2957 11.5338 21.2356L12.4674 20.3021C12.8897 19.8797 13.5504 19.7946 14.0741 20.0952C14.7211 20.4663 15.4126 20.7537 16.1298 20.9494C16.7181 21.1096 17.1292 21.643 17.1292 22.2464V23.5534C17.1292 23.638 17.1979 23.7066 17.2821 23.7066H19.6277C19.7122 23.7066 19.7809 23.638 19.7809 23.5534V22.2464C19.7809 21.643 20.192 21.1096 20.7803 20.9494C21.5289 20.7455 21.8359 21.8762 21.0886 22.0797C21.0074 22.102 20.9528 22.1688 20.9528 22.2464V23.5534C20.9528 24.284 20.3583 24.8785 19.6277 24.8785Z" fill="#801401"></path>
    <path d="M12.9325 12.4392C12.9325 8.56474 16.8283 5.9088 20.4184 7.2766C21.142 7.55278 20.726 8.64805 20.0009 8.37187C17.1677 7.29185 14.104 9.39512 14.104 12.4392C14.104 14.9154 16.1896 16.9302 18.7146 16.7822C19.4867 16.7355 19.559 17.9065 18.7836 17.9522C15.5997 18.1396 12.9325 15.6006 12.9325 12.4392Z" fill="#801401"></path>
    <path d="M38.4405 26.0195L32.5037 24.8651V23.3981C34.1708 22.2607 35.0735 20.65 35.2701 18.8409C36.1355 18.7722 36.8185 18.0462 36.8185 17.1637V15.9594C38.2294 15.346 38.0389 13.287 36.5463 12.9397V12.475C36.5463 8.29619 33.1586 4.90844 28.9801 4.90844H28.3456C24.1669 4.90844 20.7794 8.29619 20.7794 12.4746V12.9397C19.2874 13.2867 19.0958 15.346 20.5072 15.9594V17.1637C20.5072 18.0462 21.1902 18.7722 22.0557 18.8409C22.2272 20.4193 22.9669 21.864 24.1339 22.8686C24.3573 23.0612 24.5868 23.2376 24.8221 23.3981V24.8651L18.8852 26.0195C15.7529 26.6287 13.3115 28.3944 13.3115 31.6525V37.6122C13.3115 38.9309 14.3805 39.9999 15.6992 39.9999H41.6266C42.9452 39.9999 44.0143 38.9309 44.0143 37.6122V31.6525C44.0143 28.4051 41.5878 26.6314 38.4405 26.0195ZM33.5635 26.2649C33.1381 26.8835 32.4878 27.8277 31.7853 28.8445C31.499 29.2593 30.9854 29.3121 30.7846 29.1918L29.859 28.6367C30.7617 28.1036 32.0108 27.1881 32.3898 26.0366L33.5635 26.2649ZM28.6627 27.9534C27.7728 27.5054 25.9988 26.3986 25.994 25.3524C25.994 25.3509 25.994 25.3494 25.994 25.3479V24.0451C27.6993 24.7805 29.6243 24.7814 31.3318 24.0451V25.3479C31.3318 26.3958 29.5535 27.5051 28.6627 27.9534ZM21.9513 12.4746C21.9513 10.0711 23.2843 7.97301 25.2499 6.88109V7.61565C25.2499 8.39018 26.4218 8.3914 26.4218 7.61565V6.37603C26.9476 6.20971 27.5024 6.10991 28.0768 6.08611V8.98344C28.0768 9.75798 29.2487 9.7592 29.2487 8.98344V6.08611C29.823 6.10991 30.3781 6.20971 30.9039 6.37603V7.61565C30.9039 8.39018 32.0758 8.3914 32.0758 7.61565V6.88109C34.0414 7.97301 35.3744 10.0711 35.3744 12.4746V12.8982H21.9513V12.4746ZM21.1414 14.0701H36.1844C36.7459 14.0701 36.7453 14.9188 36.1844 14.9188H21.1414C20.5795 14.9188 20.5802 14.0701 21.1414 14.0701ZM23.1903 18.2476C23.1836 17.929 22.9233 17.6742 22.6044 17.6742C22.5067 17.6501 21.6788 17.8265 21.6788 17.1637V16.091H35.6467V17.1637C35.6467 17.8253 34.7967 17.6556 34.7211 17.6742C34.4025 17.6742 34.1421 17.929 34.1351 18.2476C34.1037 19.7125 33.4811 21.073 32.4274 21.9805C30.1895 23.9074 27.1362 23.9077 24.8984 21.9805C23.8443 21.073 23.2218 19.7125 23.1903 18.2476ZM24.9356 26.0366C25.3149 27.1881 26.5637 28.1036 27.4667 28.6367C26.539 29.1336 26.6046 29.2822 26.1832 29.2324C25.921 29.201 25.6857 29.0551 25.5356 28.8378C24.8349 27.8234 24.1867 26.882 23.7619 26.2649L24.9356 26.0366ZM18.1751 38.828H15.6989C15.0275 38.828 14.4831 38.2836 14.4831 37.6122V31.6525C14.4831 29.8965 15.2808 28.6825 17.0307 27.8439C17.1015 28.1558 18.1751 31.0699 18.1751 35.1418V38.828ZM28.0768 38.828H19.3469V35.1418C19.3469 30.7299 18.2331 27.889 18.1235 27.4081C18.8077 27.1807 18.2996 27.3559 22.5076 26.5087C23.7171 28.2662 25.9741 31.5453 27.3047 33.4365C27.8101 34.1546 28.0768 34.9981 28.0768 35.8761V38.828ZM28.6627 33.4255C28.5461 33.197 28.4128 32.9754 28.2632 32.7624C27.8134 32.1234 27.2296 31.2847 26.6205 30.4055C26.8015 30.3655 26.9782 30.296 27.1439 30.1968L28.6627 29.2858L30.1819 30.1968C30.3473 30.296 30.5243 30.3655 30.7053 30.4055C30.0961 31.2841 29.5123 32.1227 29.0625 32.7624C28.9127 32.9754 28.7793 33.197 28.6627 33.4255ZM42.8424 37.6122C42.8424 38.2836 42.2983 38.828 41.6266 38.828H39.1504V36.6174C39.1504 35.8428 37.9785 35.8416 37.9785 36.6174V38.828H29.2487V35.8761C29.2487 34.9981 29.5157 34.1546 30.0207 33.4368C30.7776 32.3611 33.8937 27.8643 34.8181 26.5087C39.024 27.3556 38.5168 27.1804 39.2019 27.4081C39.1168 27.7685 38.1308 30.4482 37.9947 34.2495C37.9666 35.0259 39.1379 35.064 39.1656 34.2916C39.2975 30.613 40.1999 28.2461 40.2948 27.8439C42.0447 28.6825 42.8424 29.8965 42.8424 31.6522V37.6122Z" fill="#801401"></path>
  </g>
  <defs>
    <clipPath id="clip0_37_21936">
      <rect width="40" height="40" fill="white" transform="translate(5)"></rect>
    </clipPath>
  </defs>
</svg>
