<?xml version="1.0" encoding="UTF-8"?>
<svg xmlns="http://www.w3.org/2000/svg" width="112" height="50" viewBox="0 0 112 50" fill="none">
  <path d="M18.4189 20.6823C19.0078 20.0508 19.7049 19.5396 20.5162 19.1487C21.3215 18.7578 22.1869 18.5534 23.1124 18.5233C23.8276 18.5233 24.5066 18.6015 25.1497 18.7578C25.7927 18.9142 26.4478 19.2089 27.1209 19.6419L28.6894 20.7605C28.9899 20.9228 29.3024 21.007 29.6329 21.007C29.9634 21.007 30.0416 20.9649 30.2699 20.8747C30.5043 20.7845 30.7207 20.6582 30.919 20.4959C31.1233 20.3335 31.2916 20.129 31.4238 19.8764C31.556 19.6299 31.6281 19.3592 31.6281 19.0585C31.6281 18.7578 31.568 18.5113 31.4478 18.2286C31.3276 17.946 31.1473 17.6753 30.913 17.4227C29.9694 16.4786 28.8577 15.7569 27.5656 15.2457C26.2735 14.7405 24.9093 14.4819 23.473 14.4819C22.0367 14.4819 20.4982 14.7706 19.158 15.3479C17.8239 15.9253 16.658 16.7131 15.6664 17.7114C14.6748 18.7157 13.8996 19.8884 13.3347 21.2296C12.7698 22.5767 12.4873 24.02 12.4873 25.5596C12.4873 27.0991 12.7758 28.4823 13.3467 29.7994C13.9176 31.1164 14.7049 32.2591 15.6965 33.2333C16.6941 34.2076 17.8539 34.9714 19.1881 35.5307C20.5162 36.09 21.9465 36.3726 23.467 36.3726C24.9874 36.3726 26.2495 36.12 27.5596 35.6149C28.8637 35.1097 29.9815 34.388 30.907 33.4378C31.1473 33.1973 31.3216 32.9327 31.4358 32.65C31.55 32.3673 31.6041 32.0787 31.6041 31.796C31.6041 31.5134 31.538 31.2247 31.4118 30.9902C31.2856 30.7496 31.1233 30.5451 30.931 30.3707C30.7387 30.2023 30.5223 30.07 30.294 29.9798C30.0596 29.8896 29.8492 29.8475 29.6569 29.8475C29.4646 29.8475 29.3264 29.8716 29.1641 29.9257C29.0019 29.9798 28.8456 30.04 28.6954 30.1181L27.1269 31.2187C26.5019 31.6517 25.8708 31.9464 25.2458 32.1027C24.6208 32.2591 23.9658 32.3373 23.2987 32.3373C22.3131 32.3373 21.4117 32.1448 20.5883 31.7539C19.765 31.363 19.0559 30.8518 18.4489 30.2204C17.8419 29.5829 17.3732 28.8492 17.0366 28.0133C16.7001 27.1773 16.5318 26.3113 16.5318 25.4152C16.5318 24.5192 16.7001 23.6832 17.0366 22.8653C17.3732 22.0474 17.8359 21.3198 18.4249 20.6823" fill="white"></path>
  <path d="M53.1017 17.5792C52.2243 16.623 51.1786 15.8653 49.9467 15.312C48.7207 14.7587 47.3805 14.4821 45.9322 14.4821C44.4839 14.4821 43.2218 14.7948 42.0199 15.4263C40.818 16.0517 39.7663 16.9057 38.8708 17.9822V8.60646C38.8708 8.32381 38.8167 8.05919 38.7086 7.81262C38.6064 7.56605 38.4622 7.35557 38.2819 7.17515C38.1016 6.99473 37.8913 6.85641 37.6569 6.74816C37.4165 6.64592 37.1641 6.5918 36.8936 6.5918C36.6232 6.5918 36.3648 6.64592 36.1184 6.74816C35.872 6.8504 35.6617 6.99473 35.4814 7.17515C35.3011 7.35557 35.1629 7.56605 35.0547 7.81262C34.9525 8.05919 34.8984 8.32381 34.8984 8.60646V34.1476C34.8984 34.7009 35.0907 35.17 35.4694 35.5488C35.848 35.9277 36.3227 36.1202 36.8936 36.1202C37.4646 36.1202 37.9153 35.9277 38.2939 35.5488C38.6725 35.17 38.8648 34.7009 38.8648 34.1476V24.9102C38.8648 23.9961 39.0631 23.1481 39.4598 22.3543C39.8564 21.5605 40.3793 20.8749 41.0403 20.2915C41.6954 19.7082 42.4466 19.2511 43.294 18.9264C44.1353 18.5956 45.0127 18.4332 45.9262 18.4332C46.8397 18.4332 47.663 18.6076 48.4022 18.9504C49.1414 19.2932 49.7724 19.7683 50.2952 20.3757C50.8181 20.9831 51.2207 21.6867 51.5032 22.4926C51.7856 23.2985 51.9298 24.1585 51.9298 25.0726V34.2017C51.9298 34.773 52.1222 35.2361 52.5068 35.603C52.8914 35.9698 53.3541 36.1502 53.895 36.1502C54.4359 36.1502 54.9227 35.9698 55.3133 35.603C55.7039 35.2361 55.9022 34.767 55.9022 34.2017V25.0545C55.9022 23.6052 55.6558 22.24 55.1631 20.953C54.6703 19.6661 53.9852 18.5475 53.1077 17.5913" fill="white"></path>
  <path d="M94.7847 27.6584C94.4242 28.5003 93.9374 29.2461 93.3064 29.8775C92.6814 30.515 91.9422 31.0142 91.0888 31.381C90.2414 31.7479 89.328 31.9283 88.3604 31.9283C87.3928 31.9283 86.4794 31.7479 85.632 31.381C84.7847 31.0142 84.0455 30.515 83.4144 29.8775C82.7894 29.2401 82.2906 28.5003 81.9301 27.6584C81.5635 26.8164 81.3832 25.9144 81.3832 24.9581C81.3832 24.0019 81.5635 23.0998 81.9301 22.2579C82.2966 21.4159 82.7894 20.6762 83.4144 20.0508C84.0394 19.4253 84.7786 18.9262 85.632 18.5593C86.4794 18.1925 87.3928 18.0121 88.3604 18.0121C89.328 18.0121 90.2414 18.1985 91.0888 18.5593C91.9362 18.9262 92.6753 19.4253 93.3064 20.0508C93.9314 20.6762 94.4242 21.4159 94.7847 22.2579C95.1453 23.0998 95.3196 24.0019 95.3196 24.9581C95.3196 25.9144 95.1393 26.8164 94.7847 27.6584ZM76.7377 27.6584C76.3771 28.5003 75.8903 29.2461 75.2593 29.8775C74.6343 30.515 73.8951 31.0142 73.0417 31.381C72.1944 31.7479 71.2809 31.9283 70.3134 31.9283C69.3458 31.9283 68.4323 31.7479 67.585 31.381C66.7376 31.0142 65.9984 30.515 65.3674 29.8775C64.7424 29.2401 64.2436 28.5003 63.877 27.6584C63.5104 26.8164 63.3301 25.9144 63.3301 24.9581C63.3301 24.0019 63.5104 23.0998 63.877 22.2579C64.2436 21.4159 64.7364 20.6762 65.3674 20.0508C65.9924 19.4253 66.7316 18.9262 67.585 18.5593C68.4323 18.1925 69.3458 18.0121 70.3134 18.0121C71.2809 18.0121 72.1944 18.1985 73.0417 18.5593C73.8891 18.9262 74.6283 19.4253 75.2593 20.0508C75.8843 20.6762 76.3771 21.4159 76.7377 22.2579C77.0983 23.0998 77.2726 24.0019 77.2726 24.9581C77.2726 25.9144 77.0923 26.8164 76.7377 27.6584ZM98.4326 20.6883C97.8617 19.3532 97.0864 18.1925 96.1009 17.1942C95.1153 16.1959 93.9554 15.414 92.6213 14.8367C91.2931 14.2594 89.8688 13.9707 88.3604 13.9707C86.852 13.9707 85.4277 14.2594 84.0995 14.8367C82.7714 15.414 81.6055 16.1959 80.6139 17.1942C80.1332 17.6753 79.7065 18.1925 79.3279 18.7518C78.9493 18.1985 78.5286 17.6813 78.0538 17.2002C77.0682 16.2019 75.9084 15.4201 74.5742 14.8427C73.2461 14.2654 71.8218 13.9767 70.3134 13.9767C68.8049 13.9767 67.3806 14.2654 66.0525 14.8427C64.7244 15.4201 63.5585 16.2019 62.5669 17.2002C61.5753 18.1985 60.788 19.3592 60.2111 20.6883C59.6342 22.0173 59.3457 23.4426 59.3457 24.9521V41.3581C59.3457 41.9415 59.544 42.4286 59.9407 42.8255C60.3373 43.2224 60.8181 43.4209 61.371 43.4209C61.9238 43.4209 62.4287 43.2164 62.7772 42.8135C63.1318 42.4105 63.3061 41.9234 63.3061 41.3581V33.3776C64.2616 34.1895 65.3313 34.821 66.5092 35.266C67.6871 35.711 68.9612 35.9335 70.3194 35.9335C71.6776 35.9335 73.2461 35.6449 74.5742 35.0675C75.6199 34.6165 76.5514 34.0332 77.3867 33.3235V41.3581C77.3867 41.9415 77.5851 42.4286 77.9817 42.8255C78.3783 43.2224 78.8591 43.4209 79.412 43.4209C79.9649 43.4209 80.4697 43.2164 80.8183 42.8135C81.1728 42.4105 81.3471 41.9234 81.3471 41.3581V33.3776C82.3027 34.1895 83.3724 34.821 84.5503 35.266C85.7282 35.711 87.0022 35.9335 88.3604 35.9335C89.7186 35.9335 91.2871 35.6449 92.6153 35.0675C93.9434 34.4902 95.1033 33.7084 96.0888 32.7221C97.0744 31.7358 97.8497 30.5751 98.4206 29.2401C98.9855 27.905 99.274 26.4857 99.274 24.9702C99.274 23.4547 98.9915 22.0354 98.4206 20.7003" fill="white"></path>
  <path d="M11.5446 0H1.88103C0.865393 0 0 0.859991 0 1.88236V11.5588C0 12.545 0.865393 13.4832 1.88103 13.4411C2.89666 13.393 3.76205 12.6172 3.76205 11.5588V3.76472H11.5506C12.5362 3.76472 13.4737 2.89871 13.4316 1.88236C13.3835 0.859991 12.6083 0 11.5506 0" fill="white"></path>
  <path d="M109.899 36.559C108.883 36.6071 108.018 37.3829 108.018 38.4413V46.2354H100.229C99.2435 46.2354 98.306 47.1014 98.348 48.1177C98.3961 49.1401 99.1714 50.0001 100.229 50.0001H109.899C110.914 50.0001 111.78 49.1401 111.78 48.1177V38.4413C111.78 37.4551 110.914 36.5169 109.899 36.559Z" fill="white"></path>
</svg>
