<?xml version="1.0" encoding="UTF-8"?>
<svg xmlns="http://www.w3.org/2000/svg" width="122" height="55" viewBox="0 0 122 55" fill="none">
  <path d="M20.0571 22.8287C20.6982 22.1467 21.4572 21.5947 22.3404 21.1725C23.2171 20.7503 24.1592 20.5295 25.1668 20.497C25.9453 20.497 26.6846 20.5814 27.3847 20.7503C28.0847 20.9192 28.7979 21.2374 29.5306 21.7051L31.2382 22.9132C31.5654 23.0885 31.9056 23.1794 32.2654 23.1794C32.6252 23.1794 32.7103 23.134 32.9589 23.0366C33.2141 22.9391 33.4496 22.8027 33.6655 22.6274C33.888 22.452 34.0711 22.2312 34.2151 21.9584C34.359 21.6921 34.4375 21.3998 34.4375 21.0751C34.4375 20.7503 34.3721 20.484 34.2413 20.1787C34.1104 19.8735 33.9141 19.5812 33.659 19.3084C32.6318 18.2887 31.4214 17.5093 30.0148 16.9572C28.6081 16.4116 27.123 16.1323 25.5593 16.1323C23.9957 16.1323 22.3208 16.4441 20.8618 17.0676C19.4094 17.6911 18.1401 18.542 17.0606 19.6202C15.9811 20.7048 15.1371 21.9714 14.5221 23.4198C13.9071 24.8747 13.5996 26.4335 13.5996 28.0962C13.5996 29.7589 13.9137 31.2528 14.5352 32.6752C15.1567 34.0976 16.0138 35.3317 17.0933 36.3839C18.1794 37.4361 19.4421 38.2609 20.8945 38.865C22.3404 39.469 23.8975 39.7743 25.5528 39.7743C27.208 39.7743 28.582 39.5015 30.0082 38.9559C31.428 38.4103 32.6449 37.6309 33.6524 36.6047C33.9141 36.3449 34.1039 36.0591 34.2282 35.7539C34.3525 35.4486 34.4114 35.1368 34.4114 34.8316C34.4114 34.5263 34.3394 34.2145 34.202 33.9612C34.0646 33.7014 33.888 33.4806 33.6786 33.2922C33.4692 33.1104 33.2337 32.9675 32.9851 32.8701C32.7299 32.7726 32.5009 32.7272 32.2916 32.7272C32.0822 32.7272 31.9317 32.7531 31.7551 32.8116C31.5784 32.8701 31.4083 32.935 31.2448 33.0194L29.5372 34.208C28.8568 34.6757 28.1698 34.9939 27.4894 35.1628C26.809 35.3317 26.0958 35.4161 25.3696 35.4161C24.2966 35.4161 23.3152 35.2083 22.4189 34.7861C21.5226 34.3639 20.7506 33.8118 20.0898 33.1299C19.429 32.4414 18.9187 31.649 18.5523 30.7462C18.1859 29.8434 18.0027 28.9081 18.0027 27.9403C18.0027 26.9726 18.1859 26.0697 18.5523 25.1864C18.9187 24.3031 19.4225 23.5172 20.0636 22.8287" fill="#29363B"></path>
  <path d="M57.8144 19.4783C56.8591 18.4456 55.7207 17.6272 54.3795 17.0296C53.0449 16.4321 51.5859 16.1333 50.0091 16.1333C48.4324 16.1333 47.0585 16.4711 45.75 17.153C44.4414 17.8285 43.2965 18.7508 42.3217 19.9134V9.78766C42.3217 9.48239 42.2628 9.19661 42.145 8.93031C42.0338 8.66401 41.8768 8.43669 41.6805 8.24184C41.4842 8.04699 41.2552 7.8976 41.0001 7.78069C40.7384 7.67027 40.4636 7.61182 40.1692 7.61182C39.8748 7.61182 39.5934 7.67027 39.3252 7.78069C39.057 7.8911 38.828 8.04699 38.6317 8.24184C38.4354 8.43669 38.2849 8.66401 38.1672 8.93031C38.056 9.19661 37.9971 9.48239 37.9971 9.78766V37.3721C37.9971 37.9697 38.2064 38.4763 38.6186 38.8855C39.0308 39.2947 39.5476 39.5025 40.1692 39.5025C40.7907 39.5025 41.2814 39.2947 41.6936 38.8855C42.1058 38.4763 42.3151 37.9697 42.3151 37.3721V27.3957C42.3151 26.4085 42.531 25.4927 42.9628 24.6353C43.3946 23.778 43.9638 23.0376 44.6835 22.4075C45.3967 21.7775 46.2145 21.2839 47.137 20.9332C48.0529 20.5759 49.0081 20.4006 50.0026 20.4006C50.9971 20.4006 51.8934 20.5889 52.6981 20.9591C53.5028 21.3294 54.1898 21.8425 54.759 22.4985C55.3282 23.1545 55.7665 23.9144 56.074 24.7847C56.3815 25.6551 56.5386 26.5838 56.5386 27.5711V37.4306C56.5386 38.0476 56.7479 38.5477 57.1666 38.9439C57.5854 39.3401 58.0891 39.535 58.678 39.535C59.2668 39.535 59.7967 39.3401 60.222 38.9439C60.6473 38.5477 60.8632 38.0411 60.8632 37.4306V27.5516C60.8632 25.9863 60.5949 24.5119 60.0584 23.122C59.522 21.732 58.7761 20.524 57.8209 19.4913" fill="#29363B"></path>
  <path d="M103.195 30.3633C102.802 31.2726 102.272 32.078 101.585 32.76C100.905 33.4484 100.1 33.9875 99.1709 34.3837C98.2484 34.7799 97.2539 34.9748 96.2006 34.9748C95.1472 34.9748 94.1527 34.7799 93.2303 34.3837C92.3078 33.9875 91.503 33.4484 90.8161 32.76C90.1356 32.0715 89.5926 31.2726 89.2001 30.3633C88.801 29.454 88.6047 28.4797 88.6047 27.447C88.6047 26.4143 88.801 25.44 89.2001 24.5307C89.5992 23.6214 90.1356 22.8225 90.8161 22.1471C91.4965 21.4716 92.3012 20.9325 93.2303 20.5363C94.1527 20.1401 95.1472 19.9452 96.2006 19.9452C97.2539 19.9452 98.2484 20.1466 99.1709 20.5363C100.093 20.9325 100.898 21.4716 101.585 22.1471C102.265 22.8225 102.802 23.6214 103.195 24.5307C103.587 25.44 103.777 26.4143 103.777 27.447C103.777 28.4797 103.581 29.454 103.195 30.3633ZM83.5473 30.3633C83.1548 31.2726 82.6248 32.078 81.9379 32.76C81.2574 33.4484 80.4527 33.9875 79.5237 34.3837C78.6012 34.7799 77.6067 34.9748 76.5534 34.9748C75.5 34.9748 74.5056 34.7799 73.5831 34.3837C72.6606 33.9875 71.8558 33.4484 71.1689 32.76C70.4885 32.0715 69.9454 31.2726 69.5463 30.3633C69.1472 29.454 68.951 28.4797 68.951 27.447C68.951 26.4143 69.1472 25.44 69.5463 24.5307C69.9454 23.6214 70.4819 22.8225 71.1689 22.1471C71.8493 21.4716 72.654 20.9325 73.5831 20.5363C74.5056 20.1401 75.5 19.9452 76.5534 19.9452C77.6067 19.9452 78.6012 20.1466 79.5237 20.5363C80.4462 20.9325 81.2509 21.4716 81.9379 22.1471C82.6183 22.8225 83.1548 23.6214 83.5473 24.5307C83.9399 25.44 84.1296 26.4143 84.1296 27.447C84.1296 28.4797 83.9333 29.454 83.5473 30.3633ZM107.166 22.8355C106.544 21.3936 105.7 20.1401 104.627 19.0619C103.554 17.9837 102.292 17.1394 100.839 16.5159C99.3933 15.8923 97.8427 15.5806 96.2006 15.5806C94.5584 15.5806 93.0078 15.8923 91.5619 16.5159C90.116 17.1394 88.8468 17.9837 87.7673 19.0619C87.2438 19.5815 86.7793 20.1401 86.3672 20.7441C85.955 20.1466 85.497 19.588 84.9801 19.0684C83.9072 17.9902 82.6445 17.1459 81.192 16.5223C79.7461 15.8988 78.1955 15.5871 76.5534 15.5871C74.9112 15.5871 73.3606 15.8988 71.9147 16.5223C70.4688 17.1459 69.1996 17.9902 68.1201 19.0684C67.0406 20.1466 66.1835 21.4001 65.5554 22.8355C64.9273 24.2709 64.6133 25.8103 64.6133 27.4405V45.159C64.6133 45.789 64.8292 46.3151 65.261 46.7438C65.6928 47.1725 66.2162 47.3868 66.8181 47.3868C67.42 47.3868 67.9696 47.166 68.3491 46.7308C68.7351 46.2956 68.9248 45.7695 68.9248 45.159V36.5401C69.9651 37.4169 71.1296 38.0989 72.412 38.5795C73.6943 39.0602 75.0813 39.3005 76.5599 39.3005C78.0385 39.3005 79.7461 38.9887 81.192 38.3652C82.3304 37.8781 83.3445 37.248 84.2539 36.4816V45.159C84.2539 45.789 84.4698 46.3151 84.9016 46.7438C85.3334 47.1725 85.8568 47.3868 86.4587 47.3868C87.0607 47.3868 87.6102 47.166 87.9897 46.7308C88.3757 46.2956 88.5654 45.7695 88.5654 45.159V36.5401C89.6057 37.4169 90.7703 38.0989 92.0526 38.5795C93.3349 39.0602 94.7219 39.3005 96.2006 39.3005C97.6792 39.3005 99.3868 38.9887 100.833 38.3652C102.279 37.7417 103.541 36.8973 104.614 35.8321C105.687 34.7669 106.531 33.5134 107.153 32.0715C107.768 30.6296 108.082 29.0968 108.082 27.46C108.082 25.8233 107.774 24.2904 107.153 22.8485" fill="#29363B"></path>
  <path d="M12.5731 0.492676H2.05269C0.947006 0.492676 0.00488281 1.42147 0.00488281 2.52563V12.9762C0.00488281 14.0413 0.947006 15.0546 2.05269 15.0091C3.15838 14.9571 4.1005 14.1193 4.1005 12.9762V4.55857H12.5796C13.6526 4.55857 14.6732 3.62329 14.6274 2.52563C14.5751 1.42147 13.7311 0.492676 12.5796 0.492676" fill="#E21017"></path>
  <path d="M119.648 39.9761C118.543 40.028 117.601 40.8659 117.601 42.009V50.4266H109.122C108.049 50.4266 107.028 51.3619 107.074 52.4596C107.126 53.5637 107.97 54.4925 109.122 54.4925H119.648C120.754 54.4925 121.696 53.5637 121.696 52.4596V42.009C121.696 40.9438 120.754 39.9306 119.648 39.9761Z" fill="#E21017"></path>
</svg>
